<?xml version="1.0" encoding="utf-8" ?>
<svg baseProfile="full" height="620" version="1.1" width="620" xmlns="http://www.w3.org/2000/svg" xmlns:ev="http://www.w3.org/2001/xml-events" xmlns:xlink="http://www.w3.org/1999/xlink"><defs /><rect fill="#111111" height="100%" width="100%" x="0" y="0" /><g><path d="M 300 300 L 300 300 L 300 280 L 300 260 L 300.0 245.0 C 300.0 242.761423749155 302.761423749155 240.0 305.0 240.0 L 320 240 L 335.0 240.0 C 337.238576250845 240.0 340.0 237.238576250845 340.0 235.0 L 340 220 L 340 200" fill="none" stroke="#111111" stroke-width="9" /><path d="M 300 300 L 300 300 L 300 280 L 300 260 L 300.0 245.0 C 300.0 242.761423749155 302.761423749155 240.0 305.0 240.0 L 320 240 L 335.0 240.0 C 337.238576250845 240.0 340.0 237.238576250845 340.0 235.0 L 340 220 L 340 200" fill="none" stroke="#16a085" stroke-width="3" /><path d="M 334.0 200.0 L 340.0 190.0 L 346.0 200.0" fill="#16a085" /><circle cx="300" cy="300" fill="#16a085" r="5" /></g><g><path d="M 420 300 L 420 300 L 420 280 L 420.0 265.0 C 420.0 262.761423749155 422.761423749155 260.0 425.0 260.0 L 440 260 L 460 260 L 475.0 260.0 C 477.238576250845 260.0 480.0 257.238576250845 480.0 255.0 L 480.0 245.0 C 480.0 242.761423749155 482.761423749155 240.0 485.0 240.0 L 500 240 L 520 240" fill="none" stroke="#111111" stroke-width="9" /><path d="M 420 300 L 420 300 L 420 280 L 420.0 265.0 C 420.0 262.761423749155 422.761423749155 260.0 425.0 260.0 L 440 260 L 460 260 L 475.0 260.0 C 477.238576250845 260.0 480.0 257.238576250845 480.0 255.0 L 480.0 245.0 C 480.0 242.761423749155 482.761423749155 240.0 485.0 240.0 L 500 240 L 520 240" fill="none" stroke="#e67e22" stroke-width="3" /><path d="M 520.0 246.0 L 530.0 240.0 L 520.0 234.0" fill="#e67e22" /><circle cx="420" cy="300" fill="#e67e22" r="5" /></g><g><path d="M 400 200 L 400 200 L 420 200 L 440 200 L 455.0 200.0 C 457.238576250845 200.0 460.0 202.761423749155 460.0 205.0 L 460 220 L 460 240 L 460 260 L 460 280" fill="none" stroke="#111111" stroke-width="9" /><path d="M 400 200 L 400 200 L 420 200 L 440 200 L 455.0 200.0 C 457.238576250845 200.0 460.0 202.761423749155 460.0 205.0 L 460 220 L 460 240 L 460 260 L 460 280" fill="none" stroke="#F06292" stroke-width="3" /><path d="M 466.0 280.0 L 460.0 290.0 L 454.0 280.0" fill="#F06292" /><circle cx="400" cy="200" fill="#F06292" r="5" /></g><g><path d="M 260 420 L 260 420 L 280 420 L 300 420 L 320 420 L 340 420 L 360 420 L 380 420 L 400 420" fill="none" stroke="#111111" stroke-width="9" /><path d="M 260 420 L 260 420 L 280 420 L 300 420 L 320 420 L 340 420 L 360 420 L 380 420 L 400 420" fill="none" stroke="#3498db" stroke-width="3" /><path d="M 400.0 426.0 L 410.0 420.0 L 400.0 414.0" fill="#3498db" /><circle cx="260" cy="420" fill="#3498db" r="5" /></g><g><path d="M 200 260 L 200 260 L 185.0 260.0 C 182.761423749155 260.0 180.0 257.238576250845 180.0 255.0 L 180 240 L 180 220 L 180.0 205.0 C 180.0 202.761423749155 177.238576250845 200.0 175.0 200.0 L 165.0 200.0 C 162.761423749155 200.0 160.0 197.238576250845 160.0 195.0 L 160 180 L 160.0 165.0 C 160.0 162.761423749155 157.238576250845 160.0 155.0 160.0 L 145.0 160.0 C 142.761423749155 160.0 140.0 157.238576250845 140.0 155.0 L 140.0 145.0 C 140.0 142.761423749155 137.238576250845 140.0 135.0 140.0 L 120 140 L 100 140" fill="none" stroke="#111111" stroke-width="9" /><path d="M 200 260 L 200 260 L 185.0 260.0 C 182.761423749155 260.0 180.0 257.238576250845 180.0 255.0 L 180 240 L 180 220 L 180.0 205.0 C 180.0 202.761423749155 177.238576250845 200.0 175.0 200.0 L 165.0 200.0 C 162.761423749155 200.0 160.0 197.238576250845 160.0 195.0 L 160 180 L 160.0 165.0 C 160.0 162.761423749155 157.238576250845 160.0 155.0 160.0 L 145.0 160.0 C 142.761423749155 160.0 140.0 157.238576250845 140.0 155.0 L 140.0 145.0 C 140.0 142.761423749155 137.238576250845 140.0 135.0 140.0 L 120 140 L 100 140" fill="none" stroke="#c0392b" stroke-width="3" /><path d="M 100.0 134.0 L 90.0 140.0 L 100.0 146.0" fill="#c0392b" /><circle cx="200" cy="260" fill="#c0392b" r="5" /></g><g><path d="M 460 460 L 460 460 L 445.0 460.0 C 442.761423749155 460.0 440.0 457.238576250845 440.0 455.0 L 440.0 445.0 C 440.0 442.761423749155 437.238576250845 440.0 435.0 440.0 L 420 440 L 400 440 L 380 440 L 360 440 L 340 440 L 320 440" fill="none" stroke="#111111" stroke-width="9" /><path d="M 460 460 L 460 460 L 445.0 460.0 C 442.761423749155 460.0 440.0 457.238576250845 440.0 455.0 L 440.0 445.0 C 440.0 442.761423749155 437.238576250845 440.0 435.0 440.0 L 420 440 L 400 440 L 380 440 L 360 440 L 340 440 L 320 440" fill="none" stroke="#c0392b" stroke-width="3" /><path d="M 320.0 434.0 L 310.0 440.0 L 320.0 446.0" fill="#c0392b" /><circle cx="460" cy="460" fill="#c0392b" r="5" /></g><g><path d="M 500 460 L 500 460 L 485.0 460.0 C 482.761423749155 460.0 480.0 462.761423749155 480.0 465.0 L 480.0 475.0 C 480.0 477.238576250845 477.238576250845 480.0 475.0 480.0 L 460 480 L 445.0 480.0 C 442.761423749155 480.0 440.0 482.761423749155 440.0 485.0 L 440 500 L 440 520" fill="none" stroke="#111111" stroke-width="9" /><path d="M 500 460 L 500 460 L 485.0 460.0 C 482.761423749155 460.0 480.0 462.761423749155 480.0 465.0 L 480.0 475.0 C 480.0 477.238576250845 477.238576250845 480.0 475.0 480.0 L 460 480 L 445.0 480.0 C 442.761423749155 480.0 440.0 482.761423749155 440.0 485.0 L 440 500 L 440 520" fill="none" stroke="#c0392b" stroke-width="3" /><path d="M 446.0 520.0 L 440.0 530.0 L 434.0 520.0" fill="#c0392b" /><circle cx="500" cy="460" fill="#c0392b" r="5" /></g><g><path d="M 400 340 L 400 340 L 400 320 L 400.0 305.0 C 400.0 302.761423749155 397.238576250845 300.0 395.0 300.0 L 385.0 300.0 C 382.761423749155 300.0 380.0 297.238576250845 380.0 295.0 L 380.0 285.0 C 380.0 282.761423749155 377.238576250845 280.0 375.0 280.0 L 360 280 L 340 280 L 320 280 L 300 280 L 280 280 L 260 280" fill="none" stroke="#111111" stroke-width="9" /><path d="M 400 340 L 400 340 L 400 320 L 400.0 305.0 C 400.0 302.761423749155 397.238576250845 300.0 395.0 300.0 L 385.0 300.0 C 382.761423749155 300.0 380.0 297.238576250845 380.0 295.0 L 380.0 285.0 C 380.0 282.761423749155 377.238576250845 280.0 375.0 280.0 L 360 280 L 340 280 L 320 280 L 300 280 L 280 280 L 260 280" fill="none" stroke="#f39c12" stroke-width="3" /><path d="M 260.0 274.0 L 250.0 280.0 L 260.0 286.0" fill="#f39c12" /><circle cx="400" cy="340" fill="#f39c12" r="5" /></g><g><path d="M 220 240 L 220 240 L 220 220 L 220.0 205.0 C 220.0 202.761423749155 217.238576250845 200.0 215.0 200.0 L 205.0 200.0 C 202.761423749155 200.0 200.0 197.238576250845 200.0 195.0 L 200 180 L 200 160 L 200.0 145.0 C 200.0 142.761423749155 197.238576250845 140.0 195.0 140.0 L 185.0 140.0 C 182.761423749155 140.0 180.0 137.238576250845 180.0 135.0 L 180 120 L 180.0 105.0 C 180.0 102.761423749155 177.238576250845 100.0 175.0 100.0 L 160 100" fill="none" stroke="#111111" stroke-width="9" /><path d="M 220 240 L 220 240 L 220 220 L 220.0 205.0 C 220.0 202.761423749155 217.238576250845 200.0 215.0 200.0 L 205.0 200.0 C 202.761423749155 200.0 200.0 197.238576250845 200.0 195.0 L 200 180 L 200 160 L 200.0 145.0 C 200.0 142.761423749155 197.238576250845 140.0 195.0 140.0 L 185.0 140.0 C 182.761423749155 140.0 180.0 137.238576250845 180.0 135.0 L 180 120 L 180.0 105.0 C 180.0 102.761423749155 177.238576250845 100.0 175.0 100.0 L 160 100" fill="none" stroke="#f1c40f" stroke-width="3" /><path d="M 160.0 94.0 L 150.0 100.0 L 160.0 106.0" fill="#f1c40f" /><circle cx="220" cy="240" fill="#f1c40f" r="5" /></g><g><path d="M 260 100 L 260 100 L 260 120 L 260 140 L 260 160 L 260.0 175.0 C 260.0 177.238576250845 262.761423749155 180.0 265.0 180.0 L 280 180 L 300 180 L 320 180 L 340 180 L 360 180" fill="none" stroke="#111111" stroke-width="9" /><path d="M 260 100 L 260 100 L 260 120 L 260 140 L 260 160 L 260.0 175.0 C 260.0 177.238576250845 262.761423749155 180.0 265.0 180.0 L 280 180 L 300 180 L 320 180 L 340 180 L 360 180" fill="none" stroke="#16a085" stroke-width="3" /><path d="M 360.0 186.0 L 370.0 180.0 L 360.0 174.0" fill="#16a085" /><circle cx="260" cy="100" fill="#16a085" r="5" /></g><g><path d="M 200 360 L 200 360 L 220 360 L 240 360 L 260 360 L 280 360 L 300 360 L 320 360" fill="none" stroke="#111111" stroke-width="9" /><path d="M 200 360 L 200 360 L 220 360 L 240 360 L 260 360 L 280 360 L 300 360 L 320 360" fill="none" stroke="#1abc9c" stroke-width="3" /><path d="M 320.0 366.0 L 330.0 360.0 L 320.0 354.0" fill="#1abc9c" /><circle cx="200" cy="360" fill="#1abc9c" r="5" /></g><g><path d="M 220 100 L 220 100 L 220 120 L 220 140 L 220.0 155.0 C 220.0 157.238576250845 222.761423749155 160.0 225.0 160.0 L 235.0 160.0 C 237.238576250845 160.0 240.0 162.761423749155 240.0 165.0 L 240 180 L 240.0 195.0 C 240.0 197.238576250845 242.761423749155 200.0 245.0 200.0 L 260 200 L 280 200" fill="none" stroke="#111111" stroke-width="9" /><path d="M 220 100 L 220 100 L 220 120 L 220 140 L 220.0 155.0 C 220.0 157.238576250845 222.761423749155 160.0 225.0 160.0 L 235.0 160.0 C 237.238576250845 160.0 240.0 162.761423749155 240.0 165.0 L 240 180 L 240.0 195.0 C 240.0 197.238576250845 242.761423749155 200.0 245.0 200.0 L 260 200 L 280 200" fill="none" stroke="#c0392b" stroke-width="3" /><path d="M 280.0 206.0 L 290.0 200.0 L 280.0 194.0" fill="#c0392b" /><circle cx="220" cy="100" fill="#c0392b" r="5" /></g><g><path d="M 540 440 L 540 440 L 525.0 440.0 C 522.761423749155 440.0 520.0 437.238576250845 520.0 435.0 L 520 420 L 520 400 L 520 380 L 520.0 365.0 C 520.0 362.761423749155 517.238576250845 360.0 515.0 360.0 L 505.0 360.0 C 502.761423749155 360.0 500.0 357.238576250845 500.0 355.0 L 500 340 L 500 320" fill="none" stroke="#111111" stroke-width="9" /><path d="M 540 440 L 540 440 L 525.0 440.0 C 522.761423749155 440.0 520.0 437.238576250845 520.0 435.0 L 520 420 L 520 400 L 520 380 L 520.0 365.0 C 520.0 362.761423749155 517.238576250845 360.0 515.0 360.0 L 505.0 360.0 C 502.761423749155 360.0 500.0 357.238576250845 500.0 355.0 L 500 340 L 500 320" fill="none" stroke="#27ae60" stroke-width="3" /><path d="M 494.0 320.0 L 500.0 310.0 L 506.0 320.0" fill="#27ae60" /><circle cx="540" cy="440" fill="#27ae60" r="5" /></g><g><path d="M 300 400 L 300 400 L 300 420 L 300 440 L 300 460 L 300.0 475.0 C 300.0 477.238576250845 302.761423749155 480.0 305.0 480.0 L 315.0 480.0 C 317.238576250845 480.0 320.0 482.761423749155 320.0 485.0 L 320.0 495.0 C 320.0 497.238576250845 322.761423749155 500.0 325.0 500.0 L 340 500 L 360 500 L 380 500" fill="none" stroke="#111111" stroke-width="9" /><path d="M 300 400 L 300 400 L 300 420 L 300 440 L 300 460 L 300.0 475.0 C 300.0 477.238576250845 302.761423749155 480.0 305.0 480.0 L 315.0 480.0 C 317.238576250845 480.0 320.0 482.761423749155 320.0 485.0 L 320.0 495.0 C 320.0 497.238576250845 322.761423749155 500.0 325.0 500.0 L 340 500 L 360 500 L 380 500" fill="none" stroke="#3498db" stroke-width="3" /><path d="M 380.0 506.0 L 390.0 500.0 L 380.0 494.0" fill="#3498db" /><circle cx="300" cy="400" fill="#3498db" r="5" /></g><g><path d="M 100 200 L 100 200 L 115.0 200.0 C 117.238576250845 200.0 120.0 202.761423749155 120.0 205.0 L 120.0 215.0 C 120.0 217.238576250845 122.761423749155 220.0 125.0 220.0 L 135.0 220.0 C 137.238576250845 220.0 140.0 222.761423749155 140.0 225.0 L 140 240 L 140 260 L 140 280" fill="none" stroke="#111111" stroke-width="9" /><path d="M 100 200 L 100 200 L 115.0 200.0 C 117.238576250845 200.0 120.0 202.761423749155 120.0 205.0 L 120.0 215.0 C 120.0 217.238576250845 122.761423749155 220.0 125.0 220.0 L 135.0 220.0 C 137.238576250845 220.0 140.0 222.761423749155 140.0 225.0 L 140 240 L 140 260 L 140 280" fill="none" stroke="#F06292" stroke-width="3" /><path d="M 146.0 280.0 L 140.0 290.0 L 134.0 280.0" fill="#F06292" /><circle cx="100" cy="200" fill="#F06292" r="5" /></g><g><path d="M 180 440 L 180 440 L 180.0 455.0 C 180.0 457.238576250845 182.761423749155 460.0 185.0 460.0 L 195.0 460.0 C 197.238576250845 460.0 200.0 462.761423749155 200.0 465.0 L 200 480 L 200 500 L 200 520 L 200.0 535.0 C 200.0 537.238576250845 202.761423749155 540.0 205.0 540.0 L 215.0 540.0 C 217.238576250845 540.0 220.0 542.761423749155 220.0 545.0 L 220.0 555.0 C 220.0 557.238576250845 222.761423749155 560.0 225.0 560.0 L 240 560 L 260 560 L 280 560" fill="none" stroke="#111111" stroke-width="9" /><path d="M 180 440 L 180 440 L 180.0 455.0 C 180.0 457.238576250845 182.761423749155 460.0 185.0 460.0 L 195.0 460.0 C 197.238576250845 460.0 200.0 462.761423749155 200.0 465.0 L 200 480 L 200 500 L 200 520 L 200.0 535.0 C 200.0 537.238576250845 202.761423749155 540.0 205.0 540.0 L 215.0 540.0 C 217.238576250845 540.0 220.0 542.761423749155 220.0 545.0 L 220.0 555.0 C 220.0 557.238576250845 222.761423749155 560.0 225.0 560.0 L 240 560 L 260 560 L 280 560" fill="none" stroke="#e67e22" stroke-width="3" /><path d="M 280.0 566.0 L 290.0 560.0 L 280.0 554.0" fill="#e67e22" /><circle cx="180" cy="440" fill="#e67e22" r="5" /></g><g><path d="M 240 480 L 240 480 L 240 460 L 240 440 L 240 420 L 240 400 L 240 380 L 240 360 L 240 340" fill="none" stroke="#111111" stroke-width="9" /><path d="M 240 480 L 240 480 L 240 460 L 240 440 L 240 420 L 240 400 L 240 380 L 240 360 L 240 340" fill="none" stroke="#27ae60" stroke-width="3" /><path d="M 234.0 340.0 L 240.0 330.0 L 246.0 340.0" fill="#27ae60" /><circle cx="240" cy="480" fill="#27ae60" r="5" /></g><g><path d="M 160 400 L 160 400 L 160 420 L 160.0 435.0 C 160.0 437.238576250845 157.238576250845 440.0 155.0 440.0 L 140 440 L 120 440 L 100 440" fill="none" stroke="#111111" stroke-width="9" /><path d="M 160 400 L 160 400 L 160 420 L 160.0 435.0 C 160.0 437.238576250845 157.238576250845 440.0 155.0 440.0 L 140 440 L 120 440 L 100 440" fill="none" stroke="#f1c40f" stroke-width="3" /><path d="M 100.0 434.0 L 90.0 440.0 L 100.0 446.0" fill="#f1c40f" /><circle cx="160" cy="400" fill="#f1c40f" r="5" /></g><g><path d="M 520 140 L 520 140 L 505.0 140.0 C 502.761423749155 140.0 500.0 137.238576250845 500.0 135.0 L 500.0 125.0 C 500.0 122.761423749155 497.238576250845 120.0 495.0 120.0 L 480 120 L 465.0 120.0 C 462.761423749155 120.0 460.0 117.238576250845 460.0 115.0 L 460.0 105.0 C 460.0 102.761423749155 457.238576250845 100.0 455.0 100.0 L 440 100" fill="none" stroke="#111111" stroke-width="9" /><path d="M 520 140 L 520 140 L 505.0 140.0 C 502.761423749155 140.0 500.0 137.238576250845 500.0 135.0 L 500.0 125.0 C 500.0 122.761423749155 497.238576250845 120.0 495.0 120.0 L 480 120 L 465.0 120.0 C 462.761423749155 120.0 460.0 117.238576250845 460.0 115.0 L 460.0 105.0 C 460.0 102.761423749155 457.238576250845 100.0 455.0 100.0 L 440 100" fill="none" stroke="#16a085" stroke-width="3" /><path d="M 440.0 94.0 L 430.0 100.0 L 440.0 106.0" fill="#16a085" /><circle cx="520" cy="140" fill="#16a085" r="5" /></g><g><path d="M 300 120 L 300 120 L 300 140 L 300.0 155.0 C 300.0 157.238576250845 302.761423749155 160.0 305.0 160.0 L 315.0 160.0 C 317.238576250845 160.0 320.0 162.761423749155 320.0 165.0 L 320 180 L 320 200 L 320.0 215.0 C 320.0 217.238576250845 322.761423749155 220.0 325.0 220.0 L 340 220 L 360 220" fill="none" stroke="#111111" stroke-width="9" /><path d="M 300 120 L 300 120 L 300 140 L 300.0 155.0 C 300.0 157.238576250845 302.761423749155 160.0 305.0 160.0 L 315.0 160.0 C 317.238576250845 160.0 320.0 162.761423749155 320.0 165.0 L 320 180 L 320 200 L 320.0 215.0 C 320.0 217.238576250845 322.761423749155 220.0 325.0 220.0 L 340 220 L 360 220" fill="none" stroke="#8e44ad" stroke-width="3" /><path d="M 360.0 226.0 L 370.0 220.0 L 360.0 214.0" fill="#8e44ad" /><circle cx="300" cy="120" fill="#8e44ad" r="5" /></g><g><path d="M 280 80 L 280 80 L 300 80 L 320 80 L 335.0 80.0 C 337.238576250845 80.0 340.0 82.761423749155 340.0 85.0 L 340 100 L 340 120 L 340.0 135.0 C 340.0 137.238576250845 342.761423749155 140.0 345.0 140.0 L 360 140 L 375.0 140.0 C 377.238576250845 140.0 380.0 142.761423749155 380.0 145.0 L 380 160 L 380 180 L 380 200 L 380 220 L 380.0 235.0 C 380.0 237.238576250845 377.238576250845 240.0 375.0 240.0 L 365.0 240.0 C 362.761423749155 240.0 360.0 242.761423749155 360.0 245.0 L 360.0 255.0 C 360.0 257.238576250845 357.238576250845 260.0 355.0 260.0 L 340 260 L 320 260 L 300 260 L 285.0 260.0 C 282.761423749155 260.0 280.0 257.238576250845 280.0 255.0 L 280.0 245.0 C 280.0 242.761423749155 277.238576250845 240.0 275.0 240.0 L 265.0 240.0 C 262.761423749155 240.0 260.0 237.238576250845 260.0 235.0 L 260 220" fill="none" stroke="#111111" stroke-width="9" /><path d="M 280 80 L 280 80 L 300 80 L 320 80 L 335.0 80.0 C 337.238576250845 80.0 340.0 82.761423749155 340.0 85.0 L 340 100 L 340 120 L 340.0 135.0 C 340.0 137.238576250845 342.761423749155 140.0 345.0 140.0 L 360 140 L 375.0 140.0 C 377.238576250845 140.0 380.0 142.761423749155 380.0 145.0 L 380 160 L 380 180 L 380 200 L 380 220 L 380.0 235.0 C 380.0 237.238576250845 377.238576250845 240.0 375.0 240.0 L 365.0 240.0 C 362.761423749155 240.0 360.0 242.761423749155 360.0 245.0 L 360.0 255.0 C 360.0 257.238576250845 357.238576250845 260.0 355.0 260.0 L 340 260 L 320 260 L 300 260 L 285.0 260.0 C 282.761423749155 260.0 280.0 257.238576250845 280.0 255.0 L 280.0 245.0 C 280.0 242.761423749155 277.238576250845 240.0 275.0 240.0 L 265.0 240.0 C 262.761423749155 240.0 260.0 237.238576250845 260.0 235.0 L 260 220" fill="none" stroke="#16a085" stroke-width="3" /><path d="M 254.0 220.0 L 260.0 210.0 L 266.0 220.0" fill="#16a085" /><circle cx="280" cy="80" fill="#16a085" r="5" /></g><g><path d="M 360 380 L 360 380 L 360.0 365.0 C 360.0 362.761423749155 362.761423749155 360.0 365.0 360.0 L 380 360 L 400 360 L 420 360 L 440 360 L 460 360" fill="none" stroke="#111111" stroke-width="9" /><path d="M 360 380 L 360 380 L 360.0 365.0 C 360.0 362.761423749155 362.761423749155 360.0 365.0 360.0 L 380 360 L 400 360 L 420 360 L 440 360 L 460 360" fill="none" stroke="#f1c40f" stroke-width="3" /><path d="M 460.0 366.0 L 470.0 360.0 L 460.0 354.0" fill="#f1c40f" /><circle cx="360" cy="380" fill="#f1c40f" r="5" /></g><g><path d="M 560 380 L 560 380 L 545.0 380.0 C 542.761423749155 380.0 540.0 377.238576250845 540.0 375.0 L 540 360 L 540.0 345.0 C 540.0 342.761423749155 537.238576250845 340.0 535.0 340.0 L 520 340 L 500 340 L 480 340 L 460 340 L 440 340" fill="none" stroke="#111111" stroke-width="9" /><path d="M 560 380 L 560 380 L 545.0 380.0 C 542.761423749155 380.0 540.0 377.238576250845 540.0 375.0 L 540 360 L 540.0 345.0 C 540.0 342.761423749155 537.238576250845 340.0 535.0 340.0 L 520 340 L 500 340 L 480 340 L 460 340 L 440 340" fill="none" stroke="#16a085" stroke-width="3" /><path d="M 440.0 334.0 L 430.0 340.0 L 440.0 346.0" fill="#16a085" /><circle cx="560" cy="380" fill="#16a085" r="5" /></g><g><path d="M 180 520 L 180 520 L 160 520 L 145.0 520.0 C 142.761423749155 520.0 140.0 517.238576250845 140.0 515.0 L 140.0 505.0 C 140.0 502.761423749155 137.238576250845 500.0 135.0 500.0 L 125.0 500.0 C 122.761423749155 500.0 120.0 497.238576250845 120.0 495.0 L 120 480 L 120 460 L 120 440 L 120 420 L 120.0 405.0 C 120.0 402.761423749155 117.238576250845 400.0 115.0 400.0 L 100 400" fill="none" stroke="#111111" stroke-width="9" /><path d="M 180 520 L 180 520 L 160 520 L 145.0 520.0 C 142.761423749155 520.0 140.0 517.238576250845 140.0 515.0 L 140.0 505.0 C 140.0 502.761423749155 137.238576250845 500.0 135.0 500.0 L 125.0 500.0 C 122.761423749155 500.0 120.0 497.238576250845 120.0 495.0 L 120 480 L 120 460 L 120 440 L 120 420 L 120.0 405.0 C 120.0 402.761423749155 117.238576250845 400.0 115.0 400.0 L 100 400" fill="none" stroke="#1abc9c" stroke-width="3" /><path d="M 100.0 394.0 L 90.0 400.0 L 100.0 406.0" fill="#1abc9c" /><circle cx="180" cy="520" fill="#1abc9c" r="5" /></g><g><path d="M 200 80 L 200 80 L 200 100 L 200.0 115.0 C 200.0 117.238576250845 197.238576250845 120.0 195.0 120.0 L 180 120 L 160 120 L 140 120 L 125.0 120.0 C 122.761423749155 120.0 120.0 122.761423749155 120.0 125.0 L 120 140 L 120 160 L 120.0 175.0 C 120.0 177.238576250845 117.238576250845 180.0 115.0 180.0 L 100 180 L 80 180" fill="none" stroke="#111111" stroke-width="9" /><path d="M 200 80 L 200 80 L 200 100 L 200.0 115.0 C 200.0 117.238576250845 197.238576250845 120.0 195.0 120.0 L 180 120 L 160 120 L 140 120 L 125.0 120.0 C 122.761423749155 120.0 120.0 122.761423749155 120.0 125.0 L 120 140 L 120 160 L 120.0 175.0 C 120.0 177.238576250845 117.238576250845 180.0 115.0 180.0 L 100 180 L 80 180" fill="none" stroke="#1abc9c" stroke-width="3" /><path d="M 80.0 174.0 L 70.0 180.0 L 80.0 186.0" fill="#1abc9c" /><circle cx="200" cy="80" fill="#1abc9c" r="5" /></g><g><path d="M 260 380 L 260 380 L 240 380 L 225.0 380.0 C 222.761423749155 380.0 220.0 377.238576250845 220.0 375.0 L 220 360 L 220.0 345.0 C 220.0 342.761423749155 217.238576250845 340.0 215.0 340.0 L 205.0 340.0 C 202.761423749155 340.0 200.0 337.238576250845 200.0 335.0 L 200 320 L 200.0 305.0 C 200.0 302.761423749155 197.238576250845 300.0 195.0 300.0 L 180 300" fill="none" stroke="#111111" stroke-width="9" /><path d="M 260 380 L 260 380 L 240 380 L 225.0 380.0 C 222.761423749155 380.0 220.0 377.238576250845 220.0 375.0 L 220 360 L 220.0 345.0 C 220.0 342.761423749155 217.238576250845 340.0 215.0 340.0 L 205.0 340.0 C 202.761423749155 340.0 200.0 337.238576250845 200.0 335.0 L 200 320 L 200.0 305.0 C 200.0 302.761423749155 197.238576250845 300.0 195.0 300.0 L 180 300" fill="none" stroke="#27ae60" stroke-width="3" /><path d="M 180.0 294.0 L 170.0 300.0 L 180.0 306.0" fill="#27ae60" /><circle cx="260" cy="380" fill="#27ae60" r="5" /></g><g><path d="M 520 480 L 520 480 L 505.0 480.0 C 502.761423749155 480.0 500.0 482.761423749155 500.0 485.0 L 500.0 495.0 C 500.0 497.238576250845 497.238576250845 500.0 495.0 500.0 L 480 500 L 460 500 L 440 500 L 425.0 500.0 C 422.761423749155 500.0 420.0 497.238576250845 420.0 495.0 L 420 480 L 420 460 L 420 440 L 420 420 L 420 400" fill="none" stroke="#111111" stroke-width="9" /><path d="M 520 480 L 520 480 L 505.0 480.0 C 502.761423749155 480.0 500.0 482.761423749155 500.0 485.0 L 500.0 495.0 C 500.0 497.238576250845 497.238576250845 500.0 495.0 500.0 L 480 500 L 460 500 L 440 500 L 425.0 500.0 C 422.761423749155 500.0 420.0 497.238576250845 420.0 495.0 L 420 480 L 420 460 L 420 440 L 420 420 L 420 400" fill="none" stroke="#8e44ad" stroke-width="3" /><path d="M 414.0 400.0 L 420.0 390.0 L 426.0 400.0" fill="#8e44ad" /><circle cx="520" cy="480" fill="#8e44ad" r="5" /></g><g><path d="M 520 200 L 520 200 L 520.0 215.0 C 520.0 217.238576250845 522.761423749155 220.0 525.0 220.0 L 535.0 220.0 C 537.238576250845 220.0 540.0 222.761423749155 540.0 225.0 L 540 240 L 540 260 L 540 280" fill="none" stroke="#111111" stroke-width="9" /><path d="M 520 200 L 520 200 L 520.0 215.0 C 520.0 217.238576250845 522.761423749155 220.0 525.0 220.0 L 535.0 220.0 C 537.238576250845 220.0 540.0 222.761423749155 540.0 225.0 L 540 240 L 540 260 L 540 280" fill="none" stroke="#F06292" stroke-width="3" /><path d="M 546.0 280.0 L 540.0 290.0 L 534.0 280.0" fill="#F06292" /><circle cx="520" cy="200" fill="#F06292" r="5" /></g><g><path d="M 360 540 L 360 540 L 360.0 525.0 C 360.0 522.761423749155 357.238576250845 520.0 355.0 520.0 L 345.0 520.0 C 342.761423749155 520.0 340.0 517.238576250845 340.0 515.0 L 340 500 L 340 480 L 340 460 L 340 440 L 340 420 L 340 400" fill="none" stroke="#111111" stroke-width="9" /><path d="M 360 540 L 360 540 L 360.0 525.0 C 360.0 522.761423749155 357.238576250845 520.0 355.0 520.0 L 345.0 520.0 C 342.761423749155 520.0 340.0 517.238576250845 340.0 515.0 L 340 500 L 340 480 L 340 460 L 340 440 L 340 420 L 340 400" fill="none" stroke="#f39c12" stroke-width="3" /><path d="M 334.0 400.0 L 340.0 390.0 L 346.0 400.0" fill="#f39c12" /><circle cx="360" cy="540" fill="#f39c12" r="5" /></g><g><path d="M 560 420 L 560 420 L 545.0 420.0 C 542.761423749155 420.0 540.0 417.238576250845 540.0 415.0 L 540.0 405.0 C 540.0 402.761423749155 537.238576250845 400.0 535.0 400.0 L 520 400 L 505.0 400.0 C 502.761423749155 400.0 500.0 397.238576250845 500.0 395.0 L 500.0 385.0 C 500.0 382.761423749155 497.238576250845 380.0 495.0 380.0 L 480 380 L 460 380 L 440 380" fill="none" stroke="#111111" stroke-width="9" /><path d="M 560 420 L 560 420 L 545.0 420.0 C 542.761423749155 420.0 540.0 417.238576250845 540.0 415.0 L 540.0 405.0 C 540.0 402.761423749155 537.238576250845 400.0 535.0 400.0 L 520 400 L 505.0 400.0 C 502.761423749155 400.0 500.0 397.238576250845 500.0 395.0 L 500.0 385.0 C 500.0 382.761423749155 497.238576250845 380.0 495.0 380.0 L 480 380 L 460 380 L 440 380" fill="none" stroke="#3498db" stroke-width="3" /><path d="M 440.0 374.0 L 430.0 380.0 L 440.0 386.0" fill="#3498db" /><circle cx="560" cy="420" fill="#3498db" r="5" /></g><g><path d="M 400 460 L 400 460 L 385.0 460.0 C 382.761423749155 460.0 380.0 457.238576250845 380.0 455.0 L 380 440 L 380 420 L 380 400" fill="none" stroke="#111111" stroke-width="9" /><path d="M 400 460 L 400 460 L 385.0 460.0 C 382.761423749155 460.0 380.0 457.238576250845 380.0 455.0 L 380 440 L 380 420 L 380 400" fill="none" stroke="#e67e22" stroke-width="3" /><path d="M 374.0 400.0 L 380.0 390.0 L 386.0 400.0" fill="#e67e22" /><circle cx="400" cy="460" fill="#e67e22" r="5" /></g><g><path d="M 240 260 L 240 260 L 240.0 275.0 C 240.0 277.238576250845 237.238576250845 280.0 235.0 280.0 L 220 280 L 200 280 L 180 280 L 165.0 280.0 C 162.761423749155 280.0 160.0 282.761423749155 160.0 285.0 L 160.0 295.0 C 160.0 297.238576250845 157.238576250845 300.0 155.0 300.0 L 140 300 L 120 300" fill="none" stroke="#111111" stroke-width="9" /><path d="M 240 260 L 240 260 L 240.0 275.0 C 240.0 277.238576250845 237.238576250845 280.0 235.0 280.0 L 220 280 L 200 280 L 180 280 L 165.0 280.0 C 162.761423749155 280.0 160.0 282.761423749155 160.0 285.0 L 160.0 295.0 C 160.0 297.238576250845 157.238576250845 300.0 155.0 300.0 L 140 300 L 120 300" fill="none" stroke="#27ae60" stroke-width="3" /><path d="M 120.0 294.0 L 110.0 300.0 L 120.0 306.0" fill="#27ae60" /><circle cx="240" cy="260" fill="#27ae60" r="5" /></g><g><path d="M 420 220 L 420 220 L 420 200 L 420 180 L 420 160" fill="none" stroke="#111111" stroke-width="9" /><path d="M 420 220 L 420 220 L 420 200 L 420 180 L 420 160" fill="none" stroke="#2980b9" stroke-width="3" /><path d="M 414.0 160.0 L 420.0 150.0 L 426.0 160.0" fill="#2980b9" /><circle cx="420" cy="220" fill="#2980b9" r="5" /></g><g><path d="M 100 320 L 100 320 L 115.0 320.0 C 117.238576250845 320.0 120.0 322.761423749155 120.0 325.0 L 120 340 L 120 360 L 120.0 375.0 C 120.0 377.238576250845 122.761423749155 380.0 125.0 380.0 L 140 380 L 160 380 L 180 380" fill="none" stroke="#111111" stroke-width="9" /><path d="M 100 320 L 100 320 L 115.0 320.0 C 117.238576250845 320.0 120.0 322.761423749155 120.0 325.0 L 120 340 L 120 360 L 120.0 375.0 C 120.0 377.238576250845 122.761423749155 380.0 125.0 380.0 L 140 380 L 160 380 L 180 380" fill="none" stroke="#f39c12" stroke-width="3" /><path d="M 180.0 386.0 L 190.0 380.0 L 180.0 374.0" fill="#f39c12" /><circle cx="100" cy="320" fill="#f39c12" r="5" /></g><g><path d="M 320 560 L 320 560 L 340 560 L 360 560 L 380 560 L 395.0 560.0 C 397.238576250845 560.0 400.0 557.238576250845 400.0 555.0 L 400 540 L 400 520 L 400 500 L 400.0 485.0 C 400.0 482.761423749155 397.238576250845 480.0 395.0 480.0 L 380 480 L 360 480" fill="none" stroke="#111111" stroke-width="9" /><path d="M 320 560 L 320 560 L 340 560 L 360 560 L 380 560 L 395.0 560.0 C 397.238576250845 560.0 400.0 557.238576250845 400.0 555.0 L 400 540 L 400 520 L 400 500 L 400.0 485.0 C 400.0 482.761423749155 397.238576250845 480.0 395.0 480.0 L 380 480 L 360 480" fill="none" stroke="#c0392b" stroke-width="3" /><path d="M 360.0 474.0 L 350.0 480.0 L 360.0 486.0" fill="#c0392b" /><circle cx="320" cy="560" fill="#c0392b" r="5" /></g><g><path d="M 440 240 L 440 240 L 440 220 L 440 200 L 440.0 185.0 C 440.0 182.761423749155 442.761423749155 180.0 445.0 180.0 L 460 180 L 480 180 L 500 180 L 520 180 L 540 180 L 555.0 180.0 C 557.238576250845 180.0 560.0 182.761423749155 560.0 185.0 L 560 200" fill="none" stroke="#111111" stroke-width="9" /><path d="M 440 240 L 440 240 L 440 220 L 440 200 L 440.0 185.0 C 440.0 182.761423749155 442.761423749155 180.0 445.0 180.0 L 460 180 L 480 180 L 500 180 L 520 180 L 540 180 L 555.0 180.0 C 557.238576250845 180.0 560.0 182.761423749155 560.0 185.0 L 560 200" fill="none" stroke="#f39c12" stroke-width="3" /><path d="M 566.0 200.0 L 560.0 210.0 L 554.0 200.0" fill="#f39c12" /><circle cx="440" cy="240" fill="#f39c12" r="5" /></g><g><path d="M 140 340 L 140 340 L 120 340 L 105.0 340.0 C 102.761423749155 340.0 100.0 342.761423749155 100.0 345.0 L 100.0 355.0 C 100.0 357.238576250845 97.238576250845 360.0 95.0 360.0 L 80 360 L 65.0 360.0 C 62.761423749155 360.0 60.0 362.761423749155 60.0 365.0 L 60 380" fill="none" stroke="#111111" stroke-width="9" /><path d="M 140 340 L 140 340 L 120 340 L 105.0 340.0 C 102.761423749155 340.0 100.0 342.761423749155 100.0 345.0 L 100.0 355.0 C 100.0 357.238576250845 97.238576250845 360.0 95.0 360.0 L 80 360 L 65.0 360.0 C 62.761423749155 360.0 60.0 362.761423749155 60.0 365.0 L 60 380" fill="none" stroke="#8e44ad" stroke-width="3" /><path d="M 66.0 380.0 L 60.0 390.0 L 54.0 380.0" fill="#8e44ad" /><circle cx="140" cy="340" fill="#8e44ad" r="5" /></g><g><path d="M 300 340 L 300 340 L 300 360 L 300.0 375.0 C 300.0 377.238576250845 297.238576250845 380.0 295.0 380.0 L 285.0 380.0 C 282.761423749155 380.0 280.0 382.761423749155 280.0 385.0 L 280.0 395.0 C 280.0 397.238576250845 277.238576250845 400.0 275.0 400.0 L 260 400 L 240 400 L 220 400 L 200 400" fill="none" stroke="#111111" stroke-width="9" /><path d="M 300 340 L 300 340 L 300 360 L 300.0 375.0 C 300.0 377.238576250845 297.238576250845 380.0 295.0 380.0 L 285.0 380.0 C 282.761423749155 380.0 280.0 382.761423749155 280.0 385.0 L 280.0 395.0 C 280.0 397.238576250845 277.238576250845 400.0 275.0 400.0 L 260 400 L 240 400 L 220 400 L 200 400" fill="none" stroke="#3498db" stroke-width="3" /><path d="M 200.0 394.0 L 190.0 400.0 L 200.0 406.0" fill="#3498db" /><circle cx="300" cy="340" fill="#3498db" r="5" /></g><g><path d="M 400 100 L 400 100 L 380 100 L 360 100 L 340 100 L 320 100" fill="none" stroke="#111111" stroke-width="9" /><path d="M 400 100 L 400 100 L 380 100 L 360 100 L 340 100 L 320 100" fill="none" stroke="#2980b9" stroke-width="3" /><path d="M 320.0 94.0 L 310.0 100.0 L 320.0 106.0" fill="#2980b9" /><circle cx="400" cy="100" fill="#2980b9" r="5" /></g><g><path d="M 520 300 L 520 300 L 500 300 L 485.0 300.0 C 482.761423749155 300.0 480.0 302.761423749155 480.0 305.0 L 480 320 L 480 340 L 480 360 L 480 380 L 480.0 395.0 C 480.0 397.238576250845 477.238576250845 400.0 475.0 400.0 L 460 400" fill="none" stroke="#111111" stroke-width="9" /><path d="M 520 300 L 520 300 L 500 300 L 485.0 300.0 C 482.761423749155 300.0 480.0 302.761423749155 480.0 305.0 L 480 320 L 480 340 L 480 360 L 480 380 L 480.0 395.0 C 480.0 397.238576250845 477.238576250845 400.0 475.0 400.0 L 460 400" fill="none" stroke="#f39c12" stroke-width="3" /><path d="M 460.0 394.0 L 450.0 400.0 L 460.0 406.0" fill="#f39c12" /><circle cx="520" cy="300" fill="#f39c12" r="5" /></g></svg>