<?xml version="1.0" encoding="utf-8" ?>
<svg baseProfile="full" height="100%" version="1.1" width="100%" xmlns="http://www.w3.org/2000/svg" xmlns:ev="http://www.w3.org/2001/xml-events" xmlns:xlink="http://www.w3.org/1999/xlink"><defs /><rect fill="#111111" height="100%" width="100%" x="0" y="0" /><g><path d="M 540 160 L 540 160 L 520 160 L 505.0 160.0 C 502.761423749155 160.0 500.0 162.761423749155 500.0 165.0 L 500 180 L 500.0 195.0 C 500.0 197.238576250845 497.238576250845 200.0 495.0 200.0 L 480 200 L 465.0 200.0 C 462.761423749155 200.0 460.0 202.761423749155 460.0 205.0 L 460 220 L 460.0 235.0 C 460.0 237.238576250845 457.238576250845 240.0 455.0 240.0 L 445.0 240.0 C 442.761423749155 240.0 440.0 242.761423749155 440.0 245.0 L 440.0 255.0 C 440.0 257.238576250845 437.238576250845 260.0 435.0 260.0 L 420 260 L 400 260 L 385.0 260.0 C 382.761423749155 260.0 380.0 262.761423749155 380.0 265.0 L 380 280 L 380.0 295.0 C 380.0 297.238576250845 377.238576250845 300.0 375.0 300.0 L 365.0 300.0 C 362.761423749155 300.0 360.0 302.761423749155 360.0 305.0 L 360 320 L 360.0 335.0 C 360.0 337.238576250845 357.238576250845 340.0 355.0 340.0 L 340 340 L 325.0 340.0 C 322.761423749155 340.0 320.0 342.761423749155 320.0 345.0 L 320.0 355.0 C 320.0 357.238576250845 317.238576250845 360.0 315.0 360.0 L 300 360 L 280 360 L 260 360 L 240 360 L 220 360" fill="none" stroke="#111111" stroke-width="9" /><path d="M 540 160 L 540 160 L 520 160 L 505.0 160.0 C 502.761423749155 160.0 500.0 162.761423749155 500.0 165.0 L 500 180 L 500.0 195.0 C 500.0 197.238576250845 497.238576250845 200.0 495.0 200.0 L 480 200 L 465.0 200.0 C 462.761423749155 200.0 460.0 202.761423749155 460.0 205.0 L 460 220 L 460.0 235.0 C 460.0 237.238576250845 457.238576250845 240.0 455.0 240.0 L 445.0 240.0 C 442.761423749155 240.0 440.0 242.761423749155 440.0 245.0 L 440.0 255.0 C 440.0 257.238576250845 437.238576250845 260.0 435.0 260.0 L 420 260 L 400 260 L 385.0 260.0 C 382.761423749155 260.0 380.0 262.761423749155 380.0 265.0 L 380 280 L 380.0 295.0 C 380.0 297.238576250845 377.238576250845 300.0 375.0 300.0 L 365.0 300.0 C 362.761423749155 300.0 360.0 302.761423749155 360.0 305.0 L 360 320 L 360.0 335.0 C 360.0 337.238576250845 357.238576250845 340.0 355.0 340.0 L 340 340 L 325.0 340.0 C 322.761423749155 340.0 320.0 342.761423749155 320.0 345.0 L 320.0 355.0 C 320.0 357.238576250845 317.238576250845 360.0 315.0 360.0 L 300 360 L 280 360 L 260 360 L 240 360 L 220 360" fill="none" stroke="#2ecc71" stroke-width="3" /><path d="M 220.0 354.0 L 210.0 360.0 L 220.0 366.0" fill="#2ecc71" /><circle cx="540" cy="160" fill="#2ecc71" r="5" /></g><g><path d="M 180 260 L 180 260 L 195.0 260.0 C 197.238576250845 260.0 200.0 257.238576250845 200.0 255.0 L 200.0 245.0 C 200.0 242.761423749155 202.761423749155 240.0 205.0 240.0 L 220 240 L 240 240 L 260 240 L 280 240 L 300 240 L 320 240" fill="none" stroke="#111111" stroke-width="9" /><path d="M 180 260 L 180 260 L 195.0 260.0 C 197.238576250845 260.0 200.0 257.238576250845 200.0 255.0 L 200.0 245.0 C 200.0 242.761423749155 202.761423749155 240.0 205.0 240.0 L 220 240 L 240 240 L 260 240 L 280 240 L 300 240 L 320 240" fill="none" stroke="#e67e22" stroke-width="3" /><path d="M 320.0 246.0 L 330.0 240.0 L 320.0 234.0" fill="#e67e22" /><circle cx="180" cy="260" fill="#e67e22" r="5" /></g><g><path d="M 180 540 L 180 540 L 180.0 525.0 C 180.0 522.761423749155 182.761423749155 520.0 185.0 520.0 L 200 520 L 215.0 520.0 C 217.238576250845 520.0 220.0 517.238576250845 220.0 515.0 L 220.0 505.0 C 220.0 502.761423749155 222.761423749155 500.0 225.0 500.0 L 240 500 L 260 500 L 280 500 L 295.0 500.0 C 297.238576250845 500.0 300.0 497.238576250845 300.0 495.0 L 300 480 L 300 460 L 300 440 L 300.0 425.0 C 300.0 422.761423749155 302.761423749155 420.0 305.0 420.0 L 320 420 L 340 420 L 360 420 L 375.0 420.0 C 377.238576250845 420.0 380.0 417.238576250845 380.0 415.0 L 380 400 L 380.0 385.0 C 380.0 382.761423749155 382.761423749155 380.0 385.0 380.0 L 400 380 L 420 380 L 435.0 380.0 C 437.238576250845 380.0 440.0 377.238576250845 440.0 375.0 L 440 360 L 440 340 L 440 320 L 440 300 L 440.0 285.0 C 440.0 282.761423749155 442.761423749155 280.0 445.0 280.0 L 455.0 280.0 C 457.238576250845 280.0 460.0 277.238576250845 460.0 275.0 L 460.0 265.0 C 460.0 262.761423749155 462.761423749155 260.0 465.0 260.0 L 475.0 260.0 C 477.238576250845 260.0 480.0 257.238576250845 480.0 255.0 L 480 240 L 480 220 L 480 200 L 480 180 L 480 160 L 480 140 L 480.0 125.0 C 480.0 122.761423749155 477.238576250845 120.0 475.0 120.0 L 460 120 L 440 120" fill="none" stroke="#111111" stroke-width="9" /><path d="M 180 540 L 180 540 L 180.0 525.0 C 180.0 522.761423749155 182.761423749155 520.0 185.0 520.0 L 200 520 L 215.0 520.0 C 217.238576250845 520.0 220.0 517.238576250845 220.0 515.0 L 220.0 505.0 C 220.0 502.761423749155 222.761423749155 500.0 225.0 500.0 L 240 500 L 260 500 L 280 500 L 295.0 500.0 C 297.238576250845 500.0 300.0 497.238576250845 300.0 495.0 L 300 480 L 300 460 L 300 440 L 300.0 425.0 C 300.0 422.761423749155 302.761423749155 420.0 305.0 420.0 L 320 420 L 340 420 L 360 420 L 375.0 420.0 C 377.238576250845 420.0 380.0 417.238576250845 380.0 415.0 L 380 400 L 380.0 385.0 C 380.0 382.761423749155 382.761423749155 380.0 385.0 380.0 L 400 380 L 420 380 L 435.0 380.0 C 437.238576250845 380.0 440.0 377.238576250845 440.0 375.0 L 440 360 L 440 340 L 440 320 L 440 300 L 440.0 285.0 C 440.0 282.761423749155 442.761423749155 280.0 445.0 280.0 L 455.0 280.0 C 457.238576250845 280.0 460.0 277.238576250845 460.0 275.0 L 460.0 265.0 C 460.0 262.761423749155 462.761423749155 260.0 465.0 260.0 L 475.0 260.0 C 477.238576250845 260.0 480.0 257.238576250845 480.0 255.0 L 480 240 L 480 220 L 480 200 L 480 180 L 480 160 L 480 140 L 480.0 125.0 C 480.0 122.761423749155 477.238576250845 120.0 475.0 120.0 L 460 120 L 440 120" fill="none" stroke="#9b59b6" stroke-width="3" /><path d="M 440.0 114.0 L 430.0 120.0 L 440.0 126.0" fill="#9b59b6" /><circle cx="180" cy="540" fill="#9b59b6" r="5" /></g><g><path d="M 340 680 L 340 680 L 320 680 L 305.0 680.0 C 302.761423749155 680.0 300.0 677.238576250845 300.0 675.0 L 300 660 L 300.0 645.0 C 300.0 642.761423749155 297.238576250845 640.0 295.0 640.0 L 280 640 L 265.0 640.0 C 262.761423749155 640.0 260.0 637.238576250845 260.0 635.0 L 260 620 L 260.0 605.0 C 260.0 602.761423749155 257.238576250845 600.0 255.0 600.0 L 245.0 600.0 C 242.761423749155 600.0 240.0 597.238576250845 240.0 595.0 L 240 580 L 240 560 L 240 540 L 240 520 L 240 500 L 240 480 L 240 460 L 240 440 L 240 420 L 240 400 L 240 380 L 240 360 L 240 340" fill="none" stroke="#111111" stroke-width="9" /><path d="M 340 680 L 340 680 L 320 680 L 305.0 680.0 C 302.761423749155 680.0 300.0 677.238576250845 300.0 675.0 L 300 660 L 300.0 645.0 C 300.0 642.761423749155 297.238576250845 640.0 295.0 640.0 L 280 640 L 265.0 640.0 C 262.761423749155 640.0 260.0 637.238576250845 260.0 635.0 L 260 620 L 260.0 605.0 C 260.0 602.761423749155 257.238576250845 600.0 255.0 600.0 L 245.0 600.0 C 242.761423749155 600.0 240.0 597.238576250845 240.0 595.0 L 240 580 L 240 560 L 240 540 L 240 520 L 240 500 L 240 480 L 240 460 L 240 440 L 240 420 L 240 400 L 240 380 L 240 360 L 240 340" fill="none" stroke="#e74c3c" stroke-width="3" /><path d="M 234.0 340.0 L 240.0 330.0 L 246.0 340.0" fill="#e74c3c" /><circle cx="340" cy="680" fill="#e74c3c" r="5" /></g><g><path d="M 500 500 L 500 500 L 500.0 485.0 C 500.0 482.761423749155 497.238576250845 480.0 495.0 480.0 L 485.0 480.0 C 482.761423749155 480.0 480.0 477.238576250845 480.0 475.0 L 480.0 465.0 C 480.0 462.761423749155 477.238576250845 460.0 475.0 460.0 L 460 460 L 445.0 460.0 C 442.761423749155 460.0 440.0 457.238576250845 440.0 455.0 L 440.0 445.0 C 440.0 442.761423749155 437.238576250845 440.0 435.0 440.0 L 425.0 440.0 C 422.761423749155 440.0 420.0 437.238576250845 420.0 435.0 L 420.0 425.0 C 420.0 422.761423749155 417.238576250845 420.0 415.0 420.0 L 405.0 420.0 C 402.761423749155 420.0 400.0 417.238576250845 400.0 415.0 L 400.0 405.0 C 400.0 402.761423749155 397.238576250845 400.0 395.0 400.0 L 380 400 L 365.0 400.0 C 362.761423749155 400.0 360.0 402.761423749155 360.0 405.0 L 360 420 L 360.0 435.0 C 360.0 437.238576250845 357.238576250845 440.0 355.0 440.0 L 340 440 L 325.0 440.0 C 322.761423749155 440.0 320.0 437.238576250845 320.0 435.0 L 320 420 L 320.0 405.0 C 320.0 402.761423749155 317.238576250845 400.0 315.0 400.0 L 300 400 L 285.0 400.0 C 282.761423749155 400.0 280.0 402.761423749155 280.0 405.0 L 280.0 415.0 C 280.0 417.238576250845 277.238576250845 420.0 275.0 420.0 L 260 420 L 240 420 L 220 420 L 200 420 L 180 420 L 160 420" fill="none" stroke="#111111" stroke-width="9" /><path d="M 500 500 L 500 500 L 500.0 485.0 C 500.0 482.761423749155 497.238576250845 480.0 495.0 480.0 L 485.0 480.0 C 482.761423749155 480.0 480.0 477.238576250845 480.0 475.0 L 480.0 465.0 C 480.0 462.761423749155 477.238576250845 460.0 475.0 460.0 L 460 460 L 445.0 460.0 C 442.761423749155 460.0 440.0 457.238576250845 440.0 455.0 L 440.0 445.0 C 440.0 442.761423749155 437.238576250845 440.0 435.0 440.0 L 425.0 440.0 C 422.761423749155 440.0 420.0 437.238576250845 420.0 435.0 L 420.0 425.0 C 420.0 422.761423749155 417.238576250845 420.0 415.0 420.0 L 405.0 420.0 C 402.761423749155 420.0 400.0 417.238576250845 400.0 415.0 L 400.0 405.0 C 400.0 402.761423749155 397.238576250845 400.0 395.0 400.0 L 380 400 L 365.0 400.0 C 362.761423749155 400.0 360.0 402.761423749155 360.0 405.0 L 360 420 L 360.0 435.0 C 360.0 437.238576250845 357.238576250845 440.0 355.0 440.0 L 340 440 L 325.0 440.0 C 322.761423749155 440.0 320.0 437.238576250845 320.0 435.0 L 320 420 L 320.0 405.0 C 320.0 402.761423749155 317.238576250845 400.0 315.0 400.0 L 300 400 L 285.0 400.0 C 282.761423749155 400.0 280.0 402.761423749155 280.0 405.0 L 280.0 415.0 C 280.0 417.238576250845 277.238576250845 420.0 275.0 420.0 L 260 420 L 240 420 L 220 420 L 200 420 L 180 420 L 160 420" fill="none" stroke="#9b59b6" stroke-width="3" /><path d="M 160.0 414.0 L 150.0 420.0 L 160.0 426.0" fill="#9b59b6" /><circle cx="500" cy="500" fill="#9b59b6" r="5" /></g><g><path d="M 540 400 L 540 400 L 560 400 L 575.0 400.0 C 577.238576250845 400.0 580.0 402.761423749155 580.0 405.0 L 580.0 415.0 C 580.0 417.238576250845 582.761423749155 420.0 585.0 420.0 L 600 420 L 615.0 420.0 C 617.238576250845 420.0 620.0 422.761423749155 620.0 425.0 L 620 440 L 620 460 L 620 480 L 620 500 L 620 520 L 620 540 L 620 560" fill="none" stroke="#111111" stroke-width="9" /><path d="M 540 400 L 540 400 L 560 400 L 575.0 400.0 C 577.238576250845 400.0 580.0 402.761423749155 580.0 405.0 L 580.0 415.0 C 580.0 417.238576250845 582.761423749155 420.0 585.0 420.0 L 600 420 L 615.0 420.0 C 617.238576250845 420.0 620.0 422.761423749155 620.0 425.0 L 620 440 L 620 460 L 620 480 L 620 500 L 620 520 L 620 540 L 620 560" fill="none" stroke="#3498db" stroke-width="3" /><path d="M 626.0 560.0 L 620.0 570.0 L 614.0 560.0" fill="#3498db" /><circle cx="540" cy="400" fill="#3498db" r="5" /></g><g><path d="M 700 240 L 700 240 L 700.0 225.0 C 700.0 222.761423749155 697.238576250845 220.0 695.0 220.0 L 680 220 L 660 220 L 640 220 L 625.0 220.0 C 622.761423749155 220.0 620.0 217.238576250845 620.0 215.0 L 620 200 L 620.0 185.0 C 620.0 182.761423749155 617.238576250845 180.0 615.0 180.0 L 600 180 L 580 180 L 565.0 180.0 C 562.761423749155 180.0 560.0 177.238576250845 560.0 175.0 L 560 160 L 560.0 145.0 C 560.0 142.761423749155 557.238576250845 140.0 555.0 140.0 L 545.0 140.0 C 542.761423749155 140.0 540.0 137.238576250845 540.0 135.0 L 540.0 125.0 C 540.0 122.761423749155 537.238576250845 120.0 535.0 120.0 L 520 120 L 505.0 120.0 C 502.761423749155 120.0 500.0 117.238576250845 500.0 115.0 L 500.0 105.0 C 500.0 102.761423749155 497.238576250845 100.0 495.0 100.0 L 480 100 L 460 100 L 440 100 L 425.0 100.0 C 422.761423749155 100.0 420.0 97.238576250845 420.0 95.0 L 420.0 85.0 C 420.0 82.761423749155 417.238576250845 80.0 415.0 80.0 L 405.0 80.0 C 402.761423749155 80.0 400.0 77.238576250845 400.0 75.0 L 400.0 65.0 C 400.0 62.761423749155 397.238576250845 60.0 395.0 60.0 L 380 60" fill="none" stroke="#111111" stroke-width="9" /><path d="M 700 240 L 700 240 L 700.0 225.0 C 700.0 222.761423749155 697.238576250845 220.0 695.0 220.0 L 680 220 L 660 220 L 640 220 L 625.0 220.0 C 622.761423749155 220.0 620.0 217.238576250845 620.0 215.0 L 620 200 L 620.0 185.0 C 620.0 182.761423749155 617.238576250845 180.0 615.0 180.0 L 600 180 L 580 180 L 565.0 180.0 C 562.761423749155 180.0 560.0 177.238576250845 560.0 175.0 L 560 160 L 560.0 145.0 C 560.0 142.761423749155 557.238576250845 140.0 555.0 140.0 L 545.0 140.0 C 542.761423749155 140.0 540.0 137.238576250845 540.0 135.0 L 540.0 125.0 C 540.0 122.761423749155 537.238576250845 120.0 535.0 120.0 L 520 120 L 505.0 120.0 C 502.761423749155 120.0 500.0 117.238576250845 500.0 115.0 L 500.0 105.0 C 500.0 102.761423749155 497.238576250845 100.0 495.0 100.0 L 480 100 L 460 100 L 440 100 L 425.0 100.0 C 422.761423749155 100.0 420.0 97.238576250845 420.0 95.0 L 420.0 85.0 C 420.0 82.761423749155 417.238576250845 80.0 415.0 80.0 L 405.0 80.0 C 402.761423749155 80.0 400.0 77.238576250845 400.0 75.0 L 400.0 65.0 C 400.0 62.761423749155 397.238576250845 60.0 395.0 60.0 L 380 60" fill="none" stroke="#1abc9c" stroke-width="3" /><path d="M 380.0 54.0 L 370.0 60.0 L 380.0 66.0" fill="#1abc9c" /><circle cx="700" cy="240" fill="#1abc9c" r="5" /></g><g><path d="M 520 380 L 520 380 L 520 360 L 520 340 L 520 320 L 520 300" fill="none" stroke="#111111" stroke-width="9" /><path d="M 520 380 L 520 380 L 520 360 L 520 340 L 520 320 L 520 300" fill="none" stroke="#e67e22" stroke-width="3" /><path d="M 514.0 300.0 L 520.0 290.0 L 526.0 300.0" fill="#e67e22" /><circle cx="520" cy="380" fill="#e67e22" r="5" /></g><g><path d="M 800 520 L 800 520 L 800.0 505.0 C 800.0 502.761423749155 797.238576250845 500.0 795.0 500.0 L 785.0 500.0 C 782.761423749155 500.0 780.0 497.238576250845 780.0 495.0 L 780 480 L 780 460 L 780.0 445.0 C 780.0 442.761423749155 777.238576250845 440.0 775.0 440.0 L 760 440 L 740 440 L 720 440 L 700 440 L 680 440 L 660 440 L 640 440 L 620 440 L 600 440 L 580 440 L 560 440 L 540 440 L 520 440 L 500 440 L 480 440 L 465.0 440.0 C 462.761423749155 440.0 460.0 442.761423749155 460.0 445.0 L 460 460 L 460.0 475.0 C 460.0 477.238576250845 457.238576250845 480.0 455.0 480.0 L 440 480 L 425.0 480.0 C 422.761423749155 480.0 420.0 477.238576250845 420.0 475.0 L 420.0 465.0 C 420.0 462.761423749155 417.238576250845 460.0 415.0 460.0 L 400 460 L 380 460 L 360 460 L 340 460 L 320 460 L 300 460 L 285.0 460.0 C 282.761423749155 460.0 280.0 457.238576250845 280.0 455.0 L 280.0 445.0 C 280.0 442.761423749155 277.238576250845 440.0 275.0 440.0 L 260 440 L 240 440 L 220 440 L 200 440 L 180 440 L 160 440 L 140 440 L 120 440 L 100 440 L 80 440 L 60 440 L 40 440" fill="none" stroke="#111111" stroke-width="9" /><path d="M 800 520 L 800 520 L 800.0 505.0 C 800.0 502.761423749155 797.238576250845 500.0 795.0 500.0 L 785.0 500.0 C 782.761423749155 500.0 780.0 497.238576250845 780.0 495.0 L 780 480 L 780 460 L 780.0 445.0 C 780.0 442.761423749155 777.238576250845 440.0 775.0 440.0 L 760 440 L 740 440 L 720 440 L 700 440 L 680 440 L 660 440 L 640 440 L 620 440 L 600 440 L 580 440 L 560 440 L 540 440 L 520 440 L 500 440 L 480 440 L 465.0 440.0 C 462.761423749155 440.0 460.0 442.761423749155 460.0 445.0 L 460 460 L 460.0 475.0 C 460.0 477.238576250845 457.238576250845 480.0 455.0 480.0 L 440 480 L 425.0 480.0 C 422.761423749155 480.0 420.0 477.238576250845 420.0 475.0 L 420.0 465.0 C 420.0 462.761423749155 417.238576250845 460.0 415.0 460.0 L 400 460 L 380 460 L 360 460 L 340 460 L 320 460 L 300 460 L 285.0 460.0 C 282.761423749155 460.0 280.0 457.238576250845 280.0 455.0 L 280.0 445.0 C 280.0 442.761423749155 277.238576250845 440.0 275.0 440.0 L 260 440 L 240 440 L 220 440 L 200 440 L 180 440 L 160 440 L 140 440 L 120 440 L 100 440 L 80 440 L 60 440 L 40 440" fill="none" stroke="#9b59b6" stroke-width="3" /><path d="M 40.0 434.0 L 30.0 440.0 L 40.0 446.0" fill="#9b59b6" /><circle cx="800" cy="520" fill="#9b59b6" r="5" /></g><g><path d="M 760 480 L 760 480 L 760 500 L 760 520 L 760.0 535.0 C 760.0 537.238576250845 757.238576250845 540.0 755.0 540.0 L 740 540 L 725.0 540.0 C 722.761423749155 540.0 720.0 542.761423749155 720.0 545.0 L 720 560 L 720.0 575.0 C 720.0 577.238576250845 717.238576250845 580.0 715.0 580.0 L 700 580 L 680 580 L 665.0 580.0 C 662.761423749155 580.0 660.0 582.761423749155 660.0 585.0 L 660.0 595.0 C 660.0 597.238576250845 657.238576250845 600.0 655.0 600.0 L 640 600 L 625.0 600.0 C 622.761423749155 600.0 620.0 602.761423749155 620.0 605.0 L 620.0 615.0 C 620.0 617.238576250845 617.238576250845 620.0 615.0 620.0 L 600 620 L 580 620 L 560 620 L 540 620 L 520 620" fill="none" stroke="#111111" stroke-width="9" /><path d="M 760 480 L 760 480 L 760 500 L 760 520 L 760.0 535.0 C 760.0 537.238576250845 757.238576250845 540.0 755.0 540.0 L 740 540 L 725.0 540.0 C 722.761423749155 540.0 720.0 542.761423749155 720.0 545.0 L 720 560 L 720.0 575.0 C 720.0 577.238576250845 717.238576250845 580.0 715.0 580.0 L 700 580 L 680 580 L 665.0 580.0 C 662.761423749155 580.0 660.0 582.761423749155 660.0 585.0 L 660.0 595.0 C 660.0 597.238576250845 657.238576250845 600.0 655.0 600.0 L 640 600 L 625.0 600.0 C 622.761423749155 600.0 620.0 602.761423749155 620.0 605.0 L 620.0 615.0 C 620.0 617.238576250845 617.238576250845 620.0 615.0 620.0 L 600 620 L 580 620 L 560 620 L 540 620 L 520 620" fill="none" stroke="#2ecc71" stroke-width="3" /><path d="M 520.0 614.0 L 510.0 620.0 L 520.0 626.0" fill="#2ecc71" /><circle cx="760" cy="480" fill="#2ecc71" r="5" /></g><g><path d="M 260 540 L 260 540 L 280 540 L 300 540 L 320 540 L 335.0 540.0 C 337.238576250845 540.0 340.0 537.238576250845 340.0 535.0 L 340.0 525.0 C 340.0 522.761423749155 342.761423749155 520.0 345.0 520.0 L 360 520 L 375.0 520.0 C 377.238576250845 520.0 380.0 517.238576250845 380.0 515.0 L 380.0 505.0 C 380.0 502.761423749155 382.761423749155 500.0 385.0 500.0 L 400 500 L 420 500 L 440 500 L 460 500 L 475.0 500.0 C 477.238576250845 500.0 480.0 502.761423749155 480.0 505.0 L 480.0 515.0 C 480.0 517.238576250845 482.761423749155 520.0 485.0 520.0 L 500 520 L 520 520 L 535.0 520.0 C 537.238576250845 520.0 540.0 517.238576250845 540.0 515.0 L 540 500 L 540.0 485.0 C 540.0 482.761423749155 542.761423749155 480.0 545.0 480.0 L 560 480 L 580 480 L 600 480 L 620 480 L 640 480 L 660 480" fill="none" stroke="#111111" stroke-width="9" /><path d="M 260 540 L 260 540 L 280 540 L 300 540 L 320 540 L 335.0 540.0 C 337.238576250845 540.0 340.0 537.238576250845 340.0 535.0 L 340.0 525.0 C 340.0 522.761423749155 342.761423749155 520.0 345.0 520.0 L 360 520 L 375.0 520.0 C 377.238576250845 520.0 380.0 517.238576250845 380.0 515.0 L 380.0 505.0 C 380.0 502.761423749155 382.761423749155 500.0 385.0 500.0 L 400 500 L 420 500 L 440 500 L 460 500 L 475.0 500.0 C 477.238576250845 500.0 480.0 502.761423749155 480.0 505.0 L 480.0 515.0 C 480.0 517.238576250845 482.761423749155 520.0 485.0 520.0 L 500 520 L 520 520 L 535.0 520.0 C 537.238576250845 520.0 540.0 517.238576250845 540.0 515.0 L 540 500 L 540.0 485.0 C 540.0 482.761423749155 542.761423749155 480.0 545.0 480.0 L 560 480 L 580 480 L 600 480 L 620 480 L 640 480 L 660 480" fill="none" stroke="#f1c40f" stroke-width="3" /><path d="M 660.0 486.0 L 670.0 480.0 L 660.0 474.0" fill="#f1c40f" /><circle cx="260" cy="540" fill="#f1c40f" r="5" /></g><g><path d="M 500 540 L 500 540 L 480 540 L 465.0 540.0 C 462.761423749155 540.0 460.0 537.238576250845 460.0 535.0 L 460.0 525.0 C 460.0 522.761423749155 457.238576250845 520.0 455.0 520.0 L 440 520 L 420 520 L 405.0 520.0 C 402.761423749155 520.0 400.0 517.238576250845 400.0 515.0 L 400 500 L 400 480 L 400 460 L 400.0 445.0 C 400.0 442.761423749155 397.238576250845 440.0 395.0 440.0 L 385.0 440.0 C 382.761423749155 440.0 380.0 442.761423749155 380.0 445.0 L 380 460 L 380.0 475.0 C 380.0 477.238576250845 377.238576250845 480.0 375.0 480.0 L 360 480 L 340 480 L 320 480 L 300 480 L 280 480 L 265.0 480.0 C 262.761423749155 480.0 260.0 477.238576250845 260.0 475.0 L 260 460 L 260 440 L 260 420 L 260 400 L 260.0 385.0 C 260.0 382.761423749155 262.761423749155 380.0 265.0 380.0 L 280 380 L 295.0 380.0 C 297.238576250845 380.0 300.0 377.238576250845 300.0 375.0 L 300 360 L 300 340 L 300 320 L 300 300" fill="none" stroke="#111111" stroke-width="9" /><path d="M 500 540 L 500 540 L 480 540 L 465.0 540.0 C 462.761423749155 540.0 460.0 537.238576250845 460.0 535.0 L 460.0 525.0 C 460.0 522.761423749155 457.238576250845 520.0 455.0 520.0 L 440 520 L 420 520 L 405.0 520.0 C 402.761423749155 520.0 400.0 517.238576250845 400.0 515.0 L 400 500 L 400 480 L 400 460 L 400.0 445.0 C 400.0 442.761423749155 397.238576250845 440.0 395.0 440.0 L 385.0 440.0 C 382.761423749155 440.0 380.0 442.761423749155 380.0 445.0 L 380 460 L 380.0 475.0 C 380.0 477.238576250845 377.238576250845 480.0 375.0 480.0 L 360 480 L 340 480 L 320 480 L 300 480 L 280 480 L 265.0 480.0 C 262.761423749155 480.0 260.0 477.238576250845 260.0 475.0 L 260 460 L 260 440 L 260 420 L 260 400 L 260.0 385.0 C 260.0 382.761423749155 262.761423749155 380.0 265.0 380.0 L 280 380 L 295.0 380.0 C 297.238576250845 380.0 300.0 377.238576250845 300.0 375.0 L 300 360 L 300 340 L 300 320 L 300 300" fill="none" stroke="#f1c40f" stroke-width="3" /><path d="M 294.0 300.0 L 300.0 290.0 L 306.0 300.0" fill="#f1c40f" /><circle cx="500" cy="540" fill="#f1c40f" r="5" /></g><g><path d="M 320 180 L 320 180 L 320 200 L 320.0 215.0 C 320.0 217.238576250845 317.238576250845 220.0 315.0 220.0 L 300 220 L 280 220 L 260 220 L 245.0 220.0 C 242.761423749155 220.0 240.0 222.761423749155 240.0 225.0 L 240 240 L 240 260 L 240.0 275.0 C 240.0 277.238576250845 237.238576250845 280.0 235.0 280.0 L 225.0 280.0 C 222.761423749155 280.0 220.0 282.761423749155 220.0 285.0 L 220 300 L 220 320 L 220.0 335.0 C 220.0 337.238576250845 217.238576250845 340.0 215.0 340.0 L 205.0 340.0 C 202.761423749155 340.0 200.0 342.761423749155 200.0 345.0 L 200 360 L 200.0 375.0 C 200.0 377.238576250845 197.238576250845 380.0 195.0 380.0 L 185.0 380.0 C 182.761423749155 380.0 180.0 382.761423749155 180.0 385.0 L 180 400 L 180 420 L 180 440 L 180 460 L 180.0 475.0 C 180.0 477.238576250845 177.238576250845 480.0 175.0 480.0 L 165.0 480.0 C 162.761423749155 480.0 160.0 482.761423749155 160.0 485.0 L 160 500 L 160.0 515.0 C 160.0 517.238576250845 157.238576250845 520.0 155.0 520.0 L 140 520 L 125.0 520.0 C 122.761423749155 520.0 120.0 522.761423749155 120.0 525.0 L 120 540 L 120.0 555.0 C 120.0 557.238576250845 117.238576250845 560.0 115.0 560.0 L 100 560 L 85.0 560.0 C 82.761423749155 560.0 80.0 562.761423749155 80.0 565.0 L 80 580" fill="none" stroke="#111111" stroke-width="9" /><path d="M 320 180 L 320 180 L 320 200 L 320.0 215.0 C 320.0 217.238576250845 317.238576250845 220.0 315.0 220.0 L 300 220 L 280 220 L 260 220 L 245.0 220.0 C 242.761423749155 220.0 240.0 222.761423749155 240.0 225.0 L 240 240 L 240 260 L 240.0 275.0 C 240.0 277.238576250845 237.238576250845 280.0 235.0 280.0 L 225.0 280.0 C 222.761423749155 280.0 220.0 282.761423749155 220.0 285.0 L 220 300 L 220 320 L 220.0 335.0 C 220.0 337.238576250845 217.238576250845 340.0 215.0 340.0 L 205.0 340.0 C 202.761423749155 340.0 200.0 342.761423749155 200.0 345.0 L 200 360 L 200.0 375.0 C 200.0 377.238576250845 197.238576250845 380.0 195.0 380.0 L 185.0 380.0 C 182.761423749155 380.0 180.0 382.761423749155 180.0 385.0 L 180 400 L 180 420 L 180 440 L 180 460 L 180.0 475.0 C 180.0 477.238576250845 177.238576250845 480.0 175.0 480.0 L 165.0 480.0 C 162.761423749155 480.0 160.0 482.761423749155 160.0 485.0 L 160 500 L 160.0 515.0 C 160.0 517.238576250845 157.238576250845 520.0 155.0 520.0 L 140 520 L 125.0 520.0 C 122.761423749155 520.0 120.0 522.761423749155 120.0 525.0 L 120 540 L 120.0 555.0 C 120.0 557.238576250845 117.238576250845 560.0 115.0 560.0 L 100 560 L 85.0 560.0 C 82.761423749155 560.0 80.0 562.761423749155 80.0 565.0 L 80 580" fill="none" stroke="#3498db" stroke-width="3" /><path d="M 86.0 580.0 L 80.0 590.0 L 74.0 580.0" fill="#3498db" /><circle cx="320" cy="180" fill="#3498db" r="5" /></g><g><path d="M 260 300 L 260 300 L 260 320 L 260.0 335.0 C 260.0 337.238576250845 262.761423749155 340.0 265.0 340.0 L 275.0 340.0 C 277.238576250845 340.0 280.0 337.238576250845 280.0 335.0 L 280.0 325.0 C 280.0 322.761423749155 282.761423749155 320.0 285.0 320.0 L 300 320 L 320 320 L 335.0 320.0 C 337.238576250845 320.0 340.0 322.761423749155 340.0 325.0 L 340 340 L 340 360 L 340 380 L 340 400 L 340 420 L 340 440 L 340 460 L 340 480 L 340.0 495.0 C 340.0 497.238576250845 337.238576250845 500.0 335.0 500.0 L 325.0 500.0 C 322.761423749155 500.0 320.0 502.761423749155 320.0 505.0 L 320 520 L 320 540 L 320 560 L 320 580 L 320 600 L 320.0 615.0 C 320.0 617.238576250845 322.761423749155 620.0 325.0 620.0 L 335.0 620.0 C 337.238576250845 620.0 340.0 622.761423749155 340.0 625.0 L 340 640 L 340.0 655.0 C 340.0 657.238576250845 342.761423749155 660.0 345.0 660.0 L 355.0 660.0 C 357.238576250845 660.0 360.0 662.761423749155 360.0 665.0 L 360 680 L 360 700 L 360 720 L 360 740 L 360.0 755.0 C 360.0 757.238576250845 357.238576250845 760.0 355.0 760.0 L 345.0 760.0 C 342.761423749155 760.0 340.0 762.761423749155 340.0 765.0 L 340 780" fill="none" stroke="#111111" stroke-width="9" /><path d="M 260 300 L 260 300 L 260 320 L 260.0 335.0 C 260.0 337.238576250845 262.761423749155 340.0 265.0 340.0 L 275.0 340.0 C 277.238576250845 340.0 280.0 337.238576250845 280.0 335.0 L 280.0 325.0 C 280.0 322.761423749155 282.761423749155 320.0 285.0 320.0 L 300 320 L 320 320 L 335.0 320.0 C 337.238576250845 320.0 340.0 322.761423749155 340.0 325.0 L 340 340 L 340 360 L 340 380 L 340 400 L 340 420 L 340 440 L 340 460 L 340 480 L 340.0 495.0 C 340.0 497.238576250845 337.238576250845 500.0 335.0 500.0 L 325.0 500.0 C 322.761423749155 500.0 320.0 502.761423749155 320.0 505.0 L 320 520 L 320 540 L 320 560 L 320 580 L 320 600 L 320.0 615.0 C 320.0 617.238576250845 322.761423749155 620.0 325.0 620.0 L 335.0 620.0 C 337.238576250845 620.0 340.0 622.761423749155 340.0 625.0 L 340 640 L 340.0 655.0 C 340.0 657.238576250845 342.761423749155 660.0 345.0 660.0 L 355.0 660.0 C 357.238576250845 660.0 360.0 662.761423749155 360.0 665.0 L 360 680 L 360 700 L 360 720 L 360 740 L 360.0 755.0 C 360.0 757.238576250845 357.238576250845 760.0 355.0 760.0 L 345.0 760.0 C 342.761423749155 760.0 340.0 762.761423749155 340.0 765.0 L 340 780" fill="none" stroke="#e67e22" stroke-width="3" /><path d="M 346.0 780.0 L 340.0 790.0 L 334.0 780.0" fill="#e67e22" /><circle cx="260" cy="300" fill="#e67e22" r="5" /></g><g><path d="M 380 620 L 380 620 L 380 600 L 380.0 585.0 C 380.0 582.761423749155 377.238576250845 580.0 375.0 580.0 L 360 580 L 345.0 580.0 C 342.761423749155 580.0 340.0 577.238576250845 340.0 575.0 L 340.0 565.0 C 340.0 562.761423749155 337.238576250845 560.0 335.0 560.0 L 320 560 L 305.0 560.0 C 302.761423749155 560.0 300.0 557.238576250845 300.0 555.0 L 300 540 L 300.0 525.0 C 300.0 522.761423749155 297.238576250845 520.0 295.0 520.0 L 285.0 520.0 C 282.761423749155 520.0 280.0 522.761423749155 280.0 525.0 L 280 540 L 280.0 555.0 C 280.0 557.238576250845 277.238576250845 560.0 275.0 560.0 L 260 560 L 240 560 L 225.0 560.0 C 222.761423749155 560.0 220.0 557.238576250845 220.0 555.0 L 220.0 545.0 C 220.0 542.761423749155 217.238576250845 540.0 215.0 540.0 L 205.0 540.0 C 202.761423749155 540.0 200.0 537.238576250845 200.0 535.0 L 200 520 L 200 500 L 200 480 L 200 460 L 200 440 L 200 420 L 200.0 405.0 C 200.0 402.761423749155 197.238576250845 400.0 195.0 400.0 L 180 400 L 160 400 L 145.0 400.0 C 142.761423749155 400.0 140.0 402.761423749155 140.0 405.0 L 140.0 415.0 C 140.0 417.238576250845 137.238576250845 420.0 135.0 420.0 L 120 420 L 100 420" fill="none" stroke="#111111" stroke-width="9" /><path d="M 380 620 L 380 620 L 380 600 L 380.0 585.0 C 380.0 582.761423749155 377.238576250845 580.0 375.0 580.0 L 360 580 L 345.0 580.0 C 342.761423749155 580.0 340.0 577.238576250845 340.0 575.0 L 340.0 565.0 C 340.0 562.761423749155 337.238576250845 560.0 335.0 560.0 L 320 560 L 305.0 560.0 C 302.761423749155 560.0 300.0 557.238576250845 300.0 555.0 L 300 540 L 300.0 525.0 C 300.0 522.761423749155 297.238576250845 520.0 295.0 520.0 L 285.0 520.0 C 282.761423749155 520.0 280.0 522.761423749155 280.0 525.0 L 280 540 L 280.0 555.0 C 280.0 557.238576250845 277.238576250845 560.0 275.0 560.0 L 260 560 L 240 560 L 225.0 560.0 C 222.761423749155 560.0 220.0 557.238576250845 220.0 555.0 L 220.0 545.0 C 220.0 542.761423749155 217.238576250845 540.0 215.0 540.0 L 205.0 540.0 C 202.761423749155 540.0 200.0 537.238576250845 200.0 535.0 L 200 520 L 200 500 L 200 480 L 200 460 L 200 440 L 200 420 L 200.0 405.0 C 200.0 402.761423749155 197.238576250845 400.0 195.0 400.0 L 180 400 L 160 400 L 145.0 400.0 C 142.761423749155 400.0 140.0 402.761423749155 140.0 405.0 L 140.0 415.0 C 140.0 417.238576250845 137.238576250845 420.0 135.0 420.0 L 120 420 L 100 420" fill="none" stroke="#e67e22" stroke-width="3" /><path d="M 100.0 414.0 L 90.0 420.0 L 100.0 426.0" fill="#e67e22" /><circle cx="380" cy="620" fill="#e67e22" r="5" /></g><g><path d="M 280 280 L 280 280 L 265.0 280.0 C 262.761423749155 280.0 260.0 277.238576250845 260.0 275.0 L 260.0 265.0 C 260.0 262.761423749155 257.238576250845 260.0 255.0 260.0 L 240 260 L 225.0 260.0 C 222.761423749155 260.0 220.0 257.238576250845 220.0 255.0 L 220 240 L 220.0 225.0 C 220.0 222.761423749155 217.238576250845 220.0 215.0 220.0 L 200 220 L 185.0 220.0 C 182.761423749155 220.0 180.0 222.761423749155 180.0 225.0 L 180.0 235.0 C 180.0 237.238576250845 177.238576250845 240.0 175.0 240.0 L 165.0 240.0 C 162.761423749155 240.0 160.0 242.761423749155 160.0 245.0 L 160 260 L 160 280 L 160.0 295.0 C 160.0 297.238576250845 157.238576250845 300.0 155.0 300.0 L 140 300 L 120 300 L 100 300 L 85.0 300.0 C 82.761423749155 300.0 80.0 302.761423749155 80.0 305.0 L 80 320 L 80 340 L 80 360 L 80 380 L 80 400" fill="none" stroke="#111111" stroke-width="9" /><path d="M 280 280 L 280 280 L 265.0 280.0 C 262.761423749155 280.0 260.0 277.238576250845 260.0 275.0 L 260.0 265.0 C 260.0 262.761423749155 257.238576250845 260.0 255.0 260.0 L 240 260 L 225.0 260.0 C 222.761423749155 260.0 220.0 257.238576250845 220.0 255.0 L 220 240 L 220.0 225.0 C 220.0 222.761423749155 217.238576250845 220.0 215.0 220.0 L 200 220 L 185.0 220.0 C 182.761423749155 220.0 180.0 222.761423749155 180.0 225.0 L 180.0 235.0 C 180.0 237.238576250845 177.238576250845 240.0 175.0 240.0 L 165.0 240.0 C 162.761423749155 240.0 160.0 242.761423749155 160.0 245.0 L 160 260 L 160 280 L 160.0 295.0 C 160.0 297.238576250845 157.238576250845 300.0 155.0 300.0 L 140 300 L 120 300 L 100 300 L 85.0 300.0 C 82.761423749155 300.0 80.0 302.761423749155 80.0 305.0 L 80 320 L 80 340 L 80 360 L 80 380 L 80 400" fill="none" stroke="#e74c3c" stroke-width="3" /><path d="M 86.0 400.0 L 80.0 410.0 L 74.0 400.0" fill="#e74c3c" /><circle cx="280" cy="280" fill="#e74c3c" r="5" /></g><g><path d="M 600 700 L 600 700 L 585.0 700.0 C 582.761423749155 700.0 580.0 697.238576250845 580.0 695.0 L 580 680 L 580 660 L 580.0 645.0 C 580.0 642.761423749155 577.238576250845 640.0 575.0 640.0 L 560 640 L 540 640 L 520 640 L 505.0 640.0 C 502.761423749155 640.0 500.0 637.238576250845 500.0 635.0 L 500.0 625.0 C 500.0 622.761423749155 497.238576250845 620.0 495.0 620.0 L 480 620 L 465.0 620.0 C 462.761423749155 620.0 460.0 617.238576250845 460.0 615.0 L 460.0 605.0 C 460.0 602.761423749155 457.238576250845 600.0 455.0 600.0 L 440 600 L 425.0 600.0 C 422.761423749155 600.0 420.0 597.238576250845 420.0 595.0 L 420 580 L 420 560 L 420.0 545.0 C 420.0 542.761423749155 417.238576250845 540.0 415.0 540.0 L 400 540 L 380 540 L 365.0 540.0 C 362.761423749155 540.0 360.0 542.761423749155 360.0 545.0 L 360 560 L 360 580 L 360.0 595.0 C 360.0 597.238576250845 357.238576250845 600.0 355.0 600.0 L 340 600 L 320 600 L 305.0 600.0 C 302.761423749155 600.0 300.0 597.238576250845 300.0 595.0 L 300.0 585.0 C 300.0 582.761423749155 297.238576250845 580.0 295.0 580.0 L 280 580 L 260 580 L 240 580 L 220 580 L 205.0 580.0 C 202.761423749155 580.0 200.0 577.238576250845 200.0 575.0 L 200.0 565.0 C 200.0 562.761423749155 197.238576250845 560.0 195.0 560.0 L 180 560 L 165.0 560.0 C 162.761423749155 560.0 160.0 557.238576250845 160.0 555.0 L 160.0 545.0 C 160.0 542.761423749155 157.238576250845 540.0 155.0 540.0 L 140 540" fill="none" stroke="#111111" stroke-width="9" /><path d="M 600 700 L 600 700 L 585.0 700.0 C 582.761423749155 700.0 580.0 697.238576250845 580.0 695.0 L 580 680 L 580 660 L 580.0 645.0 C 580.0 642.761423749155 577.238576250845 640.0 575.0 640.0 L 560 640 L 540 640 L 520 640 L 505.0 640.0 C 502.761423749155 640.0 500.0 637.238576250845 500.0 635.0 L 500.0 625.0 C 500.0 622.761423749155 497.238576250845 620.0 495.0 620.0 L 480 620 L 465.0 620.0 C 462.761423749155 620.0 460.0 617.238576250845 460.0 615.0 L 460.0 605.0 C 460.0 602.761423749155 457.238576250845 600.0 455.0 600.0 L 440 600 L 425.0 600.0 C 422.761423749155 600.0 420.0 597.238576250845 420.0 595.0 L 420 580 L 420 560 L 420.0 545.0 C 420.0 542.761423749155 417.238576250845 540.0 415.0 540.0 L 400 540 L 380 540 L 365.0 540.0 C 362.761423749155 540.0 360.0 542.761423749155 360.0 545.0 L 360 560 L 360 580 L 360.0 595.0 C 360.0 597.238576250845 357.238576250845 600.0 355.0 600.0 L 340 600 L 320 600 L 305.0 600.0 C 302.761423749155 600.0 300.0 597.238576250845 300.0 595.0 L 300.0 585.0 C 300.0 582.761423749155 297.238576250845 580.0 295.0 580.0 L 280 580 L 260 580 L 240 580 L 220 580 L 205.0 580.0 C 202.761423749155 580.0 200.0 577.238576250845 200.0 575.0 L 200.0 565.0 C 200.0 562.761423749155 197.238576250845 560.0 195.0 560.0 L 180 560 L 165.0 560.0 C 162.761423749155 560.0 160.0 557.238576250845 160.0 555.0 L 160.0 545.0 C 160.0 542.761423749155 157.238576250845 540.0 155.0 540.0 L 140 540" fill="none" stroke="#3498db" stroke-width="3" /><path d="M 140.0 534.0 L 130.0 540.0 L 140.0 546.0" fill="#3498db" /><circle cx="600" cy="700" fill="#3498db" r="5" /></g><g><path d="M 360 120 L 360 120 L 360.0 105.0 C 360.0 102.761423749155 362.761423749155 100.0 365.0 100.0 L 380 100 L 395.0 100.0 C 397.238576250845 100.0 400.0 102.761423749155 400.0 105.0 L 400.0 115.0 C 400.0 117.238576250845 402.761423749155 120.0 405.0 120.0 L 415.0 120.0 C 417.238576250845 120.0 420.0 122.761423749155 420.0 125.0 L 420.0 135.0 C 420.0 137.238576250845 422.761423749155 140.0 425.0 140.0 L 440 140 L 460 140 L 480 140 L 500 140 L 515.0 140.0 C 517.238576250845 140.0 520.0 137.238576250845 520.0 135.0 L 520 120 L 520.0 105.0 C 520.0 102.761423749155 522.761423749155 100.0 525.0 100.0 L 540 100 L 555.0 100.0 C 557.238576250845 100.0 560.0 97.238576250845 560.0 95.0 L 560.0 85.0 C 560.0 82.761423749155 562.761423749155 80.0 565.0 80.0 L 580 80 L 600 80" fill="none" stroke="#111111" stroke-width="9" /><path d="M 360 120 L 360 120 L 360.0 105.0 C 360.0 102.761423749155 362.761423749155 100.0 365.0 100.0 L 380 100 L 395.0 100.0 C 397.238576250845 100.0 400.0 102.761423749155 400.0 105.0 L 400.0 115.0 C 400.0 117.238576250845 402.761423749155 120.0 405.0 120.0 L 415.0 120.0 C 417.238576250845 120.0 420.0 122.761423749155 420.0 125.0 L 420.0 135.0 C 420.0 137.238576250845 422.761423749155 140.0 425.0 140.0 L 440 140 L 460 140 L 480 140 L 500 140 L 515.0 140.0 C 517.238576250845 140.0 520.0 137.238576250845 520.0 135.0 L 520 120 L 520.0 105.0 C 520.0 102.761423749155 522.761423749155 100.0 525.0 100.0 L 540 100 L 555.0 100.0 C 557.238576250845 100.0 560.0 97.238576250845 560.0 95.0 L 560.0 85.0 C 560.0 82.761423749155 562.761423749155 80.0 565.0 80.0 L 580 80 L 600 80" fill="none" stroke="#3498db" stroke-width="3" /><path d="M 600.0 86.0 L 610.0 80.0 L 600.0 74.0" fill="#3498db" /><circle cx="360" cy="120" fill="#3498db" r="5" /></g><g><path d="M 640 120 L 640 120 L 625.0 120.0 C 622.761423749155 120.0 620.0 122.761423749155 620.0 125.0 L 620 140 L 620.0 155.0 C 620.0 157.238576250845 617.238576250845 160.0 615.0 160.0 L 605.0 160.0 C 602.761423749155 160.0 600.0 162.761423749155 600.0 165.0 L 600 180 L 600.0 195.0 C 600.0 197.238576250845 597.238576250845 200.0 595.0 200.0 L 580 200 L 560 200 L 545.0 200.0 C 542.761423749155 200.0 540.0 202.761423749155 540.0 205.0 L 540.0 215.0 C 540.0 217.238576250845 537.238576250845 220.0 535.0 220.0 L 525.0 220.0 C 522.761423749155 220.0 520.0 222.761423749155 520.0 225.0 L 520 240 L 520.0 255.0 C 520.0 257.238576250845 517.238576250845 260.0 515.0 260.0 L 505.0 260.0 C 502.761423749155 260.0 500.0 262.761423749155 500.0 265.0 L 500.0 275.0 C 500.0 277.238576250845 497.238576250845 280.0 495.0 280.0 L 485.0 280.0 C 482.761423749155 280.0 480.0 282.761423749155 480.0 285.0 L 480.0 295.0 C 480.0 297.238576250845 477.238576250845 300.0 475.0 300.0 L 460 300 L 440 300 L 425.0 300.0 C 422.761423749155 300.0 420.0 302.761423749155 420.0 305.0 L 420.0 315.0 C 420.0 317.238576250845 417.238576250845 320.0 415.0 320.0 L 405.0 320.0 C 402.761423749155 320.0 400.0 322.761423749155 400.0 325.0 L 400 340 L 400.0 355.0 C 400.0 357.238576250845 402.761423749155 360.0 405.0 360.0 L 415.0 360.0 C 417.238576250845 360.0 420.0 362.761423749155 420.0 365.0 L 420 380 L 420.0 395.0 C 420.0 397.238576250845 422.761423749155 400.0 425.0 400.0 L 435.0 400.0 C 437.238576250845 400.0 440.0 402.761423749155 440.0 405.0 L 440.0 415.0 C 440.0 417.238576250845 442.761423749155 420.0 445.0 420.0 L 460 420 L 480 420 L 495.0 420.0 C 497.238576250845 420.0 500.0 422.761423749155 500.0 425.0 L 500 440 L 500.0 455.0 C 500.0 457.238576250845 502.761423749155 460.0 505.0 460.0 L 515.0 460.0 C 517.238576250845 460.0 520.0 462.761423749155 520.0 465.0 L 520 480 L 520 500 L 520 520 L 520 540 L 520.0 555.0 C 520.0 557.238576250845 517.238576250845 560.0 515.0 560.0 L 505.0 560.0 C 502.761423749155 560.0 500.0 562.761423749155 500.0 565.0 L 500.0 575.0 C 500.0 577.238576250845 497.238576250845 580.0 495.0 580.0 L 480 580 L 460 580 L 445.0 580.0 C 442.761423749155 580.0 440.0 582.761423749155 440.0 585.0 L 440 600 L 440.0 615.0 C 440.0 617.238576250845 437.238576250845 620.0 435.0 620.0 L 420 620 L 405.0 620.0 C 402.761423749155 620.0 400.0 622.761423749155 400.0 625.0 L 400.0 635.0 C 400.0 637.238576250845 397.238576250845 640.0 395.0 640.0 L 380 640 L 360 640 L 340 640 L 325.0 640.0 C 322.761423749155 640.0 320.0 642.761423749155 320.0 645.0 L 320.0 655.0 C 320.0 657.238576250845 317.238576250845 660.0 315.0 660.0 L 300 660 L 280 660 L 260 660 L 245.0 660.0 C 242.761423749155 660.0 240.0 657.238576250845 240.0 655.0 L 240.0 645.0 C 240.0 642.761423749155 237.238576250845 640.0 235.0 640.0 L 220 640 L 200 640 L 180 640 L 160 640 L 140 640 L 120 640" fill="none" stroke="#111111" stroke-width="9" /><path d="M 640 120 L 640 120 L 625.0 120.0 C 622.761423749155 120.0 620.0 122.761423749155 620.0 125.0 L 620 140 L 620.0 155.0 C 620.0 157.238576250845 617.238576250845 160.0 615.0 160.0 L 605.0 160.0 C 602.761423749155 160.0 600.0 162.761423749155 600.0 165.0 L 600 180 L 600.0 195.0 C 600.0 197.238576250845 597.238576250845 200.0 595.0 200.0 L 580 200 L 560 200 L 545.0 200.0 C 542.761423749155 200.0 540.0 202.761423749155 540.0 205.0 L 540.0 215.0 C 540.0 217.238576250845 537.238576250845 220.0 535.0 220.0 L 525.0 220.0 C 522.761423749155 220.0 520.0 222.761423749155 520.0 225.0 L 520 240 L 520.0 255.0 C 520.0 257.238576250845 517.238576250845 260.0 515.0 260.0 L 505.0 260.0 C 502.761423749155 260.0 500.0 262.761423749155 500.0 265.0 L 500.0 275.0 C 500.0 277.238576250845 497.238576250845 280.0 495.0 280.0 L 485.0 280.0 C 482.761423749155 280.0 480.0 282.761423749155 480.0 285.0 L 480.0 295.0 C 480.0 297.238576250845 477.238576250845 300.0 475.0 300.0 L 460 300 L 440 300 L 425.0 300.0 C 422.761423749155 300.0 420.0 302.761423749155 420.0 305.0 L 420.0 315.0 C 420.0 317.238576250845 417.238576250845 320.0 415.0 320.0 L 405.0 320.0 C 402.761423749155 320.0 400.0 322.761423749155 400.0 325.0 L 400 340 L 400.0 355.0 C 400.0 357.238576250845 402.761423749155 360.0 405.0 360.0 L 415.0 360.0 C 417.238576250845 360.0 420.0 362.761423749155 420.0 365.0 L 420 380 L 420.0 395.0 C 420.0 397.238576250845 422.761423749155 400.0 425.0 400.0 L 435.0 400.0 C 437.238576250845 400.0 440.0 402.761423749155 440.0 405.0 L 440.0 415.0 C 440.0 417.238576250845 442.761423749155 420.0 445.0 420.0 L 460 420 L 480 420 L 495.0 420.0 C 497.238576250845 420.0 500.0 422.761423749155 500.0 425.0 L 500 440 L 500.0 455.0 C 500.0 457.238576250845 502.761423749155 460.0 505.0 460.0 L 515.0 460.0 C 517.238576250845 460.0 520.0 462.761423749155 520.0 465.0 L 520 480 L 520 500 L 520 520 L 520 540 L 520.0 555.0 C 520.0 557.238576250845 517.238576250845 560.0 515.0 560.0 L 505.0 560.0 C 502.761423749155 560.0 500.0 562.761423749155 500.0 565.0 L 500.0 575.0 C 500.0 577.238576250845 497.238576250845 580.0 495.0 580.0 L 480 580 L 460 580 L 445.0 580.0 C 442.761423749155 580.0 440.0 582.761423749155 440.0 585.0 L 440 600 L 440.0 615.0 C 440.0 617.238576250845 437.238576250845 620.0 435.0 620.0 L 420 620 L 405.0 620.0 C 402.761423749155 620.0 400.0 622.761423749155 400.0 625.0 L 400.0 635.0 C 400.0 637.238576250845 397.238576250845 640.0 395.0 640.0 L 380 640 L 360 640 L 340 640 L 325.0 640.0 C 322.761423749155 640.0 320.0 642.761423749155 320.0 645.0 L 320.0 655.0 C 320.0 657.238576250845 317.238576250845 660.0 315.0 660.0 L 300 660 L 280 660 L 260 660 L 245.0 660.0 C 242.761423749155 660.0 240.0 657.238576250845 240.0 655.0 L 240.0 645.0 C 240.0 642.761423749155 237.238576250845 640.0 235.0 640.0 L 220 640 L 200 640 L 180 640 L 160 640 L 140 640 L 120 640" fill="none" stroke="#e67e22" stroke-width="3" /><path d="M 120.0 634.0 L 110.0 640.0 L 120.0 646.0" fill="#e67e22" /><circle cx="640" cy="120" fill="#e67e22" r="5" /></g><g><path d="M 300 100 L 300 100 L 300 120 L 300.0 135.0 C 300.0 137.238576250845 302.761423749155 140.0 305.0 140.0 L 320 140 L 340 140 L 360 140 L 375.0 140.0 C 377.238576250845 140.0 380.0 142.761423749155 380.0 145.0 L 380.0 155.0 C 380.0 157.238576250845 382.761423749155 160.0 385.0 160.0 L 395.0 160.0 C 397.238576250845 160.0 400.0 162.761423749155 400.0 165.0 L 400.0 175.0 C 400.0 177.238576250845 402.761423749155 180.0 405.0 180.0 L 420 180 L 435.0 180.0 C 437.238576250845 180.0 440.0 182.761423749155 440.0 185.0 L 440 200 L 440.0 215.0 C 440.0 217.238576250845 442.761423749155 220.0 445.0 220.0 L 460 220 L 480 220 L 495.0 220.0 C 497.238576250845 220.0 500.0 222.761423749155 500.0 225.0 L 500.0 235.0 C 500.0 237.238576250845 502.761423749155 240.0 505.0 240.0 L 520 240 L 540 240 L 560 240 L 580 240 L 600 240 L 620 240 L 635.0 240.0 C 637.238576250845 240.0 640.0 237.238576250845 640.0 235.0 L 640 220 L 640.0 205.0 C 640.0 202.761423749155 642.761423749155 200.0 645.0 200.0 L 660 200" fill="none" stroke="#111111" stroke-width="9" /><path d="M 300 100 L 300 100 L 300 120 L 300.0 135.0 C 300.0 137.238576250845 302.761423749155 140.0 305.0 140.0 L 320 140 L 340 140 L 360 140 L 375.0 140.0 C 377.238576250845 140.0 380.0 142.761423749155 380.0 145.0 L 380.0 155.0 C 380.0 157.238576250845 382.761423749155 160.0 385.0 160.0 L 395.0 160.0 C 397.238576250845 160.0 400.0 162.761423749155 400.0 165.0 L 400.0 175.0 C 400.0 177.238576250845 402.761423749155 180.0 405.0 180.0 L 420 180 L 435.0 180.0 C 437.238576250845 180.0 440.0 182.761423749155 440.0 185.0 L 440 200 L 440.0 215.0 C 440.0 217.238576250845 442.761423749155 220.0 445.0 220.0 L 460 220 L 480 220 L 495.0 220.0 C 497.238576250845 220.0 500.0 222.761423749155 500.0 225.0 L 500.0 235.0 C 500.0 237.238576250845 502.761423749155 240.0 505.0 240.0 L 520 240 L 540 240 L 560 240 L 580 240 L 600 240 L 620 240 L 635.0 240.0 C 637.238576250845 240.0 640.0 237.238576250845 640.0 235.0 L 640 220 L 640.0 205.0 C 640.0 202.761423749155 642.761423749155 200.0 645.0 200.0 L 660 200" fill="none" stroke="#2ecc71" stroke-width="3" /><path d="M 660.0 206.0 L 670.0 200.0 L 660.0 194.0" fill="#2ecc71" /><circle cx="300" cy="100" fill="#2ecc71" r="5" /></g></svg>