<?xml version="1.0" encoding="utf-8" ?>
<svg baseProfile="full" height="100%" version="1.1" width="100%" xmlns="http://www.w3.org/2000/svg" xmlns:ev="http://www.w3.org/2001/xml-events" xmlns:xlink="http://www.w3.org/1999/xlink"><defs /><rect fill="#111111" height="100%" width="100%" x="0" y="0" /><g><path d="M 600 800 L 600 800 L 600 780 L 600.0 765.0 C 600.0 762.761423749155 597.238576250845 760.0 595.0 760.0 L 585.0 760.0 C 582.761423749155 760.0 580.0 757.238576250845 580.0 755.0 L 580 740 L 580 720 L 580.0 705.0 C 580.0 702.761423749155 577.238576250845 700.0 575.0 700.0 L 560 700 L 545.0 700.0 C 542.761423749155 700.0 540.0 697.238576250845 540.0 695.0 L 540 680 L 540.0 665.0 C 540.0 662.761423749155 537.238576250845 660.0 535.0 660.0 L 520 660 L 500 660 L 480 660 L 460 660 L 445.0 660.0 C 442.761423749155 660.0 440.0 657.238576250845 440.0 655.0 L 440.0 645.0 C 440.0 642.761423749155 437.238576250845 640.0 435.0 640.0 L 420 640 L 405.0 640.0 C 402.761423749155 640.0 400.0 637.238576250845 400.0 635.0 L 400.0 625.0 C 400.0 622.761423749155 397.238576250845 620.0 395.0 620.0 L 380 620 L 365.0 620.0 C 362.761423749155 620.0 360.0 617.238576250845 360.0 615.0 L 360.0 605.0 C 360.0 602.761423749155 357.238576250845 600.0 355.0 600.0 L 345.0 600.0 C 342.761423749155 600.0 340.0 597.238576250845 340.0 595.0 L 340 580 L 340 560 L 340 540 L 340.0 525.0 C 340.0 522.761423749155 337.238576250845 520.0 335.0 520.0 L 320 520 L 305.0 520.0 C 302.761423749155 520.0 300.0 517.238576250845 300.0 515.0 L 300 500 L 300 480 L 300 460 L 300 440 L 300 420 L 300 400 L 300 380 L 300 360 L 300 340 L 300 320 L 300 300 L 300 280 L 300 260 L 300 240 L 300 220 L 300 200 L 300 180 L 300 160 L 300 140 L 300 120 L 300 100 L 300 80" fill="none" stroke="#111111" stroke-width="9" /><path d="M 600 800 L 600 800 L 600 780 L 600.0 765.0 C 600.0 762.761423749155 597.238576250845 760.0 595.0 760.0 L 585.0 760.0 C 582.761423749155 760.0 580.0 757.238576250845 580.0 755.0 L 580 740 L 580 720 L 580.0 705.0 C 580.0 702.761423749155 577.238576250845 700.0 575.0 700.0 L 560 700 L 545.0 700.0 C 542.761423749155 700.0 540.0 697.238576250845 540.0 695.0 L 540 680 L 540.0 665.0 C 540.0 662.761423749155 537.238576250845 660.0 535.0 660.0 L 520 660 L 500 660 L 480 660 L 460 660 L 445.0 660.0 C 442.761423749155 660.0 440.0 657.238576250845 440.0 655.0 L 440.0 645.0 C 440.0 642.761423749155 437.238576250845 640.0 435.0 640.0 L 420 640 L 405.0 640.0 C 402.761423749155 640.0 400.0 637.238576250845 400.0 635.0 L 400.0 625.0 C 400.0 622.761423749155 397.238576250845 620.0 395.0 620.0 L 380 620 L 365.0 620.0 C 362.761423749155 620.0 360.0 617.238576250845 360.0 615.0 L 360.0 605.0 C 360.0 602.761423749155 357.238576250845 600.0 355.0 600.0 L 345.0 600.0 C 342.761423749155 600.0 340.0 597.238576250845 340.0 595.0 L 340 580 L 340 560 L 340 540 L 340.0 525.0 C 340.0 522.761423749155 337.238576250845 520.0 335.0 520.0 L 320 520 L 305.0 520.0 C 302.761423749155 520.0 300.0 517.238576250845 300.0 515.0 L 300 500 L 300 480 L 300 460 L 300 440 L 300 420 L 300 400 L 300 380 L 300 360 L 300 340 L 300 320 L 300 300 L 300 280 L 300 260 L 300 240 L 300 220 L 300 200 L 300 180 L 300 160 L 300 140 L 300 120 L 300 100 L 300 80" fill="none" stroke="#9b59b6" stroke-width="3" /><path d="M 294.0 80.0 L 300.0 70.0 L 306.0 80.0" fill="#9b59b6" /><circle cx="600" cy="800" fill="#9b59b6" r="5" /></g><g><path d="M 580 580 L 580 580 L 580.0 595.0 C 580.0 597.238576250845 582.761423749155 600.0 585.0 600.0 L 600 600 L 620 600 L 640 600 L 655.0 600.0 C 657.238576250845 600.0 660.0 602.761423749155 660.0 605.0 L 660 620 L 660.0 635.0 C 660.0 637.238576250845 662.761423749155 640.0 665.0 640.0 L 680 640 L 700 640 L 715.0 640.0 C 717.238576250845 640.0 720.0 642.761423749155 720.0 645.0 L 720 660 L 720 680 L 720 700 L 720 720 L 720.0 735.0 C 720.0 737.238576250845 722.761423749155 740.0 725.0 740.0 L 740 740 L 760 740 L 780 740 L 800 740" fill="none" stroke="#111111" stroke-width="9" /><path d="M 580 580 L 580 580 L 580.0 595.0 C 580.0 597.238576250845 582.761423749155 600.0 585.0 600.0 L 600 600 L 620 600 L 640 600 L 655.0 600.0 C 657.238576250845 600.0 660.0 602.761423749155 660.0 605.0 L 660 620 L 660.0 635.0 C 660.0 637.238576250845 662.761423749155 640.0 665.0 640.0 L 680 640 L 700 640 L 715.0 640.0 C 717.238576250845 640.0 720.0 642.761423749155 720.0 645.0 L 720 660 L 720 680 L 720 700 L 720 720 L 720.0 735.0 C 720.0 737.238576250845 722.761423749155 740.0 725.0 740.0 L 740 740 L 760 740 L 780 740 L 800 740" fill="none" stroke="#2ecc71" stroke-width="3" /><path d="M 800.0 746.0 L 810.0 740.0 L 800.0 734.0" fill="#2ecc71" /><circle cx="580" cy="580" fill="#2ecc71" r="5" /></g><g><path d="M 800 160 L 800 160 L 780 160 L 765.0 160.0 C 762.761423749155 160.0 760.0 162.761423749155 760.0 165.0 L 760 180 L 760 200 L 760 220 L 760 240 L 760.0 255.0 C 760.0 257.238576250845 757.238576250845 260.0 755.0 260.0 L 740 260 L 725.0 260.0 C 722.761423749155 260.0 720.0 262.761423749155 720.0 265.0 L 720 280 L 720 300 L 720.0 315.0 C 720.0 317.238576250845 717.238576250845 320.0 715.0 320.0 L 700 320 L 685.0 320.0 C 682.761423749155 320.0 680.0 322.761423749155 680.0 325.0 L 680.0 335.0 C 680.0 337.238576250845 677.238576250845 340.0 675.0 340.0 L 660 340 L 645.0 340.0 C 642.761423749155 340.0 640.0 342.761423749155 640.0 345.0 L 640 360 L 640 380 L 640 400 L 640 420 L 640 440 L 640 460 L 640 480 L 640 500 L 640 520 L 640 540 L 640 560 L 640 580 L 640 600 L 640 620 L 640 640 L 640 660 L 640 680 L 640 700" fill="none" stroke="#111111" stroke-width="9" /><path d="M 800 160 L 800 160 L 780 160 L 765.0 160.0 C 762.761423749155 160.0 760.0 162.761423749155 760.0 165.0 L 760 180 L 760 200 L 760 220 L 760 240 L 760.0 255.0 C 760.0 257.238576250845 757.238576250845 260.0 755.0 260.0 L 740 260 L 725.0 260.0 C 722.761423749155 260.0 720.0 262.761423749155 720.0 265.0 L 720 280 L 720 300 L 720.0 315.0 C 720.0 317.238576250845 717.238576250845 320.0 715.0 320.0 L 700 320 L 685.0 320.0 C 682.761423749155 320.0 680.0 322.761423749155 680.0 325.0 L 680.0 335.0 C 680.0 337.238576250845 677.238576250845 340.0 675.0 340.0 L 660 340 L 645.0 340.0 C 642.761423749155 340.0 640.0 342.761423749155 640.0 345.0 L 640 360 L 640 380 L 640 400 L 640 420 L 640 440 L 640 460 L 640 480 L 640 500 L 640 520 L 640 540 L 640 560 L 640 580 L 640 600 L 640 620 L 640 640 L 640 660 L 640 680 L 640 700" fill="none" stroke="#3498db" stroke-width="3" /><path d="M 646.0 700.0 L 640.0 710.0 L 634.0 700.0" fill="#3498db" /><circle cx="800" cy="160" fill="#3498db" r="5" /></g><g><path d="M 420 500 L 420 500 L 420 480 L 420 460 L 420 440 L 420 420 L 420 400 L 420 380 L 420 360 L 420 340 L 420 320 L 420 300 L 420 280 L 420 260 L 420 240" fill="none" stroke="#111111" stroke-width="9" /><path d="M 420 500 L 420 500 L 420 480 L 420 460 L 420 440 L 420 420 L 420 400 L 420 380 L 420 360 L 420 340 L 420 320 L 420 300 L 420 280 L 420 260 L 420 240" fill="none" stroke="#9b59b6" stroke-width="3" /><path d="M 414.0 240.0 L 420.0 230.0 L 426.0 240.0" fill="#9b59b6" /><circle cx="420" cy="500" fill="#9b59b6" r="5" /></g><g><path d="M 540 500 L 540 500 L 540.0 515.0 C 540.0 517.238576250845 537.238576250845 520.0 535.0 520.0 L 520 520 L 500 520 L 480 520 L 460 520 L 440 520 L 420 520 L 400 520 L 380 520 L 365.0 520.0 C 362.761423749155 520.0 360.0 522.761423749155 360.0 525.0 L 360.0 535.0 C 360.0 537.238576250845 357.238576250845 540.0 355.0 540.0 L 340 540 L 320 540 L 300 540 L 280 540 L 260 540 L 240 540 L 220 540 L 200 540 L 185.0 540.0 C 182.761423749155 540.0 180.0 537.238576250845 180.0 535.0 L 180.0 525.0 C 180.0 522.761423749155 177.238576250845 520.0 175.0 520.0 L 160 520" fill="none" stroke="#111111" stroke-width="9" /><path d="M 540 500 L 540 500 L 540.0 515.0 C 540.0 517.238576250845 537.238576250845 520.0 535.0 520.0 L 520 520 L 500 520 L 480 520 L 460 520 L 440 520 L 420 520 L 400 520 L 380 520 L 365.0 520.0 C 362.761423749155 520.0 360.0 522.761423749155 360.0 525.0 L 360.0 535.0 C 360.0 537.238576250845 357.238576250845 540.0 355.0 540.0 L 340 540 L 320 540 L 300 540 L 280 540 L 260 540 L 240 540 L 220 540 L 200 540 L 185.0 540.0 C 182.761423749155 540.0 180.0 537.238576250845 180.0 535.0 L 180.0 525.0 C 180.0 522.761423749155 177.238576250845 520.0 175.0 520.0 L 160 520" fill="none" stroke="#e74c3c" stroke-width="3" /><path d="M 160.0 514.0 L 150.0 520.0 L 160.0 526.0" fill="#e74c3c" /><circle cx="540" cy="500" fill="#e74c3c" r="5" /></g><g><path d="M 220 560 L 220 560 L 235.0 560.0 C 237.238576250845 560.0 240.0 562.761423749155 240.0 565.0 L 240.0 575.0 C 240.0 577.238576250845 242.761423749155 580.0 245.0 580.0 L 255.0 580.0 C 257.238576250845 580.0 260.0 582.761423749155 260.0 585.0 L 260 600 L 260.0 615.0 C 260.0 617.238576250845 262.761423749155 620.0 265.0 620.0 L 280 620 L 300 620 L 320 620 L 335.0 620.0 C 337.238576250845 620.0 340.0 622.761423749155 340.0 625.0 L 340.0 635.0 C 340.0 637.238576250845 342.761423749155 640.0 345.0 640.0 L 355.0 640.0 C 357.238576250845 640.0 360.0 642.761423749155 360.0 645.0 L 360.0 655.0 C 360.0 657.238576250845 362.761423749155 660.0 365.0 660.0 L 375.0 660.0 C 377.238576250845 660.0 380.0 662.761423749155 380.0 665.0 L 380.0 675.0 C 380.0 677.238576250845 382.761423749155 680.0 385.0 680.0 L 400 680 L 415.0 680.0 C 417.238576250845 680.0 420.0 682.761423749155 420.0 685.0 L 420 700 L 420.0 715.0 C 420.0 717.238576250845 422.761423749155 720.0 425.0 720.0 L 440 720 L 460 720 L 480 720 L 500 720 L 515.0 720.0 C 517.238576250845 720.0 520.0 722.761423749155 520.0 725.0 L 520 740 L 520 760 L 520.0 775.0 C 520.0 777.238576250845 522.761423749155 780.0 525.0 780.0 L 540 780 L 560 780 L 580 780 L 600 780 L 620 780 L 640 780 L 660 780" fill="none" stroke="#111111" stroke-width="9" /><path d="M 220 560 L 220 560 L 235.0 560.0 C 237.238576250845 560.0 240.0 562.761423749155 240.0 565.0 L 240.0 575.0 C 240.0 577.238576250845 242.761423749155 580.0 245.0 580.0 L 255.0 580.0 C 257.238576250845 580.0 260.0 582.761423749155 260.0 585.0 L 260 600 L 260.0 615.0 C 260.0 617.238576250845 262.761423749155 620.0 265.0 620.0 L 280 620 L 300 620 L 320 620 L 335.0 620.0 C 337.238576250845 620.0 340.0 622.761423749155 340.0 625.0 L 340.0 635.0 C 340.0 637.238576250845 342.761423749155 640.0 345.0 640.0 L 355.0 640.0 C 357.238576250845 640.0 360.0 642.761423749155 360.0 645.0 L 360.0 655.0 C 360.0 657.238576250845 362.761423749155 660.0 365.0 660.0 L 375.0 660.0 C 377.238576250845 660.0 380.0 662.761423749155 380.0 665.0 L 380.0 675.0 C 380.0 677.238576250845 382.761423749155 680.0 385.0 680.0 L 400 680 L 415.0 680.0 C 417.238576250845 680.0 420.0 682.761423749155 420.0 685.0 L 420 700 L 420.0 715.0 C 420.0 717.238576250845 422.761423749155 720.0 425.0 720.0 L 440 720 L 460 720 L 480 720 L 500 720 L 515.0 720.0 C 517.238576250845 720.0 520.0 722.761423749155 520.0 725.0 L 520 740 L 520 760 L 520.0 775.0 C 520.0 777.238576250845 522.761423749155 780.0 525.0 780.0 L 540 780 L 560 780 L 580 780 L 600 780 L 620 780 L 640 780 L 660 780" fill="none" stroke="#1abc9c" stroke-width="3" /><path d="M 660.0 786.0 L 670.0 780.0 L 660.0 774.0" fill="#1abc9c" /><circle cx="220" cy="560" fill="#1abc9c" r="5" /></g><g><path d="M 160 680 L 160 680 L 160.0 665.0 C 160.0 662.761423749155 162.761423749155 660.0 165.0 660.0 L 175.0 660.0 C 177.238576250845 660.0 180.0 657.238576250845 180.0 655.0 L 180 640 L 180 620 L 180 600 L 180.0 585.0 C 180.0 582.761423749155 182.761423749155 580.0 185.0 580.0 L 200 580 L 215.0 580.0 C 217.238576250845 580.0 220.0 582.761423749155 220.0 585.0 L 220.0 595.0 C 220.0 597.238576250845 222.761423749155 600.0 225.0 600.0 L 240 600 L 260 600 L 275.0 600.0 C 277.238576250845 600.0 280.0 597.238576250845 280.0 595.0 L 280 580 L 280 560 L 280 540 L 280 520 L 280.0 505.0 C 280.0 502.761423749155 282.761423749155 500.0 285.0 500.0 L 300 500 L 315.0 500.0 C 317.238576250845 500.0 320.0 497.238576250845 320.0 495.0 L 320 480 L 320 460 L 320 440 L 320.0 425.0 C 320.0 422.761423749155 322.761423749155 420.0 325.0 420.0 L 340 420 L 360 420 L 375.0 420.0 C 377.238576250845 420.0 380.0 417.238576250845 380.0 415.0 L 380 400 L 380 380 L 380 360 L 380.0 345.0 C 380.0 342.761423749155 382.761423749155 340.0 385.0 340.0 L 395.0 340.0 C 397.238576250845 340.0 400.0 337.238576250845 400.0 335.0 L 400.0 325.0 C 400.0 322.761423749155 402.761423749155 320.0 405.0 320.0 L 420 320 L 440 320 L 455.0 320.0 C 457.238576250845 320.0 460.0 317.238576250845 460.0 315.0 L 460 300 L 460 280 L 460 260 L 460.0 245.0 C 460.0 242.761423749155 462.761423749155 240.0 465.0 240.0 L 475.0 240.0 C 477.238576250845 240.0 480.0 237.238576250845 480.0 235.0 L 480 220 L 480 200" fill="none" stroke="#111111" stroke-width="9" /><path d="M 160 680 L 160 680 L 160.0 665.0 C 160.0 662.761423749155 162.761423749155 660.0 165.0 660.0 L 175.0 660.0 C 177.238576250845 660.0 180.0 657.238576250845 180.0 655.0 L 180 640 L 180 620 L 180 600 L 180.0 585.0 C 180.0 582.761423749155 182.761423749155 580.0 185.0 580.0 L 200 580 L 215.0 580.0 C 217.238576250845 580.0 220.0 582.761423749155 220.0 585.0 L 220.0 595.0 C 220.0 597.238576250845 222.761423749155 600.0 225.0 600.0 L 240 600 L 260 600 L 275.0 600.0 C 277.238576250845 600.0 280.0 597.238576250845 280.0 595.0 L 280 580 L 280 560 L 280 540 L 280 520 L 280.0 505.0 C 280.0 502.761423749155 282.761423749155 500.0 285.0 500.0 L 300 500 L 315.0 500.0 C 317.238576250845 500.0 320.0 497.238576250845 320.0 495.0 L 320 480 L 320 460 L 320 440 L 320.0 425.0 C 320.0 422.761423749155 322.761423749155 420.0 325.0 420.0 L 340 420 L 360 420 L 375.0 420.0 C 377.238576250845 420.0 380.0 417.238576250845 380.0 415.0 L 380 400 L 380 380 L 380 360 L 380.0 345.0 C 380.0 342.761423749155 382.761423749155 340.0 385.0 340.0 L 395.0 340.0 C 397.238576250845 340.0 400.0 337.238576250845 400.0 335.0 L 400.0 325.0 C 400.0 322.761423749155 402.761423749155 320.0 405.0 320.0 L 420 320 L 440 320 L 455.0 320.0 C 457.238576250845 320.0 460.0 317.238576250845 460.0 315.0 L 460 300 L 460 280 L 460 260 L 460.0 245.0 C 460.0 242.761423749155 462.761423749155 240.0 465.0 240.0 L 475.0 240.0 C 477.238576250845 240.0 480.0 237.238576250845 480.0 235.0 L 480 220 L 480 200" fill="none" stroke="#2ecc71" stroke-width="3" /><path d="M 474.0 200.0 L 480.0 190.0 L 486.0 200.0" fill="#2ecc71" /><circle cx="160" cy="680" fill="#2ecc71" r="5" /></g><g><path d="M 740 100 L 740 100 L 740.0 115.0 C 740.0 117.238576250845 737.238576250845 120.0 735.0 120.0 L 720 120 L 705.0 120.0 C 702.761423749155 120.0 700.0 122.761423749155 700.0 125.0 L 700 140 L 700 160 L 700.0 175.0 C 700.0 177.238576250845 697.238576250845 180.0 695.0 180.0 L 685.0 180.0 C 682.761423749155 180.0 680.0 182.761423749155 680.0 185.0 L 680 200 L 680.0 215.0 C 680.0 217.238576250845 677.238576250845 220.0 675.0 220.0 L 660 220 L 645.0 220.0 C 642.761423749155 220.0 640.0 222.761423749155 640.0 225.0 L 640 240 L 640 260 L 640 280 L 640 300 L 640.0 315.0 C 640.0 317.238576250845 637.238576250845 320.0 635.0 320.0 L 625.0 320.0 C 622.761423749155 320.0 620.0 322.761423749155 620.0 325.0 L 620.0 335.0 C 620.0 337.238576250845 617.238576250845 340.0 615.0 340.0 L 605.0 340.0 C 602.761423749155 340.0 600.0 342.761423749155 600.0 345.0 L 600.0 355.0 C 600.0 357.238576250845 597.238576250845 360.0 595.0 360.0 L 585.0 360.0 C 582.761423749155 360.0 580.0 362.761423749155 580.0 365.0 L 580.0 375.0 C 580.0 377.238576250845 577.238576250845 380.0 575.0 380.0 L 560 380 L 540 380 L 525.0 380.0 C 522.761423749155 380.0 520.0 382.761423749155 520.0 385.0 L 520 400 L 520 420 L 520 440 L 520 460 L 520 480 L 520.0 495.0 C 520.0 497.238576250845 517.238576250845 500.0 515.0 500.0 L 505.0 500.0 C 502.761423749155 500.0 500.0 502.761423749155 500.0 505.0 L 500 520 L 500.0 535.0 C 500.0 537.238576250845 497.238576250845 540.0 495.0 540.0 L 480 540 L 460 540 L 440 540 L 420 540 L 400 540 L 385.0 540.0 C 382.761423749155 540.0 380.0 542.761423749155 380.0 545.0 L 380 560 L 380 580 L 380.0 595.0 C 380.0 597.238576250845 382.761423749155 600.0 385.0 600.0 L 395.0 600.0 C 397.238576250845 600.0 400.0 597.238576250845 400.0 595.0 L 400.0 585.0 C 400.0 582.761423749155 402.761423749155 580.0 405.0 580.0 L 415.0 580.0 C 417.238576250845 580.0 420.0 582.761423749155 420.0 585.0 L 420 600 L 420 620 L 420 640 L 420.0 655.0 C 420.0 657.238576250845 417.238576250845 660.0 415.0 660.0 L 405.0 660.0 C 402.761423749155 660.0 400.0 662.761423749155 400.0 665.0 L 400 680 L 400 700 L 400.0 715.0 C 400.0 717.238576250845 397.238576250845 720.0 395.0 720.0 L 385.0 720.0 C 382.761423749155 720.0 380.0 722.761423749155 380.0 725.0 L 380 740 L 380 760" fill="none" stroke="#111111" stroke-width="9" /><path d="M 740 100 L 740 100 L 740.0 115.0 C 740.0 117.238576250845 737.238576250845 120.0 735.0 120.0 L 720 120 L 705.0 120.0 C 702.761423749155 120.0 700.0 122.761423749155 700.0 125.0 L 700 140 L 700 160 L 700.0 175.0 C 700.0 177.238576250845 697.238576250845 180.0 695.0 180.0 L 685.0 180.0 C 682.761423749155 180.0 680.0 182.761423749155 680.0 185.0 L 680 200 L 680.0 215.0 C 680.0 217.238576250845 677.238576250845 220.0 675.0 220.0 L 660 220 L 645.0 220.0 C 642.761423749155 220.0 640.0 222.761423749155 640.0 225.0 L 640 240 L 640 260 L 640 280 L 640 300 L 640.0 315.0 C 640.0 317.238576250845 637.238576250845 320.0 635.0 320.0 L 625.0 320.0 C 622.761423749155 320.0 620.0 322.761423749155 620.0 325.0 L 620.0 335.0 C 620.0 337.238576250845 617.238576250845 340.0 615.0 340.0 L 605.0 340.0 C 602.761423749155 340.0 600.0 342.761423749155 600.0 345.0 L 600.0 355.0 C 600.0 357.238576250845 597.238576250845 360.0 595.0 360.0 L 585.0 360.0 C 582.761423749155 360.0 580.0 362.761423749155 580.0 365.0 L 580.0 375.0 C 580.0 377.238576250845 577.238576250845 380.0 575.0 380.0 L 560 380 L 540 380 L 525.0 380.0 C 522.761423749155 380.0 520.0 382.761423749155 520.0 385.0 L 520 400 L 520 420 L 520 440 L 520 460 L 520 480 L 520.0 495.0 C 520.0 497.238576250845 517.238576250845 500.0 515.0 500.0 L 505.0 500.0 C 502.761423749155 500.0 500.0 502.761423749155 500.0 505.0 L 500 520 L 500.0 535.0 C 500.0 537.238576250845 497.238576250845 540.0 495.0 540.0 L 480 540 L 460 540 L 440 540 L 420 540 L 400 540 L 385.0 540.0 C 382.761423749155 540.0 380.0 542.761423749155 380.0 545.0 L 380 560 L 380 580 L 380.0 595.0 C 380.0 597.238576250845 382.761423749155 600.0 385.0 600.0 L 395.0 600.0 C 397.238576250845 600.0 400.0 597.238576250845 400.0 595.0 L 400.0 585.0 C 400.0 582.761423749155 402.761423749155 580.0 405.0 580.0 L 415.0 580.0 C 417.238576250845 580.0 420.0 582.761423749155 420.0 585.0 L 420 600 L 420 620 L 420 640 L 420.0 655.0 C 420.0 657.238576250845 417.238576250845 660.0 415.0 660.0 L 405.0 660.0 C 402.761423749155 660.0 400.0 662.761423749155 400.0 665.0 L 400 680 L 400 700 L 400.0 715.0 C 400.0 717.238576250845 397.238576250845 720.0 395.0 720.0 L 385.0 720.0 C 382.761423749155 720.0 380.0 722.761423749155 380.0 725.0 L 380 740 L 380 760" fill="none" stroke="#e74c3c" stroke-width="3" /><path d="M 386.0 760.0 L 380.0 770.0 L 374.0 760.0" fill="#e74c3c" /><circle cx="740" cy="100" fill="#e74c3c" r="5" /></g><g><path d="M 380 280 L 380 280 L 380.0 295.0 C 380.0 297.238576250845 377.238576250845 300.0 375.0 300.0 L 365.0 300.0 C 362.761423749155 300.0 360.0 302.761423749155 360.0 305.0 L 360.0 315.0 C 360.0 317.238576250845 357.238576250845 320.0 355.0 320.0 L 345.0 320.0 C 342.761423749155 320.0 340.0 322.761423749155 340.0 325.0 L 340.0 335.0 C 340.0 337.238576250845 337.238576250845 340.0 335.0 340.0 L 320 340 L 300 340 L 285.0 340.0 C 282.761423749155 340.0 280.0 342.761423749155 280.0 345.0 L 280 360 L 280 380 L 280 400 L 280 420 L 280.0 435.0 C 280.0 437.238576250845 277.238576250845 440.0 275.0 440.0 L 265.0 440.0 C 262.761423749155 440.0 260.0 442.761423749155 260.0 445.0 L 260 460" fill="none" stroke="#111111" stroke-width="9" /><path d="M 380 280 L 380 280 L 380.0 295.0 C 380.0 297.238576250845 377.238576250845 300.0 375.0 300.0 L 365.0 300.0 C 362.761423749155 300.0 360.0 302.761423749155 360.0 305.0 L 360.0 315.0 C 360.0 317.238576250845 357.238576250845 320.0 355.0 320.0 L 345.0 320.0 C 342.761423749155 320.0 340.0 322.761423749155 340.0 325.0 L 340.0 335.0 C 340.0 337.238576250845 337.238576250845 340.0 335.0 340.0 L 320 340 L 300 340 L 285.0 340.0 C 282.761423749155 340.0 280.0 342.761423749155 280.0 345.0 L 280 360 L 280 380 L 280 400 L 280 420 L 280.0 435.0 C 280.0 437.238576250845 277.238576250845 440.0 275.0 440.0 L 265.0 440.0 C 262.761423749155 440.0 260.0 442.761423749155 260.0 445.0 L 260 460" fill="none" stroke="#e74c3c" stroke-width="3" /><path d="M 266.0 460.0 L 260.0 470.0 L 254.0 460.0" fill="#e74c3c" /><circle cx="380" cy="280" fill="#e74c3c" r="5" /></g><g><path d="M 500 600 L 500 600 L 500 580 L 500.0 565.0 C 500.0 562.761423749155 502.761423749155 560.0 505.0 560.0 L 520 560 L 535.0 560.0 C 537.238576250845 560.0 540.0 557.238576250845 540.0 555.0 L 540.0 545.0 C 540.0 542.761423749155 542.761423749155 540.0 545.0 540.0 L 560 540 L 580 540 L 600 540 L 620 540 L 640 540 L 655.0 540.0 C 657.238576250845 540.0 660.0 537.238576250845 660.0 535.0 L 660.0 525.0 C 660.0 522.761423749155 662.761423749155 520.0 665.0 520.0 L 675.0 520.0 C 677.238576250845 520.0 680.0 517.238576250845 680.0 515.0 L 680.0 505.0 C 680.0 502.761423749155 682.761423749155 500.0 685.0 500.0 L 695.0 500.0 C 697.238576250845 500.0 700.0 497.238576250845 700.0 495.0 L 700.0 485.0 C 700.0 482.761423749155 702.761423749155 480.0 705.0 480.0 L 715.0 480.0 C 717.238576250845 480.0 720.0 477.238576250845 720.0 475.0 L 720.0 465.0 C 720.0 462.761423749155 722.761423749155 460.0 725.0 460.0 L 740 460 L 760 460 L 780 460 L 800 460" fill="none" stroke="#111111" stroke-width="9" /><path d="M 500 600 L 500 600 L 500 580 L 500.0 565.0 C 500.0 562.761423749155 502.761423749155 560.0 505.0 560.0 L 520 560 L 535.0 560.0 C 537.238576250845 560.0 540.0 557.238576250845 540.0 555.0 L 540.0 545.0 C 540.0 542.761423749155 542.761423749155 540.0 545.0 540.0 L 560 540 L 580 540 L 600 540 L 620 540 L 640 540 L 655.0 540.0 C 657.238576250845 540.0 660.0 537.238576250845 660.0 535.0 L 660.0 525.0 C 660.0 522.761423749155 662.761423749155 520.0 665.0 520.0 L 675.0 520.0 C 677.238576250845 520.0 680.0 517.238576250845 680.0 515.0 L 680.0 505.0 C 680.0 502.761423749155 682.761423749155 500.0 685.0 500.0 L 695.0 500.0 C 697.238576250845 500.0 700.0 497.238576250845 700.0 495.0 L 700.0 485.0 C 700.0 482.761423749155 702.761423749155 480.0 705.0 480.0 L 715.0 480.0 C 717.238576250845 480.0 720.0 477.238576250845 720.0 475.0 L 720.0 465.0 C 720.0 462.761423749155 722.761423749155 460.0 725.0 460.0 L 740 460 L 760 460 L 780 460 L 800 460" fill="none" stroke="#9b59b6" stroke-width="3" /><path d="M 800.0 466.0 L 810.0 460.0 L 800.0 454.0" fill="#9b59b6" /><circle cx="500" cy="600" fill="#9b59b6" r="5" /></g><g><path d="M 60 740 L 60 740 L 60 720 L 60.0 705.0 C 60.0 702.761423749155 62.761423749155 700.0 65.0 700.0 L 80 700 L 100 700 L 120 700 L 140 700 L 160 700 L 180 700 L 200 700 L 220 700 L 240 700" fill="none" stroke="#111111" stroke-width="9" /><path d="M 60 740 L 60 740 L 60 720 L 60.0 705.0 C 60.0 702.761423749155 62.761423749155 700.0 65.0 700.0 L 80 700 L 100 700 L 120 700 L 140 700 L 160 700 L 180 700 L 200 700 L 220 700 L 240 700" fill="none" stroke="#e74c3c" stroke-width="3" /><path d="M 240.0 706.0 L 250.0 700.0 L 240.0 694.0" fill="#e74c3c" /><circle cx="60" cy="740" fill="#e74c3c" r="5" /></g><g><path d="M 580 660 L 580 660 L 565.0 660.0 C 562.761423749155 660.0 560.0 657.238576250845 560.0 655.0 L 560 640 L 560.0 625.0 C 560.0 622.761423749155 557.238576250845 620.0 555.0 620.0 L 545.0 620.0 C 542.761423749155 620.0 540.0 617.238576250845 540.0 615.0 L 540 600 L 540.0 585.0 C 540.0 582.761423749155 537.238576250845 580.0 535.0 580.0 L 520 580 L 500 580 L 480 580 L 465.0 580.0 C 462.761423749155 580.0 460.0 577.238576250845 460.0 575.0 L 460.0 565.0 C 460.0 562.761423749155 457.238576250845 560.0 455.0 560.0 L 440 560 L 420 560 L 400 560 L 380 560 L 360 560 L 340 560 L 320 560 L 300 560 L 280 560 L 265.0 560.0 C 262.761423749155 560.0 260.0 557.238576250845 260.0 555.0 L 260 540 L 260.0 525.0 C 260.0 522.761423749155 257.238576250845 520.0 255.0 520.0 L 240 520 L 220 520 L 205.0 520.0 C 202.761423749155 520.0 200.0 522.761423749155 200.0 525.0 L 200 540 L 200.0 555.0 C 200.0 557.238576250845 197.238576250845 560.0 195.0 560.0 L 180 560 L 160 560 L 140 560 L 120 560 L 100 560 L 80 560 L 60 560 L 40 560" fill="none" stroke="#111111" stroke-width="9" /><path d="M 580 660 L 580 660 L 565.0 660.0 C 562.761423749155 660.0 560.0 657.238576250845 560.0 655.0 L 560 640 L 560.0 625.0 C 560.0 622.761423749155 557.238576250845 620.0 555.0 620.0 L 545.0 620.0 C 542.761423749155 620.0 540.0 617.238576250845 540.0 615.0 L 540 600 L 540.0 585.0 C 540.0 582.761423749155 537.238576250845 580.0 535.0 580.0 L 520 580 L 500 580 L 480 580 L 465.0 580.0 C 462.761423749155 580.0 460.0 577.238576250845 460.0 575.0 L 460.0 565.0 C 460.0 562.761423749155 457.238576250845 560.0 455.0 560.0 L 440 560 L 420 560 L 400 560 L 380 560 L 360 560 L 340 560 L 320 560 L 300 560 L 280 560 L 265.0 560.0 C 262.761423749155 560.0 260.0 557.238576250845 260.0 555.0 L 260 540 L 260.0 525.0 C 260.0 522.761423749155 257.238576250845 520.0 255.0 520.0 L 240 520 L 220 520 L 205.0 520.0 C 202.761423749155 520.0 200.0 522.761423749155 200.0 525.0 L 200 540 L 200.0 555.0 C 200.0 557.238576250845 197.238576250845 560.0 195.0 560.0 L 180 560 L 160 560 L 140 560 L 120 560 L 100 560 L 80 560 L 60 560 L 40 560" fill="none" stroke="#e67e22" stroke-width="3" /><path d="M 40.0 554.0 L 30.0 560.0 L 40.0 566.0" fill="#e67e22" /><circle cx="580" cy="660" fill="#e67e22" r="5" /></g><g><path d="M 240 380 L 240 380 L 260 380 L 280 380 L 300 380 L 315.0 380.0 C 317.238576250845 380.0 320.0 382.761423749155 320.0 385.0 L 320.0 395.0 C 320.0 397.238576250845 317.238576250845 400.0 315.0 400.0 L 300 400 L 280 400 L 265.0 400.0 C 262.761423749155 400.0 260.0 402.761423749155 260.0 405.0 L 260.0 415.0 C 260.0 417.238576250845 257.238576250845 420.0 255.0 420.0 L 245.0 420.0 C 242.761423749155 420.0 240.0 422.761423749155 240.0 425.0 L 240 440 L 240 460 L 240 480 L 240.0 495.0 C 240.0 497.238576250845 242.761423749155 500.0 245.0 500.0 L 255.0 500.0 C 257.238576250845 500.0 260.0 497.238576250845 260.0 495.0 L 260.0 485.0 C 260.0 482.761423749155 262.761423749155 480.0 265.0 480.0 L 280 480 L 300 480 L 320 480 L 335.0 480.0 C 337.238576250845 480.0 340.0 482.761423749155 340.0 485.0 L 340.0 495.0 C 340.0 497.238576250845 342.761423749155 500.0 345.0 500.0 L 355.0 500.0 C 357.238576250845 500.0 360.0 497.238576250845 360.0 495.0 L 360 480 L 360.0 465.0 C 360.0 462.761423749155 357.238576250845 460.0 355.0 460.0 L 345.0 460.0 C 342.761423749155 460.0 340.0 457.238576250845 340.0 455.0 L 340.0 445.0 C 340.0 442.761423749155 342.761423749155 440.0 345.0 440.0 L 360 440 L 375.0 440.0 C 377.238576250845 440.0 380.0 442.761423749155 380.0 445.0 L 380 460 L 380 480 L 380.0 495.0 C 380.0 497.238576250845 382.761423749155 500.0 385.0 500.0 L 395.0 500.0 C 397.238576250845 500.0 400.0 497.238576250845 400.0 495.0 L 400 480 L 400.0 465.0 C 400.0 462.761423749155 402.761423749155 460.0 405.0 460.0 L 420 460 L 435.0 460.0 C 437.238576250845 460.0 440.0 462.761423749155 440.0 465.0 L 440 480 L 440 500 L 440 520 L 440 540 L 440 560 L 440 580 L 440 600 L 440.0 615.0 C 440.0 617.238576250845 442.761423749155 620.0 445.0 620.0 L 455.0 620.0 C 457.238576250845 620.0 460.0 622.761423749155 460.0 625.0 L 460 640 L 460 660 L 460.0 675.0 C 460.0 677.238576250845 457.238576250845 680.0 455.0 680.0 L 445.0 680.0 C 442.761423749155 680.0 440.0 682.761423749155 440.0 685.0 L 440.0 695.0 C 440.0 697.238576250845 437.238576250845 700.0 435.0 700.0 L 420 700 L 400 700 L 380 700 L 365.0 700.0 C 362.761423749155 700.0 360.0 697.238576250845 360.0 695.0 L 360.0 685.0 C 360.0 682.761423749155 357.238576250845 680.0 355.0 680.0 L 340 680 L 320 680 L 300 680" fill="none" stroke="#111111" stroke-width="9" /><path d="M 240 380 L 240 380 L 260 380 L 280 380 L 300 380 L 315.0 380.0 C 317.238576250845 380.0 320.0 382.761423749155 320.0 385.0 L 320.0 395.0 C 320.0 397.238576250845 317.238576250845 400.0 315.0 400.0 L 300 400 L 280 400 L 265.0 400.0 C 262.761423749155 400.0 260.0 402.761423749155 260.0 405.0 L 260.0 415.0 C 260.0 417.238576250845 257.238576250845 420.0 255.0 420.0 L 245.0 420.0 C 242.761423749155 420.0 240.0 422.761423749155 240.0 425.0 L 240 440 L 240 460 L 240 480 L 240.0 495.0 C 240.0 497.238576250845 242.761423749155 500.0 245.0 500.0 L 255.0 500.0 C 257.238576250845 500.0 260.0 497.238576250845 260.0 495.0 L 260.0 485.0 C 260.0 482.761423749155 262.761423749155 480.0 265.0 480.0 L 280 480 L 300 480 L 320 480 L 335.0 480.0 C 337.238576250845 480.0 340.0 482.761423749155 340.0 485.0 L 340.0 495.0 C 340.0 497.238576250845 342.761423749155 500.0 345.0 500.0 L 355.0 500.0 C 357.238576250845 500.0 360.0 497.238576250845 360.0 495.0 L 360 480 L 360.0 465.0 C 360.0 462.761423749155 357.238576250845 460.0 355.0 460.0 L 345.0 460.0 C 342.761423749155 460.0 340.0 457.238576250845 340.0 455.0 L 340.0 445.0 C 340.0 442.761423749155 342.761423749155 440.0 345.0 440.0 L 360 440 L 375.0 440.0 C 377.238576250845 440.0 380.0 442.761423749155 380.0 445.0 L 380 460 L 380 480 L 380.0 495.0 C 380.0 497.238576250845 382.761423749155 500.0 385.0 500.0 L 395.0 500.0 C 397.238576250845 500.0 400.0 497.238576250845 400.0 495.0 L 400 480 L 400.0 465.0 C 400.0 462.761423749155 402.761423749155 460.0 405.0 460.0 L 420 460 L 435.0 460.0 C 437.238576250845 460.0 440.0 462.761423749155 440.0 465.0 L 440 480 L 440 500 L 440 520 L 440 540 L 440 560 L 440 580 L 440 600 L 440.0 615.0 C 440.0 617.238576250845 442.761423749155 620.0 445.0 620.0 L 455.0 620.0 C 457.238576250845 620.0 460.0 622.761423749155 460.0 625.0 L 460 640 L 460 660 L 460.0 675.0 C 460.0 677.238576250845 457.238576250845 680.0 455.0 680.0 L 445.0 680.0 C 442.761423749155 680.0 440.0 682.761423749155 440.0 685.0 L 440.0 695.0 C 440.0 697.238576250845 437.238576250845 700.0 435.0 700.0 L 420 700 L 400 700 L 380 700 L 365.0 700.0 C 362.761423749155 700.0 360.0 697.238576250845 360.0 695.0 L 360.0 685.0 C 360.0 682.761423749155 357.238576250845 680.0 355.0 680.0 L 340 680 L 320 680 L 300 680" fill="none" stroke="#2ecc71" stroke-width="3" /><path d="M 300.0 674.0 L 290.0 680.0 L 300.0 686.0" fill="#2ecc71" /><circle cx="240" cy="380" fill="#2ecc71" r="5" /></g><g><path d="M 560 800 L 560 800 L 545.0 800.0 C 542.761423749155 800.0 540.0 797.238576250845 540.0 795.0 L 540 780 L 540.0 765.0 C 540.0 762.761423749155 537.238576250845 760.0 535.0 760.0 L 520 760 L 505.0 760.0 C 502.761423749155 760.0 500.0 757.238576250845 500.0 755.0 L 500 740 L 500 720 L 500 700 L 500 680 L 500 660 L 500 640 L 500.0 625.0 C 500.0 622.761423749155 497.238576250845 620.0 495.0 620.0 L 485.0 620.0 C 482.761423749155 620.0 480.0 617.238576250845 480.0 615.0 L 480 600 L 480 580 L 480 560 L 480 540 L 480 520 L 480 500 L 480.0 485.0 C 480.0 482.761423749155 482.761423749155 480.0 485.0 480.0 L 495.0 480.0 C 497.238576250845 480.0 500.0 477.238576250845 500.0 475.0 L 500 460 L 500 440 L 500 420 L 500 400 L 500 380 L 500 360" fill="none" stroke="#111111" stroke-width="9" /><path d="M 560 800 L 560 800 L 545.0 800.0 C 542.761423749155 800.0 540.0 797.238576250845 540.0 795.0 L 540 780 L 540.0 765.0 C 540.0 762.761423749155 537.238576250845 760.0 535.0 760.0 L 520 760 L 505.0 760.0 C 502.761423749155 760.0 500.0 757.238576250845 500.0 755.0 L 500 740 L 500 720 L 500 700 L 500 680 L 500 660 L 500 640 L 500.0 625.0 C 500.0 622.761423749155 497.238576250845 620.0 495.0 620.0 L 485.0 620.0 C 482.761423749155 620.0 480.0 617.238576250845 480.0 615.0 L 480 600 L 480 580 L 480 560 L 480 540 L 480 520 L 480 500 L 480.0 485.0 C 480.0 482.761423749155 482.761423749155 480.0 485.0 480.0 L 495.0 480.0 C 497.238576250845 480.0 500.0 477.238576250845 500.0 475.0 L 500 460 L 500 440 L 500 420 L 500 400 L 500 380 L 500 360" fill="none" stroke="#f1c40f" stroke-width="3" /><path d="M 494.0 360.0 L 500.0 350.0 L 506.0 360.0" fill="#f1c40f" /><circle cx="560" cy="800" fill="#f1c40f" r="5" /></g><g><path d="M 540 80 L 540 80 L 555.0 80.0 C 557.238576250845 80.0 560.0 82.761423749155 560.0 85.0 L 560 100 L 560.0 115.0 C 560.0 117.238576250845 562.761423749155 120.0 565.0 120.0 L 575.0 120.0 C 577.238576250845 120.0 580.0 122.761423749155 580.0 125.0 L 580.0 135.0 C 580.0 137.238576250845 582.761423749155 140.0 585.0 140.0 L 595.0 140.0 C 597.238576250845 140.0 600.0 142.761423749155 600.0 145.0 L 600.0 155.0 C 600.0 157.238576250845 602.761423749155 160.0 605.0 160.0 L 620 160 L 635.0 160.0 C 637.238576250845 160.0 640.0 162.761423749155 640.0 165.0 L 640.0 175.0 C 640.0 177.238576250845 642.761423749155 180.0 645.0 180.0 L 655.0 180.0 C 657.238576250845 180.0 660.0 182.761423749155 660.0 185.0 L 660 200 L 660 220 L 660.0 235.0 C 660.0 237.238576250845 662.761423749155 240.0 665.0 240.0 L 680 240 L 695.0 240.0 C 697.238576250845 240.0 700.0 242.761423749155 700.0 245.0 L 700 260 L 700 280 L 700.0 295.0 C 700.0 297.238576250845 702.761423749155 300.0 705.0 300.0 L 720 300 L 735.0 300.0 C 737.238576250845 300.0 740.0 302.761423749155 740.0 305.0 L 740.0 315.0 C 740.0 317.238576250845 742.761423749155 320.0 745.0 320.0 L 755.0 320.0 C 757.238576250845 320.0 760.0 322.761423749155 760.0 325.0 L 760 340 L 760 360 L 760 380 L 760 400 L 760 420 L 760 440 L 760 460 L 760 480 L 760 500" fill="none" stroke="#111111" stroke-width="9" /><path d="M 540 80 L 540 80 L 555.0 80.0 C 557.238576250845 80.0 560.0 82.761423749155 560.0 85.0 L 560 100 L 560.0 115.0 C 560.0 117.238576250845 562.761423749155 120.0 565.0 120.0 L 575.0 120.0 C 577.238576250845 120.0 580.0 122.761423749155 580.0 125.0 L 580.0 135.0 C 580.0 137.238576250845 582.761423749155 140.0 585.0 140.0 L 595.0 140.0 C 597.238576250845 140.0 600.0 142.761423749155 600.0 145.0 L 600.0 155.0 C 600.0 157.238576250845 602.761423749155 160.0 605.0 160.0 L 620 160 L 635.0 160.0 C 637.238576250845 160.0 640.0 162.761423749155 640.0 165.0 L 640.0 175.0 C 640.0 177.238576250845 642.761423749155 180.0 645.0 180.0 L 655.0 180.0 C 657.238576250845 180.0 660.0 182.761423749155 660.0 185.0 L 660 200 L 660 220 L 660.0 235.0 C 660.0 237.238576250845 662.761423749155 240.0 665.0 240.0 L 680 240 L 695.0 240.0 C 697.238576250845 240.0 700.0 242.761423749155 700.0 245.0 L 700 260 L 700 280 L 700.0 295.0 C 700.0 297.238576250845 702.761423749155 300.0 705.0 300.0 L 720 300 L 735.0 300.0 C 737.238576250845 300.0 740.0 302.761423749155 740.0 305.0 L 740.0 315.0 C 740.0 317.238576250845 742.761423749155 320.0 745.0 320.0 L 755.0 320.0 C 757.238576250845 320.0 760.0 322.761423749155 760.0 325.0 L 760 340 L 760 360 L 760 380 L 760 400 L 760 420 L 760 440 L 760 460 L 760 480 L 760 500" fill="none" stroke="#9b59b6" stroke-width="3" /><path d="M 766.0 500.0 L 760.0 510.0 L 754.0 500.0" fill="#9b59b6" /><circle cx="540" cy="80" fill="#9b59b6" r="5" /></g><g><path d="M 560 300 L 560 300 L 560.0 315.0 C 560.0 317.238576250845 557.238576250845 320.0 555.0 320.0 L 545.0 320.0 C 542.761423749155 320.0 540.0 322.761423749155 540.0 325.0 L 540 340 L 540 360 L 540 380 L 540.0 395.0 C 540.0 397.238576250845 537.238576250845 400.0 535.0 400.0 L 520 400 L 500 400 L 480 400 L 460 400 L 445.0 400.0 C 442.761423749155 400.0 440.0 402.761423749155 440.0 405.0 L 440 420 L 440.0 435.0 C 440.0 437.238576250845 437.238576250845 440.0 435.0 440.0 L 420 440 L 405.0 440.0 C 402.761423749155 440.0 400.0 437.238576250845 400.0 435.0 L 400 420 L 400.0 405.0 C 400.0 402.761423749155 397.238576250845 400.0 395.0 400.0 L 380 400 L 360 400 L 345.0 400.0 C 342.761423749155 400.0 340.0 397.238576250845 340.0 395.0 L 340 380 L 340.0 365.0 C 340.0 362.761423749155 337.238576250845 360.0 335.0 360.0 L 320 360 L 300 360 L 280 360 L 260 360 L 240 360 L 220 360 L 205.0 360.0 C 202.761423749155 360.0 200.0 362.761423749155 200.0 365.0 L 200 380 L 200.0 395.0 C 200.0 397.238576250845 197.238576250845 400.0 195.0 400.0 L 180 400 L 160 400 L 145.0 400.0 C 142.761423749155 400.0 140.0 402.761423749155 140.0 405.0 L 140.0 415.0 C 140.0 417.238576250845 137.238576250845 420.0 135.0 420.0 L 120 420 L 105.0 420.0 C 102.761423749155 420.0 100.0 422.761423749155 100.0 425.0 L 100.0 435.0 C 100.0 437.238576250845 97.238576250845 440.0 95.0 440.0 L 85.0 440.0 C 82.761423749155 440.0 80.0 442.761423749155 80.0 445.0 L 80 460 L 80 480 L 80 500 L 80 520 L 80 540 L 80 560 L 80 580 L 80 600 L 80 620 L 80 640 L 80 660 L 80 680 L 80 700 L 80 720" fill="none" stroke="#111111" stroke-width="9" /><path d="M 560 300 L 560 300 L 560.0 315.0 C 560.0 317.238576250845 557.238576250845 320.0 555.0 320.0 L 545.0 320.0 C 542.761423749155 320.0 540.0 322.761423749155 540.0 325.0 L 540 340 L 540 360 L 540 380 L 540.0 395.0 C 540.0 397.238576250845 537.238576250845 400.0 535.0 400.0 L 520 400 L 500 400 L 480 400 L 460 400 L 445.0 400.0 C 442.761423749155 400.0 440.0 402.761423749155 440.0 405.0 L 440 420 L 440.0 435.0 C 440.0 437.238576250845 437.238576250845 440.0 435.0 440.0 L 420 440 L 405.0 440.0 C 402.761423749155 440.0 400.0 437.238576250845 400.0 435.0 L 400 420 L 400.0 405.0 C 400.0 402.761423749155 397.238576250845 400.0 395.0 400.0 L 380 400 L 360 400 L 345.0 400.0 C 342.761423749155 400.0 340.0 397.238576250845 340.0 395.0 L 340 380 L 340.0 365.0 C 340.0 362.761423749155 337.238576250845 360.0 335.0 360.0 L 320 360 L 300 360 L 280 360 L 260 360 L 240 360 L 220 360 L 205.0 360.0 C 202.761423749155 360.0 200.0 362.761423749155 200.0 365.0 L 200 380 L 200.0 395.0 C 200.0 397.238576250845 197.238576250845 400.0 195.0 400.0 L 180 400 L 160 400 L 145.0 400.0 C 142.761423749155 400.0 140.0 402.761423749155 140.0 405.0 L 140.0 415.0 C 140.0 417.238576250845 137.238576250845 420.0 135.0 420.0 L 120 420 L 105.0 420.0 C 102.761423749155 420.0 100.0 422.761423749155 100.0 425.0 L 100.0 435.0 C 100.0 437.238576250845 97.238576250845 440.0 95.0 440.0 L 85.0 440.0 C 82.761423749155 440.0 80.0 442.761423749155 80.0 445.0 L 80 460 L 80 480 L 80 500 L 80 520 L 80 540 L 80 560 L 80 580 L 80 600 L 80 620 L 80 640 L 80 660 L 80 680 L 80 700 L 80 720" fill="none" stroke="#9b59b6" stroke-width="3" /><path d="M 86.0 720.0 L 80.0 730.0 L 74.0 720.0" fill="#9b59b6" /><circle cx="560" cy="300" fill="#9b59b6" r="5" /></g><g><path d="M 540 280 L 540 280 L 560 280 L 575.0 280.0 C 577.238576250845 280.0 580.0 282.761423749155 580.0 285.0 L 580.0 295.0 C 580.0 297.238576250845 582.761423749155 300.0 585.0 300.0 L 600 300 L 620 300 L 640 300 L 660 300 L 675.0 300.0 C 677.238576250845 300.0 680.0 297.238576250845 680.0 295.0 L 680.0 285.0 C 680.0 282.761423749155 682.761423749155 280.0 685.0 280.0 L 700 280 L 720 280 L 740 280 L 760 280 L 780 280 L 795.0 280.0 C 797.238576250845 280.0 800.0 282.761423749155 800.0 285.0 L 800 300 L 800 320 L 800 340 L 800 360 L 800 380 L 800 400 L 800 420 L 800.0 435.0 C 800.0 437.238576250845 797.238576250845 440.0 795.0 440.0 L 785.0 440.0 C 782.761423749155 440.0 780.0 442.761423749155 780.0 445.0 L 780 460 L 780 480 L 780 500 L 780.0 515.0 C 780.0 517.238576250845 782.761423749155 520.0 785.0 520.0 L 795.0 520.0 C 797.238576250845 520.0 800.0 522.761423749155 800.0 525.0 L 800 540 L 800 560 L 800 580" fill="none" stroke="#111111" stroke-width="9" /><path d="M 540 280 L 540 280 L 560 280 L 575.0 280.0 C 577.238576250845 280.0 580.0 282.761423749155 580.0 285.0 L 580.0 295.0 C 580.0 297.238576250845 582.761423749155 300.0 585.0 300.0 L 600 300 L 620 300 L 640 300 L 660 300 L 675.0 300.0 C 677.238576250845 300.0 680.0 297.238576250845 680.0 295.0 L 680.0 285.0 C 680.0 282.761423749155 682.761423749155 280.0 685.0 280.0 L 700 280 L 720 280 L 740 280 L 760 280 L 780 280 L 795.0 280.0 C 797.238576250845 280.0 800.0 282.761423749155 800.0 285.0 L 800 300 L 800 320 L 800 340 L 800 360 L 800 380 L 800 400 L 800 420 L 800.0 435.0 C 800.0 437.238576250845 797.238576250845 440.0 795.0 440.0 L 785.0 440.0 C 782.761423749155 440.0 780.0 442.761423749155 780.0 445.0 L 780 460 L 780 480 L 780 500 L 780.0 515.0 C 780.0 517.238576250845 782.761423749155 520.0 785.0 520.0 L 795.0 520.0 C 797.238576250845 520.0 800.0 522.761423749155 800.0 525.0 L 800 540 L 800 560 L 800 580" fill="none" stroke="#1abc9c" stroke-width="3" /><path d="M 806.0 580.0 L 800.0 590.0 L 794.0 580.0" fill="#1abc9c" /><circle cx="540" cy="280" fill="#1abc9c" r="5" /></g><g><path d="M 480 140 L 480 140 L 480 160 L 480.0 175.0 C 480.0 177.238576250845 477.238576250845 180.0 475.0 180.0 L 465.0 180.0 C 462.761423749155 180.0 460.0 182.761423749155 460.0 185.0 L 460.0 195.0 C 460.0 197.238576250845 457.238576250845 200.0 455.0 200.0 L 445.0 200.0 C 442.761423749155 200.0 440.0 202.761423749155 440.0 205.0 L 440 220 L 440 240 L 440 260 L 440 280 L 440 300 L 440 320 L 440 340 L 440 360 L 440.0 375.0 C 440.0 377.238576250845 442.761423749155 380.0 445.0 380.0 L 455.0 380.0 C 457.238576250845 380.0 460.0 382.761423749155 460.0 385.0 L 460 400 L 460 420 L 460 440 L 460.0 455.0 C 460.0 457.238576250845 462.761423749155 460.0 465.0 460.0 L 480 460 L 500 460 L 520 460 L 535.0 460.0 C 537.238576250845 460.0 540.0 462.761423749155 540.0 465.0 L 540.0 475.0 C 540.0 477.238576250845 542.761423749155 480.0 545.0 480.0 L 555.0 480.0 C 557.238576250845 480.0 560.0 482.761423749155 560.0 485.0 L 560 500 L 560 520 L 560 540 L 560 560 L 560 580 L 560.0 595.0 C 560.0 597.238576250845 557.238576250845 600.0 555.0 600.0 L 540 600 L 525.0 600.0 C 522.761423749155 600.0 520.0 602.761423749155 520.0 605.0 L 520 620 L 520.0 635.0 C 520.0 637.238576250845 517.238576250845 640.0 515.0 640.0 L 500 640 L 485.0 640.0 C 482.761423749155 640.0 480.0 642.761423749155 480.0 645.0 L 480 660 L 480 680 L 480 700 L 480 720 L 480 740 L 480 760 L 480.0 775.0 C 480.0 777.238576250845 477.238576250845 780.0 475.0 780.0 L 460 780 L 440 780" fill="none" stroke="#111111" stroke-width="9" /><path d="M 480 140 L 480 140 L 480 160 L 480.0 175.0 C 480.0 177.238576250845 477.238576250845 180.0 475.0 180.0 L 465.0 180.0 C 462.761423749155 180.0 460.0 182.761423749155 460.0 185.0 L 460.0 195.0 C 460.0 197.238576250845 457.238576250845 200.0 455.0 200.0 L 445.0 200.0 C 442.761423749155 200.0 440.0 202.761423749155 440.0 205.0 L 440 220 L 440 240 L 440 260 L 440 280 L 440 300 L 440 320 L 440 340 L 440 360 L 440.0 375.0 C 440.0 377.238576250845 442.761423749155 380.0 445.0 380.0 L 455.0 380.0 C 457.238576250845 380.0 460.0 382.761423749155 460.0 385.0 L 460 400 L 460 420 L 460 440 L 460.0 455.0 C 460.0 457.238576250845 462.761423749155 460.0 465.0 460.0 L 480 460 L 500 460 L 520 460 L 535.0 460.0 C 537.238576250845 460.0 540.0 462.761423749155 540.0 465.0 L 540.0 475.0 C 540.0 477.238576250845 542.761423749155 480.0 545.0 480.0 L 555.0 480.0 C 557.238576250845 480.0 560.0 482.761423749155 560.0 485.0 L 560 500 L 560 520 L 560 540 L 560 560 L 560 580 L 560.0 595.0 C 560.0 597.238576250845 557.238576250845 600.0 555.0 600.0 L 540 600 L 525.0 600.0 C 522.761423749155 600.0 520.0 602.761423749155 520.0 605.0 L 520 620 L 520.0 635.0 C 520.0 637.238576250845 517.238576250845 640.0 515.0 640.0 L 500 640 L 485.0 640.0 C 482.761423749155 640.0 480.0 642.761423749155 480.0 645.0 L 480 660 L 480 680 L 480 700 L 480 720 L 480 740 L 480 760 L 480.0 775.0 C 480.0 777.238576250845 477.238576250845 780.0 475.0 780.0 L 460 780 L 440 780" fill="none" stroke="#f1c40f" stroke-width="3" /><path d="M 440.0 774.0 L 430.0 780.0 L 440.0 786.0" fill="#f1c40f" /><circle cx="480" cy="140" fill="#f1c40f" r="5" /></g><g><path d="M 680 680 L 680 680 L 660 680 L 640 680 L 625.0 680.0 C 622.761423749155 680.0 620.0 677.238576250845 620.0 675.0 L 620.0 665.0 C 620.0 662.761423749155 622.761423749155 660.0 625.0 660.0 L 640 660 L 660 660 L 675.0 660.0 C 677.238576250845 660.0 680.0 657.238576250845 680.0 655.0 L 680 640 L 680.0 625.0 C 680.0 622.761423749155 677.238576250845 620.0 675.0 620.0 L 660 620 L 640 620 L 625.0 620.0 C 622.761423749155 620.0 620.0 617.238576250845 620.0 615.0 L 620 600 L 620.0 585.0 C 620.0 582.761423749155 622.761423749155 580.0 625.0 580.0 L 640 580 L 655.0 580.0 C 657.238576250845 580.0 660.0 577.238576250845 660.0 575.0 L 660.0 565.0 C 660.0 562.761423749155 657.238576250845 560.0 655.0 560.0 L 640 560 L 625.0 560.0 C 622.761423749155 560.0 620.0 557.238576250845 620.0 555.0 L 620 540 L 620 520 L 620 500 L 620 480 L 620.0 465.0 C 620.0 462.761423749155 622.761423749155 460.0 625.0 460.0 L 640 460 L 655.0 460.0 C 657.238576250845 460.0 660.0 457.238576250845 660.0 455.0 L 660.0 445.0 C 660.0 442.761423749155 657.238576250845 440.0 655.0 440.0 L 640 440 L 625.0 440.0 C 622.761423749155 440.0 620.0 437.238576250845 620.0 435.0 L 620.0 425.0 C 620.0 422.761423749155 622.761423749155 420.0 625.0 420.0 L 640 420 L 655.0 420.0 C 657.238576250845 420.0 660.0 417.238576250845 660.0 415.0 L 660 400 L 660.0 385.0 C 660.0 382.761423749155 657.238576250845 380.0 655.0 380.0 L 640 380 L 625.0 380.0 C 622.761423749155 380.0 620.0 377.238576250845 620.0 375.0 L 620.0 365.0 C 620.0 362.761423749155 622.761423749155 360.0 625.0 360.0 L 640 360 L 655.0 360.0 C 657.238576250845 360.0 660.0 357.238576250845 660.0 355.0 L 660 340 L 660 320 L 660 300 L 660 280 L 660.0 265.0 C 660.0 262.761423749155 657.238576250845 260.0 655.0 260.0 L 640 260 L 625.0 260.0 C 622.761423749155 260.0 620.0 257.238576250845 620.0 255.0 L 620 240 L 620 220 L 620 200 L 620 180 L 620 160 L 620 140 L 620.0 125.0 C 620.0 122.761423749155 622.761423749155 120.0 625.0 120.0 L 635.0 120.0 C 637.238576250845 120.0 640.0 117.238576250845 640.0 115.0 L 640 100" fill="none" stroke="#111111" stroke-width="9" /><path d="M 680 680 L 680 680 L 660 680 L 640 680 L 625.0 680.0 C 622.761423749155 680.0 620.0 677.238576250845 620.0 675.0 L 620.0 665.0 C 620.0 662.761423749155 622.761423749155 660.0 625.0 660.0 L 640 660 L 660 660 L 675.0 660.0 C 677.238576250845 660.0 680.0 657.238576250845 680.0 655.0 L 680 640 L 680.0 625.0 C 680.0 622.761423749155 677.238576250845 620.0 675.0 620.0 L 660 620 L 640 620 L 625.0 620.0 C 622.761423749155 620.0 620.0 617.238576250845 620.0 615.0 L 620 600 L 620.0 585.0 C 620.0 582.761423749155 622.761423749155 580.0 625.0 580.0 L 640 580 L 655.0 580.0 C 657.238576250845 580.0 660.0 577.238576250845 660.0 575.0 L 660.0 565.0 C 660.0 562.761423749155 657.238576250845 560.0 655.0 560.0 L 640 560 L 625.0 560.0 C 622.761423749155 560.0 620.0 557.238576250845 620.0 555.0 L 620 540 L 620 520 L 620 500 L 620 480 L 620.0 465.0 C 620.0 462.761423749155 622.761423749155 460.0 625.0 460.0 L 640 460 L 655.0 460.0 C 657.238576250845 460.0 660.0 457.238576250845 660.0 455.0 L 660.0 445.0 C 660.0 442.761423749155 657.238576250845 440.0 655.0 440.0 L 640 440 L 625.0 440.0 C 622.761423749155 440.0 620.0 437.238576250845 620.0 435.0 L 620.0 425.0 C 620.0 422.761423749155 622.761423749155 420.0 625.0 420.0 L 640 420 L 655.0 420.0 C 657.238576250845 420.0 660.0 417.238576250845 660.0 415.0 L 660 400 L 660.0 385.0 C 660.0 382.761423749155 657.238576250845 380.0 655.0 380.0 L 640 380 L 625.0 380.0 C 622.761423749155 380.0 620.0 377.238576250845 620.0 375.0 L 620.0 365.0 C 620.0 362.761423749155 622.761423749155 360.0 625.0 360.0 L 640 360 L 655.0 360.0 C 657.238576250845 360.0 660.0 357.238576250845 660.0 355.0 L 660 340 L 660 320 L 660 300 L 660 280 L 660.0 265.0 C 660.0 262.761423749155 657.238576250845 260.0 655.0 260.0 L 640 260 L 625.0 260.0 C 622.761423749155 260.0 620.0 257.238576250845 620.0 255.0 L 620 240 L 620 220 L 620 200 L 620 180 L 620 160 L 620 140 L 620.0 125.0 C 620.0 122.761423749155 622.761423749155 120.0 625.0 120.0 L 635.0 120.0 C 637.238576250845 120.0 640.0 117.238576250845 640.0 115.0 L 640 100" fill="none" stroke="#9b59b6" stroke-width="3" /><path d="M 634.0 100.0 L 640.0 90.0 L 646.0 100.0" fill="#9b59b6" /><circle cx="680" cy="680" fill="#9b59b6" r="5" /></g><g><path d="M 420 80 L 420 80 L 440 80 L 455.0 80.0 C 457.238576250845 80.0 460.0 82.761423749155 460.0 85.0 L 460 100 L 460 120 L 460 140 L 460.0 155.0 C 460.0 157.238576250845 462.761423749155 160.0 465.0 160.0 L 480 160 L 495.0 160.0 C 497.238576250845 160.0 500.0 162.761423749155 500.0 165.0 L 500.0 175.0 C 500.0 177.238576250845 502.761423749155 180.0 505.0 180.0 L 520 180 L 540 180 L 555.0 180.0 C 557.238576250845 180.0 560.0 182.761423749155 560.0 185.0 L 560 200 L 560 220 L 560 240 L 560.0 255.0 C 560.0 257.238576250845 562.761423749155 260.0 565.0 260.0 L 580 260 L 595.0 260.0 C 597.238576250845 260.0 600.0 262.761423749155 600.0 265.0 L 600 280 L 600 300 L 600.0 315.0 C 600.0 317.238576250845 597.238576250845 320.0 595.0 320.0 L 585.0 320.0 C 582.761423749155 320.0 580.0 322.761423749155 580.0 325.0 L 580.0 335.0 C 580.0 337.238576250845 577.238576250845 340.0 575.0 340.0 L 565.0 340.0 C 562.761423749155 340.0 560.0 342.761423749155 560.0 345.0 L 560 360 L 560 380 L 560.0 395.0 C 560.0 397.238576250845 562.761423749155 400.0 565.0 400.0 L 580 400 L 595.0 400.0 C 597.238576250845 400.0 600.0 402.761423749155 600.0 405.0 L 600 420 L 600 440 L 600 460 L 600.0 475.0 C 600.0 477.238576250845 602.761423749155 480.0 605.0 480.0 L 620 480 L 640 480 L 660 480 L 675.0 480.0 C 677.238576250845 480.0 680.0 477.238576250845 680.0 475.0 L 680.0 465.0 C 680.0 462.761423749155 682.761423749155 460.0 685.0 460.0 L 695.0 460.0 C 697.238576250845 460.0 700.0 457.238576250845 700.0 455.0 L 700.0 445.0 C 700.0 442.761423749155 702.761423749155 440.0 705.0 440.0 L 720 440 L 735.0 440.0 C 737.238576250845 440.0 740.0 442.761423749155 740.0 445.0 L 740 460 L 740 480 L 740 500 L 740 520 L 740 540 L 740 560 L 740 580 L 740 600 L 740 620 L 740 640 L 740 660 L 740 680 L 740 700 L 740 720 L 740 740 L 740 760 L 740 780" fill="none" stroke="#111111" stroke-width="9" /><path d="M 420 80 L 420 80 L 440 80 L 455.0 80.0 C 457.238576250845 80.0 460.0 82.761423749155 460.0 85.0 L 460 100 L 460 120 L 460 140 L 460.0 155.0 C 460.0 157.238576250845 462.761423749155 160.0 465.0 160.0 L 480 160 L 495.0 160.0 C 497.238576250845 160.0 500.0 162.761423749155 500.0 165.0 L 500.0 175.0 C 500.0 177.238576250845 502.761423749155 180.0 505.0 180.0 L 520 180 L 540 180 L 555.0 180.0 C 557.238576250845 180.0 560.0 182.761423749155 560.0 185.0 L 560 200 L 560 220 L 560 240 L 560.0 255.0 C 560.0 257.238576250845 562.761423749155 260.0 565.0 260.0 L 580 260 L 595.0 260.0 C 597.238576250845 260.0 600.0 262.761423749155 600.0 265.0 L 600 280 L 600 300 L 600.0 315.0 C 600.0 317.238576250845 597.238576250845 320.0 595.0 320.0 L 585.0 320.0 C 582.761423749155 320.0 580.0 322.761423749155 580.0 325.0 L 580.0 335.0 C 580.0 337.238576250845 577.238576250845 340.0 575.0 340.0 L 565.0 340.0 C 562.761423749155 340.0 560.0 342.761423749155 560.0 345.0 L 560 360 L 560 380 L 560.0 395.0 C 560.0 397.238576250845 562.761423749155 400.0 565.0 400.0 L 580 400 L 595.0 400.0 C 597.238576250845 400.0 600.0 402.761423749155 600.0 405.0 L 600 420 L 600 440 L 600 460 L 600.0 475.0 C 600.0 477.238576250845 602.761423749155 480.0 605.0 480.0 L 620 480 L 640 480 L 660 480 L 675.0 480.0 C 677.238576250845 480.0 680.0 477.238576250845 680.0 475.0 L 680.0 465.0 C 680.0 462.761423749155 682.761423749155 460.0 685.0 460.0 L 695.0 460.0 C 697.238576250845 460.0 700.0 457.238576250845 700.0 455.0 L 700.0 445.0 C 700.0 442.761423749155 702.761423749155 440.0 705.0 440.0 L 720 440 L 735.0 440.0 C 737.238576250845 440.0 740.0 442.761423749155 740.0 445.0 L 740 460 L 740 480 L 740 500 L 740 520 L 740 540 L 740 560 L 740 580 L 740 600 L 740 620 L 740 640 L 740 660 L 740 680 L 740 700 L 740 720 L 740 740 L 740 760 L 740 780" fill="none" stroke="#e74c3c" stroke-width="3" /><path d="M 746.0 780.0 L 740.0 790.0 L 734.0 780.0" fill="#e74c3c" /><circle cx="420" cy="80" fill="#e74c3c" r="5" /></g></svg>