<?xml version="1.0" encoding="utf-8" ?>
<svg baseProfile="full" height="100%" version="1.1" width="100%" xmlns="http://www.w3.org/2000/svg" xmlns:ev="http://www.w3.org/2001/xml-events" xmlns:xlink="http://www.w3.org/1999/xlink"><defs /><rect fill="#111111" height="100%" width="100%" x="0" y="0" /><circle cx="20" cy="40" fill="white" r="1" /><circle cx="20" cy="80" fill="white" r="1" /><circle cx="20" cy="120" fill="white" r="1" /><circle cx="20" cy="160" fill="white" r="1" /><circle cx="20" cy="200" fill="white" r="1" /><circle cx="20" cy="240" fill="white" r="1" /><circle cx="20" cy="280" fill="white" r="1" /><circle cx="20" cy="320" fill="white" r="1" /><circle cx="20" cy="360" fill="white" r="1" /><circle cx="20" cy="400" fill="white" r="1" /><circle cx="20" cy="440" fill="white" r="1" /><circle cx="20" cy="480" fill="white" r="1" /><circle cx="20" cy="520" fill="white" r="1" /><circle cx="20" cy="560" fill="white" r="1" /><circle cx="20" cy="600" fill="white" r="1" /><circle cx="20" cy="640" fill="white" r="1" /><circle cx="20" cy="680" fill="white" r="1" /><circle cx="20" cy="720" fill="white" r="1" /><circle cx="20" cy="760" fill="white" r="1" /><circle cx="20" cy="800" fill="white" r="1" /><circle cx="20" cy="840" fill="white" r="1" /><circle cx="40" cy="40" fill="white" r="1" /><circle cx="40" cy="80" fill="white" r="1" /><circle cx="40" cy="120" fill="white" r="1" /><circle cx="40" cy="160" fill="white" r="1" /><circle cx="40" cy="200" fill="white" r="1" /><circle cx="40" cy="240" fill="white" r="1" /><circle cx="40" cy="280" fill="white" r="1" /><circle cx="40" cy="320" fill="white" r="1" /><circle cx="40" cy="360" fill="white" r="1" /><circle cx="40" cy="400" fill="white" r="1" /><circle cx="40" cy="440" fill="white" r="1" /><circle cx="40" cy="480" fill="white" r="1" /><circle cx="40" cy="520" fill="white" r="1" /><circle cx="40" cy="560" fill="white" r="1" /><circle cx="40" cy="600" fill="white" r="1" /><circle cx="40" cy="640" fill="white" r="1" /><circle cx="40" cy="680" fill="white" r="1" /><circle cx="40" cy="720" fill="white" r="1" /><circle cx="40" cy="760" fill="white" r="1" /><circle cx="40" cy="800" fill="white" r="1" /><circle cx="40" cy="840" fill="white" r="1" /><circle cx="60" cy="40" fill="white" r="1" /><circle cx="60" cy="80" fill="white" r="1" /><circle cx="60" cy="120" fill="white" r="1" /><circle cx="60" cy="160" fill="white" r="1" /><circle cx="60" cy="200" fill="white" r="1" /><circle cx="60" cy="240" fill="white" r="1" /><circle cx="60" cy="280" fill="white" r="1" /><circle cx="60" cy="320" fill="white" r="1" /><circle cx="60" cy="360" fill="white" r="1" /><circle cx="60" cy="400" fill="white" r="1" /><circle cx="60" cy="440" fill="white" r="1" /><circle cx="60" cy="480" fill="white" r="1" /><circle cx="60" cy="520" fill="white" r="1" /><circle cx="60" cy="560" fill="white" r="1" /><circle cx="60" cy="600" fill="white" r="1" /><circle cx="60" cy="640" fill="white" r="1" /><circle cx="60" cy="680" fill="white" r="1" /><circle cx="60" cy="720" fill="white" r="1" /><circle cx="60" cy="760" fill="white" r="1" /><circle cx="60" cy="800" fill="white" r="1" /><circle cx="60" cy="840" fill="white" r="1" /><circle cx="80" cy="40" fill="white" r="1" /><circle cx="80" cy="80" fill="white" r="1" /><circle cx="80" cy="120" fill="white" r="1" /><circle cx="80" cy="160" fill="white" r="1" /><circle cx="80" cy="200" fill="white" r="1" /><circle cx="80" cy="240" fill="white" r="1" /><circle cx="80" cy="280" fill="white" r="1" /><circle cx="80" cy="320" fill="white" r="1" /><circle cx="80" cy="360" fill="white" r="1" /><circle cx="80" cy="400" fill="white" r="1" /><circle cx="80" cy="440" fill="white" r="1" /><circle cx="80" cy="480" fill="white" r="1" /><circle cx="80" cy="520" fill="white" r="1" /><circle cx="80" cy="560" fill="white" r="1" /><circle cx="80" cy="600" fill="white" r="1" /><circle cx="80" cy="640" fill="white" r="1" /><circle cx="80" cy="680" fill="white" r="1" /><circle cx="80" cy="720" fill="white" r="1" /><circle cx="80" cy="760" fill="white" r="1" /><circle cx="80" cy="800" fill="white" r="1" /><circle cx="80" cy="840" fill="white" r="1" /><circle cx="100" cy="40" fill="white" r="1" /><circle cx="100" cy="80" fill="white" r="1" /><circle cx="100" cy="120" fill="white" r="1" /><circle cx="100" cy="160" fill="white" r="1" /><circle cx="100" cy="200" fill="white" r="1" /><circle cx="100" cy="240" fill="white" r="1" /><circle cx="100" cy="280" fill="white" r="1" /><circle cx="100" cy="320" fill="white" r="1" /><circle cx="100" cy="360" fill="white" r="1" /><circle cx="100" cy="400" fill="white" r="1" /><circle cx="100" cy="440" fill="white" r="1" /><circle cx="100" cy="480" fill="white" r="1" /><circle cx="100" cy="520" fill="white" r="1" /><circle cx="100" cy="560" fill="white" r="1" /><circle cx="100" cy="600" fill="white" r="1" /><circle cx="100" cy="640" fill="white" r="1" /><circle cx="100" cy="680" fill="white" r="1" /><circle cx="100" cy="720" fill="white" r="1" /><circle cx="100" cy="760" fill="white" r="1" /><circle cx="100" cy="800" fill="white" r="1" /><circle cx="100" cy="840" fill="white" r="1" /><circle cx="120" cy="40" fill="white" r="1" /><circle cx="120" cy="80" fill="white" r="1" /><circle cx="120" cy="120" fill="white" r="1" /><circle cx="120" cy="160" fill="white" r="1" /><circle cx="120" cy="200" fill="white" r="1" /><circle cx="120" cy="240" fill="white" r="1" /><circle cx="120" cy="280" fill="white" r="1" /><circle cx="120" cy="320" fill="white" r="1" /><circle cx="120" cy="360" fill="white" r="1" /><circle cx="120" cy="400" fill="white" r="1" /><circle cx="120" cy="440" fill="white" r="1" /><circle cx="120" cy="480" fill="white" r="1" /><circle cx="120" cy="520" fill="white" r="1" /><circle cx="120" cy="560" fill="white" r="1" /><circle cx="120" cy="600" fill="white" r="1" /><circle cx="120" cy="640" fill="white" r="1" /><circle cx="120" cy="680" fill="white" r="1" /><circle cx="120" cy="720" fill="white" r="1" /><circle cx="120" cy="760" fill="white" r="1" /><circle cx="120" cy="800" fill="white" r="1" /><circle cx="120" cy="840" fill="white" r="1" /><circle cx="140" cy="40" fill="white" r="1" /><circle cx="140" cy="80" fill="white" r="1" /><circle cx="140" cy="120" fill="white" r="1" /><circle cx="140" cy="160" fill="white" r="1" /><circle cx="140" cy="200" fill="white" r="1" /><circle cx="140" cy="240" fill="white" r="1" /><circle cx="140" cy="280" fill="white" r="1" /><circle cx="140" cy="320" fill="white" r="1" /><circle cx="140" cy="360" fill="white" r="1" /><circle cx="140" cy="400" fill="white" r="1" /><circle cx="140" cy="440" fill="white" r="1" /><circle cx="140" cy="480" fill="white" r="1" /><circle cx="140" cy="520" fill="white" r="1" /><circle cx="140" cy="560" fill="white" r="1" /><circle cx="140" cy="600" fill="white" r="1" /><circle cx="140" cy="640" fill="white" r="1" /><circle cx="140" cy="680" fill="white" r="1" /><circle cx="140" cy="720" fill="white" r="1" /><circle cx="140" cy="760" fill="white" r="1" /><circle cx="140" cy="800" fill="white" r="1" /><circle cx="140" cy="840" fill="white" r="1" /><circle cx="160" cy="40" fill="white" r="1" /><circle cx="160" cy="80" fill="white" r="1" /><circle cx="160" cy="120" fill="white" r="1" /><circle cx="160" cy="160" fill="white" r="1" /><circle cx="160" cy="200" fill="white" r="1" /><circle cx="160" cy="240" fill="white" r="1" /><circle cx="160" cy="280" fill="white" r="1" /><circle cx="160" cy="320" fill="white" r="1" /><circle cx="160" cy="360" fill="white" r="1" /><circle cx="160" cy="400" fill="white" r="1" /><circle cx="160" cy="440" fill="white" r="1" /><circle cx="160" cy="480" fill="white" r="1" /><circle cx="160" cy="520" fill="white" r="1" /><circle cx="160" cy="560" fill="white" r="1" /><circle cx="160" cy="600" fill="white" r="1" /><circle cx="160" cy="640" fill="white" r="1" /><circle cx="160" cy="680" fill="white" r="1" /><circle cx="160" cy="720" fill="white" r="1" /><circle cx="160" cy="760" fill="white" r="1" /><circle cx="160" cy="800" fill="white" r="1" /><circle cx="160" cy="840" fill="white" r="1" /><circle cx="180" cy="40" fill="white" r="1" /><circle cx="180" cy="80" fill="white" r="1" /><circle cx="180" cy="120" fill="white" r="1" /><circle cx="180" cy="160" fill="white" r="1" /><circle cx="180" cy="200" fill="white" r="1" /><circle cx="180" cy="240" fill="white" r="1" /><circle cx="180" cy="280" fill="white" r="1" /><circle cx="180" cy="320" fill="white" r="1" /><circle cx="180" cy="360" fill="white" r="1" /><circle cx="180" cy="400" fill="white" r="1" /><circle cx="180" cy="440" fill="white" r="1" /><circle cx="180" cy="480" fill="white" r="1" /><circle cx="180" cy="520" fill="white" r="1" /><circle cx="180" cy="560" fill="white" r="1" /><circle cx="180" cy="600" fill="white" r="1" /><circle cx="180" cy="640" fill="white" r="1" /><circle cx="180" cy="680" fill="white" r="1" /><circle cx="180" cy="720" fill="white" r="1" /><circle cx="180" cy="760" fill="white" r="1" /><circle cx="180" cy="800" fill="white" r="1" /><circle cx="180" cy="840" fill="white" r="1" /><circle cx="200" cy="40" fill="white" r="1" /><circle cx="200" cy="80" fill="white" r="1" /><circle cx="200" cy="120" fill="white" r="1" /><circle cx="200" cy="160" fill="white" r="1" /><circle cx="200" cy="200" fill="white" r="1" /><circle cx="200" cy="240" fill="white" r="1" /><circle cx="200" cy="280" fill="white" r="1" /><circle cx="200" cy="320" fill="white" r="1" /><circle cx="200" cy="360" fill="white" r="1" /><circle cx="200" cy="400" fill="white" r="1" /><circle cx="200" cy="440" fill="white" r="1" /><circle cx="200" cy="480" fill="white" r="1" /><circle cx="200" cy="520" fill="white" r="1" /><circle cx="200" cy="560" fill="white" r="1" /><circle cx="200" cy="600" fill="white" r="1" /><circle cx="200" cy="640" fill="white" r="1" /><circle cx="200" cy="680" fill="white" r="1" /><circle cx="200" cy="720" fill="white" r="1" /><circle cx="200" cy="760" fill="white" r="1" /><circle cx="200" cy="800" fill="white" r="1" /><circle cx="200" cy="840" fill="white" r="1" /><circle cx="220" cy="40" fill="white" r="1" /><circle cx="220" cy="80" fill="white" r="1" /><circle cx="220" cy="120" fill="white" r="1" /><circle cx="220" cy="160" fill="white" r="1" /><circle cx="220" cy="200" fill="white" r="1" /><circle cx="220" cy="240" fill="white" r="1" /><circle cx="220" cy="280" fill="white" r="1" /><circle cx="220" cy="320" fill="white" r="1" /><circle cx="220" cy="360" fill="white" r="1" /><circle cx="220" cy="400" fill="white" r="1" /><circle cx="220" cy="420" fill="white" r="1" /><circle cx="220" cy="460" fill="white" r="1" /><circle cx="220" cy="500" fill="white" r="1" /><circle cx="220" cy="540" fill="white" r="1" /><circle cx="220" cy="580" fill="white" r="1" /><circle cx="220" cy="620" fill="white" r="1" /><circle cx="220" cy="660" fill="white" r="1" /><circle cx="220" cy="700" fill="white" r="1" /><circle cx="220" cy="740" fill="white" r="1" /><circle cx="220" cy="780" fill="white" r="1" /><circle cx="220" cy="820" fill="white" r="1" /><circle cx="240" cy="20" fill="white" r="1" /><circle cx="240" cy="60" fill="white" r="1" /><circle cx="240" cy="100" fill="white" r="1" /><circle cx="240" cy="140" fill="white" r="1" /><circle cx="240" cy="180" fill="white" r="1" /><circle cx="240" cy="220" fill="white" r="1" /><circle cx="240" cy="260" fill="white" r="1" /><circle cx="240" cy="300" fill="white" r="1" /><circle cx="240" cy="340" fill="white" r="1" /><circle cx="240" cy="360" fill="white" r="1" /><circle cx="240" cy="380" fill="white" r="1" /><circle cx="240" cy="400" fill="white" r="1" /><circle cx="240" cy="420" fill="white" r="1" /><circle cx="240" cy="440" fill="white" r="1" /><circle cx="240" cy="460" fill="white" r="1" /><circle cx="240" cy="480" fill="white" r="1" /><circle cx="240" cy="500" fill="white" r="1" /><circle cx="240" cy="540" fill="white" r="1" /><circle cx="240" cy="580" fill="white" r="1" /><circle cx="240" cy="620" fill="white" r="1" /><circle cx="240" cy="660" fill="white" r="1" /><circle cx="240" cy="700" fill="white" r="1" /><circle cx="240" cy="740" fill="white" r="1" /><circle cx="240" cy="780" fill="white" r="1" /><circle cx="240" cy="820" fill="white" r="1" /><circle cx="260" cy="20" fill="white" r="1" /><circle cx="260" cy="60" fill="white" r="1" /><circle cx="260" cy="100" fill="white" r="1" /><circle cx="260" cy="140" fill="white" r="1" /><circle cx="260" cy="180" fill="white" r="1" /><circle cx="260" cy="220" fill="white" r="1" /><circle cx="260" cy="260" fill="white" r="1" /><circle cx="260" cy="300" fill="white" r="1" /><circle cx="260" cy="320" fill="white" r="1" /><circle cx="260" cy="340" fill="white" r="1" /><circle cx="260" cy="360" fill="white" r="1" /><circle cx="260" cy="380" fill="white" r="1" /><circle cx="260" cy="400" fill="white" r="1" /><circle cx="260" cy="420" fill="white" r="1" /><circle cx="260" cy="440" fill="white" r="1" /><circle cx="260" cy="460" fill="white" r="1" /><circle cx="260" cy="480" fill="white" r="1" /><circle cx="260" cy="500" fill="white" r="1" /><circle cx="260" cy="520" fill="white" r="1" /><circle cx="260" cy="540" fill="white" r="1" /><circle cx="260" cy="580" fill="white" r="1" /><circle cx="260" cy="620" fill="white" r="1" /><circle cx="260" cy="660" fill="white" r="1" /><circle cx="260" cy="700" fill="white" r="1" /><circle cx="260" cy="740" fill="white" r="1" /><circle cx="260" cy="780" fill="white" r="1" /><circle cx="260" cy="820" fill="white" r="1" /><circle cx="280" cy="20" fill="white" r="1" /><circle cx="280" cy="60" fill="white" r="1" /><circle cx="280" cy="100" fill="white" r="1" /><circle cx="280" cy="140" fill="white" r="1" /><circle cx="280" cy="180" fill="white" r="1" /><circle cx="280" cy="220" fill="white" r="1" /><circle cx="280" cy="260" fill="white" r="1" /><circle cx="280" cy="280" fill="white" r="1" /><circle cx="280" cy="300" fill="white" r="1" /><circle cx="280" cy="320" fill="white" r="1" /><circle cx="280" cy="340" fill="white" r="1" /><circle cx="280" cy="360" fill="white" r="1" /><circle cx="280" cy="380" fill="white" r="1" /><circle cx="280" cy="400" fill="white" r="1" /><circle cx="280" cy="420" fill="white" r="1" /><circle cx="280" cy="440" fill="white" r="1" /><circle cx="280" cy="460" fill="white" r="1" /><circle cx="280" cy="480" fill="white" r="1" /><circle cx="280" cy="500" fill="white" r="1" /><circle cx="280" cy="520" fill="white" r="1" /><circle cx="280" cy="540" fill="white" r="1" /><circle cx="280" cy="560" fill="white" r="1" /><circle cx="280" cy="600" fill="white" r="1" /><circle cx="280" cy="640" fill="white" r="1" /><circle cx="280" cy="680" fill="white" r="1" /><circle cx="280" cy="720" fill="white" r="1" /><circle cx="280" cy="760" fill="white" r="1" /><circle cx="280" cy="800" fill="white" r="1" /><circle cx="280" cy="840" fill="white" r="1" /><circle cx="300" cy="40" fill="white" r="1" /><circle cx="300" cy="80" fill="white" r="1" /><circle cx="300" cy="120" fill="white" r="1" /><circle cx="300" cy="160" fill="white" r="1" /><circle cx="300" cy="200" fill="white" r="1" /><circle cx="300" cy="240" fill="white" r="1" /><circle cx="300" cy="260" fill="white" r="1" /><circle cx="300" cy="280" fill="white" r="1" /><circle cx="300" cy="300" fill="white" r="1" /><circle cx="300" cy="320" fill="white" r="1" /><circle cx="300" cy="340" fill="white" r="1" /><circle cx="300" cy="360" fill="white" r="1" /><circle cx="300" cy="380" fill="white" r="1" /><circle cx="300" cy="400" fill="white" r="1" /><circle cx="300" cy="420" fill="white" r="1" /><circle cx="300" cy="440" fill="white" r="1" /><circle cx="300" cy="460" fill="white" r="1" /><circle cx="300" cy="480" fill="white" r="1" /><circle cx="300" cy="500" fill="white" r="1" /><circle cx="300" cy="520" fill="white" r="1" /><circle cx="300" cy="540" fill="white" r="1" /><circle cx="300" cy="560" fill="white" r="1" /><circle cx="300" cy="580" fill="white" r="1" /><circle cx="300" cy="620" fill="white" r="1" /><circle cx="300" cy="660" fill="white" r="1" /><circle cx="300" cy="700" fill="white" r="1" /><circle cx="300" cy="740" fill="white" r="1" /><circle cx="300" cy="780" fill="white" r="1" /><circle cx="300" cy="820" fill="white" r="1" /><circle cx="320" cy="20" fill="white" r="1" /><circle cx="320" cy="60" fill="white" r="1" /><circle cx="320" cy="100" fill="white" r="1" /><circle cx="320" cy="140" fill="white" r="1" /><circle cx="320" cy="180" fill="white" r="1" /><circle cx="320" cy="220" fill="white" r="1" /><circle cx="320" cy="260" fill="white" r="1" /><circle cx="320" cy="280" fill="white" r="1" /><circle cx="320" cy="300" fill="white" r="1" /><circle cx="320" cy="320" fill="white" r="1" /><circle cx="320" cy="340" fill="white" r="1" /><circle cx="320" cy="360" fill="white" r="1" /><circle cx="320" cy="380" fill="white" r="1" /><circle cx="320" cy="400" fill="white" r="1" /><circle cx="320" cy="420" fill="white" r="1" /><circle cx="320" cy="440" fill="white" r="1" /><circle cx="320" cy="460" fill="white" r="1" /><circle cx="320" cy="480" fill="white" r="1" /><circle cx="320" cy="500" fill="white" r="1" /><circle cx="320" cy="520" fill="white" r="1" /><circle cx="320" cy="540" fill="white" r="1" /><circle cx="320" cy="560" fill="white" r="1" /><circle cx="320" cy="580" fill="white" r="1" /><circle cx="320" cy="620" fill="white" r="1" /><circle cx="320" cy="660" fill="white" r="1" /><circle cx="320" cy="700" fill="white" r="1" /><circle cx="320" cy="740" fill="white" r="1" /><circle cx="320" cy="780" fill="white" r="1" /><circle cx="320" cy="820" fill="white" r="1" /><circle cx="340" cy="20" fill="white" r="1" /><circle cx="340" cy="60" fill="white" r="1" /><circle cx="340" cy="100" fill="white" r="1" /><circle cx="340" cy="140" fill="white" r="1" /><circle cx="340" cy="180" fill="white" r="1" /><circle cx="340" cy="220" fill="white" r="1" /><circle cx="340" cy="240" fill="white" r="1" /><circle cx="340" cy="260" fill="white" r="1" /><circle cx="340" cy="280" fill="white" r="1" /><circle cx="340" cy="300" fill="white" r="1" /><circle cx="340" cy="320" fill="white" r="1" /><circle cx="340" cy="340" fill="white" r="1" /><circle cx="340" cy="360" fill="white" r="1" /><circle cx="340" cy="380" fill="white" r="1" /><circle cx="340" cy="400" fill="white" r="1" /><circle cx="340" cy="420" fill="white" r="1" /><circle cx="340" cy="440" fill="white" r="1" /><circle cx="340" cy="460" fill="white" r="1" /><circle cx="340" cy="480" fill="white" r="1" /><circle cx="340" cy="500" fill="white" r="1" /><circle cx="340" cy="520" fill="white" r="1" /><circle cx="340" cy="540" fill="white" r="1" /><circle cx="340" cy="560" fill="white" r="1" /><circle cx="340" cy="580" fill="white" r="1" /><circle cx="340" cy="600" fill="white" r="1" /><circle cx="340" cy="640" fill="white" r="1" /><circle cx="340" cy="680" fill="white" r="1" /><circle cx="340" cy="720" fill="white" r="1" /><circle cx="340" cy="760" fill="white" r="1" /><circle cx="340" cy="800" fill="white" r="1" /><circle cx="340" cy="840" fill="white" r="1" /><circle cx="360" cy="40" fill="white" r="1" /><circle cx="360" cy="80" fill="white" r="1" /><circle cx="360" cy="120" fill="white" r="1" /><circle cx="360" cy="160" fill="white" r="1" /><circle cx="360" cy="200" fill="white" r="1" /><circle cx="360" cy="240" fill="white" r="1" /><circle cx="360" cy="260" fill="white" r="1" /><circle cx="360" cy="280" fill="white" r="1" /><circle cx="360" cy="300" fill="white" r="1" /><circle cx="360" cy="320" fill="white" r="1" /><circle cx="360" cy="340" fill="white" r="1" /><circle cx="360" cy="360" fill="white" r="1" /><circle cx="360" cy="380" fill="white" r="1" /><circle cx="360" cy="400" fill="white" r="1" /><circle cx="360" cy="420" fill="white" r="1" /><circle cx="360" cy="440" fill="white" r="1" /><circle cx="360" cy="460" fill="white" r="1" /><circle cx="360" cy="480" fill="white" r="1" /><circle cx="360" cy="500" fill="white" r="1" /><circle cx="360" cy="520" fill="white" r="1" /><circle cx="360" cy="540" fill="white" r="1" /><circle cx="360" cy="560" fill="white" r="1" /><circle cx="360" cy="580" fill="white" r="1" /><circle cx="360" cy="600" fill="white" r="1" /><circle cx="360" cy="640" fill="white" r="1" /><circle cx="360" cy="680" fill="white" r="1" /><circle cx="360" cy="720" fill="white" r="1" /><circle cx="360" cy="760" fill="white" r="1" /><circle cx="360" cy="800" fill="white" r="1" /><circle cx="360" cy="840" fill="white" r="1" /><circle cx="380" cy="40" fill="white" r="1" /><circle cx="380" cy="80" fill="white" r="1" /><circle cx="380" cy="120" fill="white" r="1" /><circle cx="380" cy="160" fill="white" r="1" /><circle cx="380" cy="200" fill="white" r="1" /><circle cx="380" cy="240" fill="white" r="1" /><circle cx="380" cy="260" fill="white" r="1" /><circle cx="380" cy="280" fill="white" r="1" /><circle cx="380" cy="300" fill="white" r="1" /><circle cx="380" cy="320" fill="white" r="1" /><circle cx="380" cy="340" fill="white" r="1" /><circle cx="380" cy="360" fill="white" r="1" /><circle cx="380" cy="380" fill="white" r="1" /><circle cx="380" cy="400" fill="white" r="1" /><circle cx="380" cy="420" fill="white" r="1" /><circle cx="380" cy="440" fill="white" r="1" /><circle cx="380" cy="460" fill="white" r="1" /><circle cx="380" cy="480" fill="white" r="1" /><circle cx="380" cy="500" fill="white" r="1" /><circle cx="380" cy="520" fill="white" r="1" /><circle cx="380" cy="540" fill="white" r="1" /><circle cx="380" cy="560" fill="white" r="1" /><circle cx="380" cy="580" fill="white" r="1" /><circle cx="380" cy="600" fill="white" r="1" /><circle cx="380" cy="640" fill="white" r="1" /><circle cx="380" cy="680" fill="white" r="1" /><circle cx="380" cy="720" fill="white" r="1" /><circle cx="380" cy="760" fill="white" r="1" /><circle cx="380" cy="800" fill="white" r="1" /><circle cx="380" cy="840" fill="white" r="1" /><circle cx="400" cy="40" fill="white" r="1" /><circle cx="400" cy="80" fill="white" r="1" /><circle cx="400" cy="120" fill="white" r="1" /><circle cx="400" cy="160" fill="white" r="1" /><circle cx="400" cy="200" fill="white" r="1" /><circle cx="400" cy="240" fill="white" r="1" /><circle cx="400" cy="260" fill="white" r="1" /><circle cx="400" cy="280" fill="white" r="1" /><circle cx="400" cy="300" fill="white" r="1" /><circle cx="400" cy="320" fill="white" r="1" /><circle cx="400" cy="340" fill="white" r="1" /><circle cx="400" cy="360" fill="white" r="1" /><circle cx="400" cy="380" fill="white" r="1" /><circle cx="400" cy="400" fill="white" r="1" /><circle cx="400" cy="420" fill="white" r="1" /><circle cx="400" cy="440" fill="white" r="1" /><circle cx="400" cy="460" fill="white" r="1" /><circle cx="400" cy="480" fill="white" r="1" /><circle cx="400" cy="500" fill="white" r="1" /><circle cx="400" cy="520" fill="white" r="1" /><circle cx="400" cy="540" fill="white" r="1" /><circle cx="400" cy="560" fill="white" r="1" /><circle cx="400" cy="580" fill="white" r="1" /><circle cx="400" cy="600" fill="white" r="1" /><circle cx="400" cy="640" fill="white" r="1" /><circle cx="400" cy="680" fill="white" r="1" /><circle cx="400" cy="720" fill="white" r="1" /><circle cx="400" cy="760" fill="white" r="1" /><circle cx="400" cy="800" fill="white" r="1" /><circle cx="400" cy="840" fill="white" r="1" /><circle cx="420" cy="40" fill="white" r="1" /><circle cx="420" cy="80" fill="white" r="1" /><circle cx="420" cy="120" fill="white" r="1" /><circle cx="420" cy="160" fill="white" r="1" /><circle cx="420" cy="200" fill="white" r="1" /><circle cx="420" cy="220" fill="white" r="1" /><circle cx="420" cy="240" fill="white" r="1" /><circle cx="420" cy="260" fill="white" r="1" /><circle cx="420" cy="280" fill="white" r="1" /><circle cx="420" cy="300" fill="white" r="1" /><circle cx="420" cy="320" fill="white" r="1" /><circle cx="420" cy="340" fill="white" r="1" /><circle cx="420" cy="360" fill="white" r="1" /><circle cx="420" cy="380" fill="white" r="1" /><circle cx="420" cy="400" fill="white" r="1" /><circle cx="420" cy="420" fill="white" r="1" /><circle cx="420" cy="440" fill="white" r="1" /><circle cx="420" cy="460" fill="white" r="1" /><circle cx="420" cy="480" fill="white" r="1" /><circle cx="420" cy="500" fill="white" r="1" /><circle cx="420" cy="520" fill="white" r="1" /><circle cx="420" cy="540" fill="white" r="1" /><circle cx="420" cy="560" fill="white" r="1" /><circle cx="420" cy="580" fill="white" r="1" /><circle cx="420" cy="600" fill="white" r="1" /><circle cx="420" cy="620" fill="white" r="1" /><circle cx="420" cy="660" fill="white" r="1" /><circle cx="420" cy="700" fill="white" r="1" /><circle cx="420" cy="740" fill="white" r="1" /><circle cx="420" cy="780" fill="white" r="1" /><circle cx="420" cy="820" fill="white" r="1" /><circle cx="440" cy="20" fill="white" r="1" /><circle cx="440" cy="60" fill="white" r="1" /><circle cx="440" cy="100" fill="white" r="1" /><circle cx="440" cy="140" fill="white" r="1" /><circle cx="440" cy="180" fill="white" r="1" /><circle cx="440" cy="220" fill="white" r="1" /><circle cx="440" cy="240" fill="white" r="1" /><circle cx="440" cy="260" fill="white" r="1" /><circle cx="440" cy="280" fill="white" r="1" /><circle cx="440" cy="300" fill="white" r="1" /><circle cx="440" cy="320" fill="white" r="1" /><circle cx="440" cy="340" fill="white" r="1" /><circle cx="440" cy="360" fill="white" r="1" /><circle cx="440" cy="380" fill="white" r="1" /><circle cx="440" cy="400" fill="white" r="1" /><circle cx="440" cy="420" fill="white" r="1" /><circle cx="440" cy="440" fill="white" r="1" /><circle cx="440" cy="460" fill="white" r="1" /><circle cx="440" cy="480" fill="white" r="1" /><circle cx="440" cy="500" fill="white" r="1" /><circle cx="440" cy="520" fill="white" r="1" /><circle cx="440" cy="540" fill="white" r="1" /><circle cx="440" cy="560" fill="white" r="1" /><circle cx="440" cy="580" fill="white" r="1" /><circle cx="440" cy="600" fill="white" r="1" /><circle cx="440" cy="640" fill="white" r="1" /><circle cx="440" cy="680" fill="white" r="1" /><circle cx="440" cy="720" fill="white" r="1" /><circle cx="440" cy="760" fill="white" r="1" /><circle cx="440" cy="800" fill="white" r="1" /><circle cx="440" cy="840" fill="white" r="1" /><circle cx="460" cy="40" fill="white" r="1" /><circle cx="460" cy="80" fill="white" r="1" /><circle cx="460" cy="120" fill="white" r="1" /><circle cx="460" cy="160" fill="white" r="1" /><circle cx="460" cy="200" fill="white" r="1" /><circle cx="460" cy="240" fill="white" r="1" /><circle cx="460" cy="260" fill="white" r="1" /><circle cx="460" cy="280" fill="white" r="1" /><circle cx="460" cy="300" fill="white" r="1" /><circle cx="460" cy="320" fill="white" r="1" /><circle cx="460" cy="340" fill="white" r="1" /><circle cx="460" cy="360" fill="white" r="1" /><circle cx="460" cy="380" fill="white" r="1" /><circle cx="460" cy="400" fill="white" r="1" /><circle cx="460" cy="420" fill="white" r="1" /><circle cx="460" cy="440" fill="white" r="1" /><circle cx="460" cy="460" fill="white" r="1" /><circle cx="460" cy="480" fill="white" r="1" /><circle cx="460" cy="500" fill="white" r="1" /><circle cx="460" cy="520" fill="white" r="1" /><circle cx="460" cy="540" fill="white" r="1" /><circle cx="460" cy="560" fill="white" r="1" /><circle cx="460" cy="580" fill="white" r="1" /><circle cx="460" cy="600" fill="white" r="1" /><circle cx="460" cy="640" fill="white" r="1" /><circle cx="460" cy="680" fill="white" r="1" /><circle cx="460" cy="720" fill="white" r="1" /><circle cx="460" cy="760" fill="white" r="1" /><circle cx="460" cy="800" fill="white" r="1" /><circle cx="460" cy="840" fill="white" r="1" /><circle cx="480" cy="40" fill="white" r="1" /><circle cx="480" cy="80" fill="white" r="1" /><circle cx="480" cy="120" fill="white" r="1" /><circle cx="480" cy="160" fill="white" r="1" /><circle cx="480" cy="200" fill="white" r="1" /><circle cx="480" cy="240" fill="white" r="1" /><circle cx="480" cy="260" fill="white" r="1" /><circle cx="480" cy="280" fill="white" r="1" /><circle cx="480" cy="300" fill="white" r="1" /><circle cx="480" cy="320" fill="white" r="1" /><circle cx="480" cy="340" fill="white" r="1" /><circle cx="480" cy="360" fill="white" r="1" /><circle cx="480" cy="380" fill="white" r="1" /><circle cx="480" cy="400" fill="white" r="1" /><circle cx="480" cy="420" fill="white" r="1" /><circle cx="480" cy="440" fill="white" r="1" /><circle cx="480" cy="460" fill="white" r="1" /><circle cx="480" cy="480" fill="white" r="1" /><circle cx="480" cy="500" fill="white" r="1" /><circle cx="480" cy="520" fill="white" r="1" /><circle cx="480" cy="540" fill="white" r="1" /><circle cx="480" cy="560" fill="white" r="1" /><circle cx="480" cy="580" fill="white" r="1" /><circle cx="480" cy="600" fill="white" r="1" /><circle cx="480" cy="640" fill="white" r="1" /><circle cx="480" cy="680" fill="white" r="1" /><circle cx="480" cy="720" fill="white" r="1" /><circle cx="480" cy="760" fill="white" r="1" /><circle cx="480" cy="800" fill="white" r="1" /><circle cx="480" cy="840" fill="white" r="1" /><circle cx="500" cy="40" fill="white" r="1" /><circle cx="500" cy="80" fill="white" r="1" /><circle cx="500" cy="120" fill="white" r="1" /><circle cx="500" cy="160" fill="white" r="1" /><circle cx="500" cy="200" fill="white" r="1" /><circle cx="500" cy="240" fill="white" r="1" /><circle cx="500" cy="260" fill="white" r="1" /><circle cx="500" cy="280" fill="white" r="1" /><circle cx="500" cy="300" fill="white" r="1" /><circle cx="500" cy="320" fill="white" r="1" /><circle cx="500" cy="340" fill="white" r="1" /><circle cx="500" cy="360" fill="white" r="1" /><circle cx="500" cy="380" fill="white" r="1" /><circle cx="500" cy="400" fill="white" r="1" /><circle cx="500" cy="420" fill="white" r="1" /><circle cx="500" cy="440" fill="white" r="1" /><circle cx="500" cy="460" fill="white" r="1" /><circle cx="500" cy="480" fill="white" r="1" /><circle cx="500" cy="500" fill="white" r="1" /><circle cx="500" cy="520" fill="white" r="1" /><circle cx="500" cy="540" fill="white" r="1" /><circle cx="500" cy="560" fill="white" r="1" /><circle cx="500" cy="580" fill="white" r="1" /><circle cx="500" cy="600" fill="white" r="1" /><circle cx="500" cy="640" fill="white" r="1" /><circle cx="500" cy="680" fill="white" r="1" /><circle cx="500" cy="720" fill="white" r="1" /><circle cx="500" cy="760" fill="white" r="1" /><circle cx="500" cy="800" fill="white" r="1" /><circle cx="500" cy="840" fill="white" r="1" /><circle cx="520" cy="40" fill="white" r="1" /><circle cx="520" cy="80" fill="white" r="1" /><circle cx="520" cy="120" fill="white" r="1" /><circle cx="520" cy="160" fill="white" r="1" /><circle cx="520" cy="200" fill="white" r="1" /><circle cx="520" cy="240" fill="white" r="1" /><circle cx="520" cy="260" fill="white" r="1" /><circle cx="520" cy="280" fill="white" r="1" /><circle cx="520" cy="300" fill="white" r="1" /><circle cx="520" cy="320" fill="white" r="1" /><circle cx="520" cy="340" fill="white" r="1" /><circle cx="520" cy="360" fill="white" r="1" /><circle cx="520" cy="380" fill="white" r="1" /><circle cx="520" cy="400" fill="white" r="1" /><circle cx="520" cy="420" fill="white" r="1" /><circle cx="520" cy="440" fill="white" r="1" /><circle cx="520" cy="460" fill="white" r="1" /><circle cx="520" cy="480" fill="white" r="1" /><circle cx="520" cy="500" fill="white" r="1" /><circle cx="520" cy="520" fill="white" r="1" /><circle cx="520" cy="540" fill="white" r="1" /><circle cx="520" cy="560" fill="white" r="1" /><circle cx="520" cy="580" fill="white" r="1" /><circle cx="520" cy="620" fill="white" r="1" /><circle cx="520" cy="660" fill="white" r="1" /><circle cx="520" cy="700" fill="white" r="1" /><circle cx="520" cy="740" fill="white" r="1" /><circle cx="520" cy="780" fill="white" r="1" /><circle cx="520" cy="820" fill="white" r="1" /><circle cx="540" cy="20" fill="white" r="1" /><circle cx="540" cy="60" fill="white" r="1" /><circle cx="540" cy="100" fill="white" r="1" /><circle cx="540" cy="140" fill="white" r="1" /><circle cx="540" cy="180" fill="white" r="1" /><circle cx="540" cy="220" fill="white" r="1" /><circle cx="540" cy="260" fill="white" r="1" /><circle cx="540" cy="280" fill="white" r="1" /><circle cx="540" cy="300" fill="white" r="1" /><circle cx="540" cy="320" fill="white" r="1" /><circle cx="540" cy="340" fill="white" r="1" /><circle cx="540" cy="360" fill="white" r="1" /><circle cx="540" cy="380" fill="white" r="1" /><circle cx="540" cy="400" fill="white" r="1" /><circle cx="540" cy="420" fill="white" r="1" /><circle cx="540" cy="440" fill="white" r="1" /><circle cx="540" cy="460" fill="white" r="1" /><circle cx="540" cy="480" fill="white" r="1" /><circle cx="540" cy="500" fill="white" r="1" /><circle cx="540" cy="520" fill="white" r="1" /><circle cx="540" cy="540" fill="white" r="1" /><circle cx="540" cy="560" fill="white" r="1" /><circle cx="540" cy="580" fill="white" r="1" /><circle cx="540" cy="620" fill="white" r="1" /><circle cx="540" cy="660" fill="white" r="1" /><circle cx="540" cy="700" fill="white" r="1" /><circle cx="540" cy="740" fill="white" r="1" /><circle cx="540" cy="780" fill="white" r="1" /><circle cx="540" cy="820" fill="white" r="1" /><circle cx="560" cy="20" fill="white" r="1" /><circle cx="560" cy="60" fill="white" r="1" /><circle cx="560" cy="100" fill="white" r="1" /><circle cx="560" cy="140" fill="white" r="1" /><circle cx="560" cy="180" fill="white" r="1" /><circle cx="560" cy="220" fill="white" r="1" /><circle cx="560" cy="260" fill="white" r="1" /><circle cx="560" cy="280" fill="white" r="1" /><circle cx="560" cy="300" fill="white" r="1" /><circle cx="560" cy="320" fill="white" r="1" /><circle cx="560" cy="340" fill="white" r="1" /><circle cx="560" cy="360" fill="white" r="1" /><circle cx="560" cy="380" fill="white" r="1" /><circle cx="560" cy="400" fill="white" r="1" /><circle cx="560" cy="420" fill="white" r="1" /><circle cx="560" cy="440" fill="white" r="1" /><circle cx="560" cy="460" fill="white" r="1" /><circle cx="560" cy="480" fill="white" r="1" /><circle cx="560" cy="500" fill="white" r="1" /><circle cx="560" cy="520" fill="white" r="1" /><circle cx="560" cy="540" fill="white" r="1" /><circle cx="560" cy="560" fill="white" r="1" /><circle cx="560" cy="600" fill="white" r="1" /><circle cx="560" cy="640" fill="white" r="1" /><circle cx="560" cy="680" fill="white" r="1" /><circle cx="560" cy="720" fill="white" r="1" /><circle cx="560" cy="760" fill="white" r="1" /><circle cx="560" cy="800" fill="white" r="1" /><circle cx="560" cy="840" fill="white" r="1" /><circle cx="580" cy="40" fill="white" r="1" /><circle cx="580" cy="80" fill="white" r="1" /><circle cx="580" cy="120" fill="white" r="1" /><circle cx="580" cy="160" fill="white" r="1" /><circle cx="580" cy="200" fill="white" r="1" /><circle cx="580" cy="240" fill="white" r="1" /><circle cx="580" cy="280" fill="white" r="1" /><circle cx="580" cy="300" fill="white" r="1" /><circle cx="580" cy="320" fill="white" r="1" /><circle cx="580" cy="340" fill="white" r="1" /><circle cx="580" cy="360" fill="white" r="1" /><circle cx="580" cy="380" fill="white" r="1" /><circle cx="580" cy="400" fill="white" r="1" /><circle cx="580" cy="420" fill="white" r="1" /><circle cx="580" cy="440" fill="white" r="1" /><circle cx="580" cy="460" fill="white" r="1" /><circle cx="580" cy="480" fill="white" r="1" /><circle cx="580" cy="500" fill="white" r="1" /><circle cx="580" cy="520" fill="white" r="1" /><circle cx="580" cy="540" fill="white" r="1" /><circle cx="580" cy="580" fill="white" r="1" /><circle cx="580" cy="620" fill="white" r="1" /><circle cx="580" cy="660" fill="white" r="1" /><circle cx="580" cy="700" fill="white" r="1" /><circle cx="580" cy="740" fill="white" r="1" /><circle cx="580" cy="780" fill="white" r="1" /><circle cx="580" cy="820" fill="white" r="1" /><circle cx="600" cy="20" fill="white" r="1" /><circle cx="600" cy="60" fill="white" r="1" /><circle cx="600" cy="100" fill="white" r="1" /><circle cx="600" cy="140" fill="white" r="1" /><circle cx="600" cy="180" fill="white" r="1" /><circle cx="600" cy="220" fill="white" r="1" /><circle cx="600" cy="260" fill="white" r="1" /><circle cx="600" cy="300" fill="white" r="1" /><circle cx="600" cy="340" fill="white" r="1" /><circle cx="600" cy="360" fill="white" r="1" /><circle cx="600" cy="380" fill="white" r="1" /><circle cx="600" cy="400" fill="white" r="1" /><circle cx="600" cy="420" fill="white" r="1" /><circle cx="600" cy="440" fill="white" r="1" /><circle cx="600" cy="460" fill="white" r="1" /><circle cx="600" cy="480" fill="white" r="1" /><circle cx="600" cy="500" fill="white" r="1" /><circle cx="600" cy="540" fill="white" r="1" /><circle cx="600" cy="580" fill="white" r="1" /><circle cx="600" cy="620" fill="white" r="1" /><circle cx="600" cy="660" fill="white" r="1" /><circle cx="600" cy="700" fill="white" r="1" /><circle cx="600" cy="740" fill="white" r="1" /><circle cx="600" cy="780" fill="white" r="1" /><circle cx="600" cy="820" fill="white" r="1" /><circle cx="620" cy="20" fill="white" r="1" /><circle cx="620" cy="60" fill="white" r="1" /><circle cx="620" cy="100" fill="white" r="1" /><circle cx="620" cy="140" fill="white" r="1" /><circle cx="620" cy="180" fill="white" r="1" /><circle cx="620" cy="220" fill="white" r="1" /><circle cx="620" cy="260" fill="white" r="1" /><circle cx="620" cy="300" fill="white" r="1" /><circle cx="620" cy="340" fill="white" r="1" /><circle cx="620" cy="380" fill="white" r="1" /><circle cx="620" cy="420" fill="white" r="1" /><circle cx="620" cy="460" fill="white" r="1" /><circle cx="620" cy="500" fill="white" r="1" /><circle cx="620" cy="540" fill="white" r="1" /><circle cx="620" cy="580" fill="white" r="1" /><circle cx="620" cy="620" fill="white" r="1" /><circle cx="620" cy="660" fill="white" r="1" /><circle cx="620" cy="700" fill="white" r="1" /><circle cx="620" cy="740" fill="white" r="1" /><circle cx="620" cy="780" fill="white" r="1" /><circle cx="620" cy="820" fill="white" r="1" /><circle cx="640" cy="20" fill="white" r="1" /><circle cx="640" cy="60" fill="white" r="1" /><circle cx="640" cy="100" fill="white" r="1" /><circle cx="640" cy="140" fill="white" r="1" /><circle cx="640" cy="180" fill="white" r="1" /><circle cx="640" cy="220" fill="white" r="1" /><circle cx="640" cy="260" fill="white" r="1" /><circle cx="640" cy="300" fill="white" r="1" /><circle cx="640" cy="340" fill="white" r="1" /><circle cx="640" cy="380" fill="white" r="1" /><circle cx="640" cy="420" fill="white" r="1" /><circle cx="640" cy="460" fill="white" r="1" /><circle cx="640" cy="500" fill="white" r="1" /><circle cx="640" cy="540" fill="white" r="1" /><circle cx="640" cy="580" fill="white" r="1" /><circle cx="640" cy="620" fill="white" r="1" /><circle cx="640" cy="660" fill="white" r="1" /><circle cx="640" cy="700" fill="white" r="1" /><circle cx="640" cy="740" fill="white" r="1" /><circle cx="640" cy="780" fill="white" r="1" /><circle cx="640" cy="820" fill="white" r="1" /><circle cx="660" cy="20" fill="white" r="1" /><circle cx="660" cy="60" fill="white" r="1" /><circle cx="660" cy="100" fill="white" r="1" /><circle cx="660" cy="140" fill="white" r="1" /><circle cx="660" cy="180" fill="white" r="1" /><circle cx="660" cy="220" fill="white" r="1" /><circle cx="660" cy="260" fill="white" r="1" /><circle cx="660" cy="300" fill="white" r="1" /><circle cx="660" cy="340" fill="white" r="1" /><circle cx="660" cy="380" fill="white" r="1" /><circle cx="660" cy="420" fill="white" r="1" /><circle cx="660" cy="460" fill="white" r="1" /><circle cx="660" cy="500" fill="white" r="1" /><circle cx="660" cy="540" fill="white" r="1" /><circle cx="660" cy="580" fill="white" r="1" /><circle cx="660" cy="620" fill="white" r="1" /><circle cx="660" cy="660" fill="white" r="1" /><circle cx="660" cy="700" fill="white" r="1" /><circle cx="660" cy="740" fill="white" r="1" /><circle cx="660" cy="780" fill="white" r="1" /><circle cx="660" cy="820" fill="white" r="1" /><circle cx="680" cy="20" fill="white" r="1" /><circle cx="680" cy="60" fill="white" r="1" /><circle cx="680" cy="100" fill="white" r="1" /><circle cx="680" cy="140" fill="white" r="1" /><circle cx="680" cy="180" fill="white" r="1" /><circle cx="680" cy="220" fill="white" r="1" /><circle cx="680" cy="260" fill="white" r="1" /><circle cx="680" cy="300" fill="white" r="1" /><circle cx="680" cy="340" fill="white" r="1" /><circle cx="680" cy="380" fill="white" r="1" /><circle cx="680" cy="420" fill="white" r="1" /><circle cx="680" cy="460" fill="white" r="1" /><circle cx="680" cy="500" fill="white" r="1" /><circle cx="680" cy="540" fill="white" r="1" /><circle cx="680" cy="580" fill="white" r="1" /><circle cx="680" cy="620" fill="white" r="1" /><circle cx="680" cy="660" fill="white" r="1" /><circle cx="680" cy="700" fill="white" r="1" /><circle cx="680" cy="740" fill="white" r="1" /><circle cx="680" cy="780" fill="white" r="1" /><circle cx="680" cy="820" fill="white" r="1" /><circle cx="700" cy="20" fill="white" r="1" /><circle cx="700" cy="60" fill="white" r="1" /><circle cx="700" cy="100" fill="white" r="1" /><circle cx="700" cy="140" fill="white" r="1" /><circle cx="700" cy="180" fill="white" r="1" /><circle cx="700" cy="220" fill="white" r="1" /><circle cx="700" cy="260" fill="white" r="1" /><circle cx="700" cy="300" fill="white" r="1" /><circle cx="700" cy="340" fill="white" r="1" /><circle cx="700" cy="380" fill="white" r="1" /><circle cx="700" cy="420" fill="white" r="1" /><circle cx="700" cy="460" fill="white" r="1" /><circle cx="700" cy="500" fill="white" r="1" /><circle cx="700" cy="540" fill="white" r="1" /><circle cx="700" cy="580" fill="white" r="1" /><circle cx="700" cy="620" fill="white" r="1" /><circle cx="700" cy="660" fill="white" r="1" /><circle cx="700" cy="700" fill="white" r="1" /><circle cx="700" cy="740" fill="white" r="1" /><circle cx="700" cy="780" fill="white" r="1" /><circle cx="700" cy="820" fill="white" r="1" /><circle cx="720" cy="20" fill="white" r="1" /><circle cx="720" cy="60" fill="white" r="1" /><circle cx="720" cy="100" fill="white" r="1" /><circle cx="720" cy="140" fill="white" r="1" /><circle cx="720" cy="180" fill="white" r="1" /><circle cx="720" cy="220" fill="white" r="1" /><circle cx="720" cy="260" fill="white" r="1" /><circle cx="720" cy="300" fill="white" r="1" /><circle cx="720" cy="340" fill="white" r="1" /><circle cx="720" cy="380" fill="white" r="1" /><circle cx="720" cy="420" fill="white" r="1" /><circle cx="720" cy="460" fill="white" r="1" /><circle cx="720" cy="500" fill="white" r="1" /><circle cx="720" cy="540" fill="white" r="1" /><circle cx="720" cy="580" fill="white" r="1" /><circle cx="720" cy="620" fill="white" r="1" /><circle cx="720" cy="660" fill="white" r="1" /><circle cx="720" cy="700" fill="white" r="1" /><circle cx="720" cy="740" fill="white" r="1" /><circle cx="720" cy="780" fill="white" r="1" /><circle cx="720" cy="820" fill="white" r="1" /><circle cx="740" cy="20" fill="white" r="1" /><circle cx="740" cy="60" fill="white" r="1" /><circle cx="740" cy="100" fill="white" r="1" /><circle cx="740" cy="140" fill="white" r="1" /><circle cx="740" cy="180" fill="white" r="1" /><circle cx="740" cy="220" fill="white" r="1" /><circle cx="740" cy="260" fill="white" r="1" /><circle cx="740" cy="300" fill="white" r="1" /><circle cx="740" cy="340" fill="white" r="1" /><circle cx="740" cy="380" fill="white" r="1" /><circle cx="740" cy="420" fill="white" r="1" /><circle cx="740" cy="460" fill="white" r="1" /><circle cx="740" cy="500" fill="white" r="1" /><circle cx="740" cy="540" fill="white" r="1" /><circle cx="740" cy="580" fill="white" r="1" /><circle cx="740" cy="620" fill="white" r="1" /><circle cx="740" cy="660" fill="white" r="1" /><circle cx="740" cy="700" fill="white" r="1" /><circle cx="740" cy="740" fill="white" r="1" /><circle cx="740" cy="780" fill="white" r="1" /><circle cx="740" cy="820" fill="white" r="1" /><circle cx="760" cy="20" fill="white" r="1" /><circle cx="760" cy="60" fill="white" r="1" /><circle cx="760" cy="100" fill="white" r="1" /><circle cx="760" cy="140" fill="white" r="1" /><circle cx="760" cy="180" fill="white" r="1" /><circle cx="760" cy="220" fill="white" r="1" /><circle cx="760" cy="260" fill="white" r="1" /><circle cx="760" cy="300" fill="white" r="1" /><circle cx="760" cy="340" fill="white" r="1" /><circle cx="760" cy="380" fill="white" r="1" /><circle cx="760" cy="420" fill="white" r="1" /><circle cx="760" cy="460" fill="white" r="1" /><circle cx="760" cy="500" fill="white" r="1" /><circle cx="760" cy="540" fill="white" r="1" /><circle cx="760" cy="580" fill="white" r="1" /><circle cx="760" cy="620" fill="white" r="1" /><circle cx="760" cy="660" fill="white" r="1" /><circle cx="760" cy="700" fill="white" r="1" /><circle cx="760" cy="740" fill="white" r="1" /><circle cx="760" cy="780" fill="white" r="1" /><circle cx="760" cy="820" fill="white" r="1" /><circle cx="780" cy="20" fill="white" r="1" /><circle cx="780" cy="60" fill="white" r="1" /><circle cx="780" cy="100" fill="white" r="1" /><circle cx="780" cy="140" fill="white" r="1" /><circle cx="780" cy="180" fill="white" r="1" /><circle cx="780" cy="220" fill="white" r="1" /><circle cx="780" cy="260" fill="white" r="1" /><circle cx="780" cy="300" fill="white" r="1" /><circle cx="780" cy="340" fill="white" r="1" /><circle cx="780" cy="380" fill="white" r="1" /><circle cx="780" cy="420" fill="white" r="1" /><circle cx="780" cy="460" fill="white" r="1" /><circle cx="780" cy="500" fill="white" r="1" /><circle cx="780" cy="540" fill="white" r="1" /><circle cx="780" cy="580" fill="white" r="1" /><circle cx="780" cy="620" fill="white" r="1" /><circle cx="780" cy="660" fill="white" r="1" /><circle cx="780" cy="700" fill="white" r="1" /><circle cx="780" cy="740" fill="white" r="1" /><circle cx="780" cy="780" fill="white" r="1" /><circle cx="780" cy="820" fill="white" r="1" /><circle cx="800" cy="20" fill="white" r="1" /><circle cx="800" cy="60" fill="white" r="1" /><circle cx="800" cy="100" fill="white" r="1" /><circle cx="800" cy="140" fill="white" r="1" /><circle cx="800" cy="180" fill="white" r="1" /><circle cx="800" cy="220" fill="white" r="1" /><circle cx="800" cy="260" fill="white" r="1" /><circle cx="800" cy="300" fill="white" r="1" /><circle cx="800" cy="340" fill="white" r="1" /><circle cx="800" cy="380" fill="white" r="1" /><circle cx="800" cy="420" fill="white" r="1" /><circle cx="800" cy="460" fill="white" r="1" /><circle cx="800" cy="500" fill="white" r="1" /><circle cx="800" cy="540" fill="white" r="1" /><circle cx="800" cy="580" fill="white" r="1" /><circle cx="800" cy="620" fill="white" r="1" /><circle cx="800" cy="660" fill="white" r="1" /><circle cx="800" cy="700" fill="white" r="1" /><circle cx="800" cy="740" fill="white" r="1" /><circle cx="800" cy="780" fill="white" r="1" /><circle cx="800" cy="820" fill="white" r="1" /><circle cx="820" cy="20" fill="white" r="1" /><circle cx="820" cy="60" fill="white" r="1" /><circle cx="820" cy="100" fill="white" r="1" /><circle cx="820" cy="140" fill="white" r="1" /><circle cx="820" cy="180" fill="white" r="1" /><circle cx="820" cy="220" fill="white" r="1" /><circle cx="820" cy="260" fill="white" r="1" /><circle cx="820" cy="300" fill="white" r="1" /><circle cx="820" cy="340" fill="white" r="1" /><circle cx="820" cy="380" fill="white" r="1" /><circle cx="820" cy="420" fill="white" r="1" /><circle cx="820" cy="460" fill="white" r="1" /><circle cx="820" cy="500" fill="white" r="1" /><circle cx="820" cy="540" fill="white" r="1" /><circle cx="820" cy="580" fill="white" r="1" /><circle cx="820" cy="620" fill="white" r="1" /><circle cx="820" cy="660" fill="white" r="1" /><circle cx="820" cy="700" fill="white" r="1" /><circle cx="820" cy="740" fill="white" r="1" /><circle cx="820" cy="780" fill="white" r="1" /><circle cx="820" cy="820" fill="white" r="1" /><circle cx="840" cy="20" fill="white" r="1" /><circle cx="840" cy="60" fill="white" r="1" /><circle cx="840" cy="100" fill="white" r="1" /><circle cx="840" cy="140" fill="white" r="1" /><circle cx="840" cy="180" fill="white" r="1" /><circle cx="840" cy="220" fill="white" r="1" /><circle cx="840" cy="260" fill="white" r="1" /><circle cx="840" cy="300" fill="white" r="1" /><circle cx="840" cy="340" fill="white" r="1" /><circle cx="840" cy="380" fill="white" r="1" /><circle cx="840" cy="420" fill="white" r="1" /><circle cx="840" cy="460" fill="white" r="1" /><circle cx="840" cy="500" fill="white" r="1" /><circle cx="840" cy="540" fill="white" r="1" /><circle cx="840" cy="580" fill="white" r="1" /><circle cx="840" cy="620" fill="white" r="1" /><circle cx="840" cy="660" fill="white" r="1" /><circle cx="840" cy="700" fill="white" r="1" /><circle cx="840" cy="740" fill="white" r="1" /><circle cx="840" cy="780" fill="white" r="1" /><circle cx="840" cy="820" fill="white" r="1" /><g><path d="M 520 460 L 520 460 L 520.0 475.0 C 520.0 477.238576250845 517.238576250845 480.0 515.0 480.0 L 505.0 480.0 C 502.761423749155 480.0 500.0 482.761423749155 500.0 485.0 L 500 500 L 500.0 515.0 C 500.0 517.238576250845 497.238576250845 520.0 495.0 520.0 L 480 520 L 460 520 L 440 520 L 425.0 520.0 C 422.761423749155 520.0 420.0 522.761423749155 420.0 525.0 L 420 540 L 420.0 555.0 C 420.0 557.238576250845 417.238576250845 560.0 415.0 560.0 L 400 560 L 380 560" fill="none" stroke="#111111" stroke-width="9" /><path d="M 520 460 L 520 460 L 520.0 475.0 C 520.0 477.238576250845 517.238576250845 480.0 515.0 480.0 L 505.0 480.0 C 502.761423749155 480.0 500.0 482.761423749155 500.0 485.0 L 500 500 L 500.0 515.0 C 500.0 517.238576250845 497.238576250845 520.0 495.0 520.0 L 480 520 L 460 520 L 440 520 L 425.0 520.0 C 422.761423749155 520.0 420.0 522.761423749155 420.0 525.0 L 420 540 L 420.0 555.0 C 420.0 557.238576250845 417.238576250845 560.0 415.0 560.0 L 400 560 L 380 560" fill="none" stroke="#e74c3c" stroke-width="3" /><path d="M 380.0 554.0 L 370.0 560.0 L 380.0 566.0" fill="#e74c3c" /><circle cx="520" cy="460" fill="#e74c3c" r="5" /></g></svg>