<?xml version="1.0" encoding="utf-8" ?>
<svg baseProfile="full" height="100%" version="1.1" width="100%" xmlns="http://www.w3.org/2000/svg" xmlns:ev="http://www.w3.org/2001/xml-events" xmlns:xlink="http://www.w3.org/1999/xlink"><defs /><g><path d="M 175 100 L 175 125 L 150 125 L 125 125 L 100 125 L 75 125 L 50 125" fill="none" stroke="#ffffff" stroke-width="6" /><path d="M 175 100 L 175 125 L 150 125 L 125 125 L 100 125 L 75 125 L 50 125" fill="none" stroke="#e67e22" stroke-width="3" /><circle cx="175" cy="100" fill="#e67e22" r="5" /></g><g><path d="M 125 125 L 100 125" fill="none" stroke="#ffffff" stroke-width="6" /><path d="M 125 125 L 100 125" fill="none" stroke="#3498db" stroke-width="3" /><circle cx="125" cy="125" fill="#3498db" r="5" /></g><g><path d="M 150 150 L 125 150 L 100 150 L 75 150" fill="none" stroke="#ffffff" stroke-width="6" /><path d="M 150 150 L 125 150 L 100 150 L 75 150" fill="none" stroke="#9b59b6" stroke-width="3" /><circle cx="150" cy="150" fill="#9b59b6" r="5" /></g><g><path d="M 50 125 L 75 125 L 100 125 L 125 125 L 125 150 L 150 150 L 175 150" fill="none" stroke="#ffffff" stroke-width="6" /><path d="M 50 125 L 75 125 L 100 125 L 125 125 L 125 150 L 150 150 L 175 150" fill="none" stroke="#3498db" stroke-width="3" /><circle cx="50" cy="125" fill="#3498db" r="5" /></g><g><path d="M 75 175 L 50 175" fill="none" stroke="#ffffff" stroke-width="6" /><path d="M 75 175 L 50 175" fill="none" stroke="#e74c3c" stroke-width="3" /><circle cx="75" cy="175" fill="#e74c3c" r="5" /></g><g><path d="M 125 75 L 125 100 L 125 125 L 150 125 L 175 125" fill="none" stroke="#ffffff" stroke-width="6" /><path d="M 125 75 L 125 100 L 125 125 L 150 125 L 175 125" fill="none" stroke="#2ecc71" stroke-width="3" /><circle cx="125" cy="75" fill="#2ecc71" r="5" /></g><g><path d="M 100 125 L 125 125 L 150 125" fill="none" stroke="#ffffff" stroke-width="6" /><path d="M 100 125 L 125 125 L 150 125" fill="none" stroke="#9b59b6" stroke-width="3" /><circle cx="100" cy="125" fill="#9b59b6" r="5" /></g><g><path d="M 100 150 L 125 150 L 150 150 L 150 125 L 150 100 L 175 100" fill="none" stroke="#ffffff" stroke-width="6" /><path d="M 100 150 L 125 150 L 150 150 L 150 125 L 150 100 L 175 100" fill="none" stroke="#f1c40f" stroke-width="3" /><circle cx="100" cy="150" fill="#f1c40f" r="5" /></g><g><path d="M 100 175 L 75 175 L 75 150 L 75 125 L 75 100 L 75 75" fill="none" stroke="#ffffff" stroke-width="6" /><path d="M 100 175 L 75 175 L 75 150 L 75 125 L 75 100 L 75 75" fill="none" stroke="#1abc9c" stroke-width="3" /><circle cx="100" cy="175" fill="#1abc9c" r="5" /></g><g><path d="M 100 75 L 125 75 L 150 75" fill="none" stroke="#ffffff" stroke-width="6" /><path d="M 100 75 L 125 75 L 150 75" fill="none" stroke="#e67e22" stroke-width="3" /><circle cx="100" cy="75" fill="#e67e22" r="5" /></g><g><path d="M 50 150 L 50 125 L 50 100 L 50 75 L 75 75 L 100 75 L 125 75" fill="none" stroke="#ffffff" stroke-width="6" /><path d="M 50 150 L 50 125 L 50 100 L 50 75 L 75 75 L 100 75 L 125 75" fill="none" stroke="#e67e22" stroke-width="3" /><circle cx="50" cy="150" fill="#e67e22" r="5" /></g><g><path d="M 50 150 L 50 125 L 75 125 L 100 125 L 125 125 L 150 125 L 175 125" fill="none" stroke="#ffffff" stroke-width="6" /><path d="M 50 150 L 50 125 L 75 125 L 100 125 L 125 125 L 150 125 L 175 125" fill="none" stroke="#1abc9c" stroke-width="3" /><circle cx="50" cy="150" fill="#1abc9c" r="5" /></g><g><path d="M 125 150 L 150 150 L 150 125 L 150 100 L 150 75" fill="none" stroke="#ffffff" stroke-width="6" /><path d="M 125 150 L 150 150 L 150 125 L 150 100 L 150 75" fill="none" stroke="#3498db" stroke-width="3" /><circle cx="125" cy="150" fill="#3498db" r="5" /></g><g><path d="M 150 125 L 125 125 L 125 100 L 125 75 L 100 75" fill="none" stroke="#ffffff" stroke-width="6" /><path d="M 150 125 L 125 125 L 125 100 L 125 75 L 100 75" fill="none" stroke="#e74c3c" stroke-width="3" /><circle cx="150" cy="125" fill="#e74c3c" r="5" /></g><g><path d="M 150 75 L 150 100 L 125 100 L 125 125 L 125 150 L 125 175 L 100 175" fill="none" stroke="#ffffff" stroke-width="6" /><path d="M 150 75 L 150 100 L 125 100 L 125 125 L 125 150 L 125 175 L 100 175" fill="none" stroke="#3498db" stroke-width="3" /><circle cx="150" cy="75" fill="#3498db" r="5" /></g><g><path d="M 125 175 L 150 175" fill="none" stroke="#ffffff" stroke-width="6" /><path d="M 125 175 L 150 175" fill="none" stroke="#3498db" stroke-width="3" /><circle cx="125" cy="175" fill="#3498db" r="5" /></g><g><path d="M 50 100 L 75 100 L 75 125 L 100 125" fill="none" stroke="#ffffff" stroke-width="6" /><path d="M 50 100 L 75 100 L 75 125 L 100 125" fill="none" stroke="#f1c40f" stroke-width="3" /><circle cx="50" cy="100" fill="#f1c40f" r="5" /></g><g><path d="M 50 150 L 50 125 L 50 100 L 75 100 L 100 100 L 125 100" fill="none" stroke="#ffffff" stroke-width="6" /><path d="M 50 150 L 50 125 L 50 100 L 75 100 L 100 100 L 125 100" fill="none" stroke="#e74c3c" stroke-width="3" /><circle cx="50" cy="150" fill="#e74c3c" r="5" /></g><g><path d="M 75 175 L 75 150" fill="none" stroke="#ffffff" stroke-width="6" /><path d="M 75 175 L 75 150" fill="none" stroke="#e74c3c" stroke-width="3" /><circle cx="75" cy="175" fill="#e74c3c" r="5" /></g><g><path d="M 125 125 L 125 150 L 150 150 L 175 150" fill="none" stroke="#ffffff" stroke-width="6" /><path d="M 125 125 L 125 150 L 150 150 L 175 150" fill="none" stroke="#2ecc71" stroke-width="3" /><circle cx="125" cy="125" fill="#2ecc71" r="5" /></g><g><path d="M 175 175 L 150 175 L 125 175 L 125 150 L 125 125 L 100 125" fill="none" stroke="#ffffff" stroke-width="6" /><path d="M 175 175 L 150 175 L 125 175 L 125 150 L 125 125 L 100 125" fill="none" stroke="#3498db" stroke-width="3" /><circle cx="175" cy="175" fill="#3498db" r="5" /></g><g><path d="M 100 125 L 125 125 L 125 100 L 125 75" fill="none" stroke="#ffffff" stroke-width="6" /><path d="M 100 125 L 125 125 L 125 100 L 125 75" fill="none" stroke="#2ecc71" stroke-width="3" /><circle cx="100" cy="125" fill="#2ecc71" r="5" /></g><g><path d="M 150 75 L 150 100 L 150 125 L 150 150 L 150 175" fill="none" stroke="#ffffff" stroke-width="6" /><path d="M 150 75 L 150 100 L 150 125 L 150 150 L 150 175" fill="none" stroke="#9b59b6" stroke-width="3" /><circle cx="150" cy="75" fill="#9b59b6" r="5" /></g><g><path d="M 175 125 L 150 125 L 125 125 L 125 150 L 100 150" fill="none" stroke="#ffffff" stroke-width="6" /><path d="M 175 125 L 150 125 L 125 125 L 125 150 L 100 150" fill="none" stroke="#e74c3c" stroke-width="3" /><circle cx="175" cy="125" fill="#e74c3c" r="5" /></g><g><path d="M 50 175 L 75 175 L 100 175 L 125 175 L 150 175" fill="none" stroke="#ffffff" stroke-width="6" /><path d="M 50 175 L 75 175 L 100 175 L 125 175 L 150 175" fill="none" stroke="#f1c40f" stroke-width="3" /><circle cx="50" cy="175" fill="#f1c40f" r="5" /></g><g><path d="M 150 150 L 150 175 L 125 175 L 100 175" fill="none" stroke="#ffffff" stroke-width="6" /><path d="M 150 150 L 150 175 L 125 175 L 100 175" fill="none" stroke="#2ecc71" stroke-width="3" /><circle cx="150" cy="150" fill="#2ecc71" r="5" /></g><g><path d="M 75 150 L 100 150 L 125 150 L 150 150 L 150 125 L 175 125" fill="none" stroke="#ffffff" stroke-width="6" /><path d="M 75 150 L 100 150 L 125 150 L 150 150 L 150 125 L 175 125" fill="none" stroke="#f1c40f" stroke-width="3" /><circle cx="75" cy="150" fill="#f1c40f" r="5" /></g><g><path d="M 50 150 L 50 125 L 75 125 L 100 125 L 125 125 L 150 125 L 175 125" fill="none" stroke="#ffffff" stroke-width="6" /><path d="M 50 150 L 50 125 L 75 125 L 100 125 L 125 125 L 150 125 L 175 125" fill="none" stroke="#1abc9c" stroke-width="3" /><circle cx="50" cy="150" fill="#1abc9c" r="5" /></g><g><path d="M 175 150 L 175 175 L 150 175 L 125 175 L 100 175 L 75 175 L 50 175" fill="none" stroke="#ffffff" stroke-width="6" /><path d="M 175 150 L 175 175 L 150 175 L 125 175 L 100 175 L 75 175 L 50 175" fill="none" stroke="#e74c3c" stroke-width="3" /><circle cx="175" cy="150" fill="#e74c3c" r="5" /></g><g><path d="M 100 75 L 75 75" fill="none" stroke="#ffffff" stroke-width="6" /><path d="M 100 75 L 75 75" fill="none" stroke="#e67e22" stroke-width="3" /><circle cx="100" cy="75" fill="#e67e22" r="5" /></g></svg>